<svg id="Layer_1" data-name="Layer 1" xmlns="http://www.w3.org/2000/svg" xmlns:xlink="http://www.w3.org/1999/xlink" viewBox="0 0 1664.52 220.18"><defs><style>.cls-1{fill:#b1b4b9;}.cls-2{fill:url(#radial-gradient);}.cls-3{fill:url(#radial-gradient-2);}.cls-4{fill:url(#Heatherstone);}.cls-5{fill:url(#Heatherstone-2);}.cls-6{fill:url(#Heatherstone-3);}.cls-7{fill:url(#New_Gradient_Swatch);}</style><radialGradient id="radial-gradient" cx="182.9" cy="110.09" r="150.95" gradientUnits="userSpaceOnUse"><stop offset="0" stop-color="#d4a232"/><stop offset="0.04" stop-color="#d6a83c"/><stop offset="0.25" stop-color="#e2c46f"/><stop offset="0.41" stop-color="#e9d58f"/><stop offset="0.5" stop-color="#ecdc9b"/><stop offset="0.57" stop-color="#f2e5a7"/><stop offset="0.67" stop-color="#fffac3"/><stop offset="0.85" stop-color="#d4b976"/><stop offset="1" stop-color="#b08234"/></radialGradient><radialGradient id="radial-gradient-2" cx="405.65" cy="15.89" r="900.82" xlink:href="#radial-gradient"/><linearGradient id="Heatherstone" x1="1279.56" y1="54.28" x2="1730.23" y2="286.73" gradientUnits="userSpaceOnUse"><stop offset="0.01" stop-color="#8a8d98"/><stop offset="0.02" stop-color="#8c8f9a"/><stop offset="0.19" stop-color="#9ea1ad"/><stop offset="0.36" stop-color="#a8abb9"/><stop offset="0.53" stop-color="#acafbd"/><stop offset="0.69" stop-color="#b0b3c0"/><stop offset="0.84" stop-color="#bbbeca"/><stop offset="0.98" stop-color="#cfd1db"/><stop offset="1" stop-color="#d2d4de"/></linearGradient><linearGradient id="Heatherstone-2" x1="1303.43" y1="7.99" x2="1754.1" y2="240.45" xlink:href="#Heatherstone"/><linearGradient id="Heatherstone-3" x1="1328.66" y1="-40.93" x2="1779.33" y2="191.52" xlink:href="#Heatherstone"/><linearGradient id="New_Gradient_Swatch" x1="648.51" y1="65.16" x2="707.87" y2="157.76" xlink:href="#radial-gradient"/></defs><title>CC2021Logo</title><polygon class="cls-1" points="0 156.15 0 165.13 7.62 169.53 365.81 59.28 365.81 55.04 0 156.15"/><polygon class="cls-1" points="0 63.84 175.07 165.28 190.37 156.33 0 55.04 0 63.84"/><polygon class="cls-2" points="365.81 165.13 365.81 165.13 365.81 165.13 365.81 165.13 365.81 55.04 361.27 57.66 365.81 55.04 270.47 0 182.9 50.55 175.44 55.22 175.44 156.33 175.44 156.33 175.44 156.33 95.34 202.58 15.24 156.33 15.24 63.84 5.3 58.1 15.25 63.84 95.34 17.6 141.1 44.02 145.58 46.6 145.58 29 141.07 26.41 95.34 0 0 55.04 0 55.04 0 165.13 95.34 220.18 95.34 220.18 95.34 220.18 95.34 220.18 95.34 220.18 182.9 169.62 182.9 169.62 182.9 169.62 190.37 165.31 190.37 63.84 190.37 63.84 190.37 63.84 270.47 17.6 350.56 63.84 350.56 156.33 271.83 201.79 227.44 176.16 222.95 173.57 222.95 191.17 227.46 193.77 270.47 218.6 270.47 220.18 271.83 219.39 273.19 220.18 273.19 218.6 365.81 165.13 365.81 165.13"/><path class="cls-3" d="M456.16,51.87c26.77,0,40.47,14.65,40.47,14.65l-7.71,11.65S476,66.05,456.79,66.05c-24.88,0-41.11,18.9-41.11,42.52,0,23.78,16.54,43.94,41.27,43.94,20.94,0,34.33-14.49,34.33-14.49l8.35,11.18s-15.28,17.64-43.16,17.64c-33.39,0-56.85-25.51-56.85-58.11,0-32.29,24.25-56.86,56.54-56.86"/><path class="cls-3" d="M561.26,107.15c12.12,0,19.68-7.72,19.68-20.16,0-8.19-3.15-14-8.82-17.16-3-1.58-6.61-2.52-15.27-2.52h-18v39.84Zm-38-53.39h34c11.65,0,16.54,1,20.79,2.52,11.34,4.26,18.74,15.44,18.74,30.08,0,14.18-7.88,26.15-20,30.08v.32a32.21,32.21,0,0,1,3.3,5L603.78,165H586.14L562.67,120.7H538.89V165H523.3Z"/><path class="cls-3" d="M761.75,140.38s11.81,12,28.35,12c10.39,0,19.22-5.82,19.22-16.37,0-24.1-53.87-18.91-53.87-53.08,0-17.32,15-31,35.91-31,20.63,0,31.5,11.19,31.5,11.19L815.77,76s-10.23-9.61-24.41-9.61c-11.81,0-20.16,7.4-20.16,16.22,0,23,53.86,16.85,53.86,52.92,0,17.17-13.23,31.34-35.27,31.34-23.63,0-36.86-14.64-36.86-14.64Z"/><path class="cls-3" d="M854,140.38s11.82,12,28.35,12c10.4,0,19.22-5.82,19.22-16.37,0-24.1-53.86-18.91-53.86-53.08,0-17.32,15-31,35.9-31,20.63,0,31.5,11.19,31.5,11.19L908.07,76s-10.24-9.61-24.42-9.61c-11.81,0-20.16,7.4-20.16,16.22,0,23,53.87,16.85,53.87,52.92,0,17.17-13.23,31.34-35.28,31.34-23.63,0-36.86-14.64-36.86-14.64Z"/><rect class="cls-3" x="946.02" y="53.76" width="15.59" height="111.19"/><path class="cls-3" d="M998.15,53.76h15.44L1063,126.05c4.09,6,9.29,16.07,9.29,16.07h.32s-1.11-9.93-1.11-16.07V53.76h15.59V165h-15.27l-49.61-72.13c-4.1-6.14-9.29-16.22-9.29-16.22h-.32s1.1,9.92,1.1,16.22V165H998.15Z"/><path class="cls-3" d="M1166.67,51.87c26.62,0,40.48,13.39,40.48,13.39l-7.88,11.65a51.2,51.2,0,0,0-31.34-10.86c-26.14,0-41.89,19-41.89,42.83,0,25.83,17.64,43.63,41,43.63,19.21,0,31.5-13.86,31.5-13.86V122.58h-18.12V109h32.29V165H1199V158c0-2.36.16-4.72.16-4.72h-.32s-12.12,13.54-34.17,13.54c-29.93,0-54.65-23.62-54.65-57.64,0-32.13,24.25-57.33,56.69-57.33"/><path class="cls-3" d="M1244.48,140.38s11.81,12,28.35,12c10.39,0,19.21-5.82,19.21-16.37,0-24.1-53.86-18.91-53.86-53.08,0-17.32,15-31,35.91-31,20.63,0,31.49,11.19,31.49,11.19L1298.5,76s-10.24-9.61-24.41-9.61c-11.82,0-20.16,7.4-20.16,16.22,0,23,53.86,16.85,53.86,52.92,0,17.17-13.23,31.34-35.28,31.34-23.62,0-36.85-14.64-36.85-14.64Z"/><path class="cls-4" d="M1385.44,51.87c26.77,0,40.47,14.65,40.47,14.65l-7.71,11.65s-12.92-12.12-32.13-12.12c-24.89,0-41.11,18.9-41.11,42.52,0,23.78,16.54,43.94,41.27,43.94,20.94,0,34.33-14.49,34.33-14.49l8.35,11.18s-15.28,17.64-43.16,17.64c-33.39,0-56.85-25.51-56.85-58.11,0-32.29,24.25-56.86,56.54-56.86"/><path class="cls-5" d="M1499.78,152.51c22.68,0,40.94-18.9,40.94-43.94,0-24.25-18.26-42.52-40.94-42.52s-41.1,18.27-41.1,42.52c0,25,18.42,43.94,41.1,43.94m0-100.64c32.13,0,57,24.73,57,56.7,0,32.76-24.88,58.27-57,58.27s-57.17-25.51-57.17-58.27c0-32,25-56.7,57.17-56.7"/><path class="cls-6" d="M1575.54,53.76H1591l49.46,72.29c4.09,6,9.29,16.07,9.29,16.07h.31s-1.1-9.93-1.1-16.07V53.76h15.59V165h-15.27l-49.61-72.13c-4.1-6.14-9.3-16.22-9.3-16.22H1590s1.1,9.92,1.1,16.22V165h-15.59Z"/><path class="cls-7" d="M677,171,623.74,140.3V78.83L677,48.09l53.23,30.74V140.3ZM639.2,131.37,677,153.19l37.78-21.82V87.75L677,65.94,639.2,87.75Z"/></svg>