<svg id="Layer_1" data-name="Layer 1" xmlns="http://www.w3.org/2000/svg" xmlns:xlink="http://www.w3.org/1999/xlink" viewBox="0 0 365.81 220.18"><defs><style>.cls-1{fill:#b1b4b9;}.cls-2{fill:url(#radial-gradient);}</style><radialGradient id="radial-gradient" cx="182.9" cy="110.09" r="150.95" gradientUnits="userSpaceOnUse"><stop offset="0" stop-color="#d4a232"/><stop offset="0.04" stop-color="#d6a83c"/><stop offset="0.25" stop-color="#e2c46f"/><stop offset="0.41" stop-color="#e9d58f"/><stop offset="0.5" stop-color="#ecdc9b"/><stop offset="0.57" stop-color="#f2e5a7"/><stop offset="0.67" stop-color="#fffac3"/><stop offset="0.85" stop-color="#d4b976"/><stop offset="1" stop-color="#b08234"/></radialGradient></defs><title>CC2021Logo-MarkOnly</title><polygon class="cls-1" points="0 156.15 0 165.13 7.62 169.53 365.81 59.28 365.81 55.04 0 156.15"/><polygon class="cls-1" points="0 63.84 175.07 165.28 190.37 156.33 0 55.04 0 63.84"/><polygon class="cls-2" points="365.81 165.13 365.81 165.13 365.81 165.13 365.81 165.13 365.81 55.04 361.27 57.66 365.81 55.04 270.47 0 182.9 50.55 175.44 55.22 175.44 156.33 175.44 156.33 175.44 156.33 95.34 202.58 15.24 156.33 15.24 63.84 5.3 58.1 15.25 63.84 95.34 17.6 141.1 44.02 145.58 46.6 145.58 29 141.07 26.41 95.34 0 0 55.04 0 55.04 0 165.13 95.34 220.18 95.34 220.18 95.34 220.18 95.34 220.18 95.34 220.18 182.9 169.62 182.9 169.62 182.9 169.62 190.37 165.31 190.37 63.84 190.37 63.84 190.37 63.84 270.47 17.6 350.56 63.84 350.56 156.33 271.83 201.79 227.44 176.16 222.95 173.57 222.95 191.17 227.46 193.77 270.47 218.6 270.47 220.18 271.83 219.39 273.19 220.18 273.19 218.6 365.81 165.13 365.81 165.13"/></svg>