<svg xmlns="http://www.w3.org/2000/svg" xmlns:xlink="http://www.w3.org/1999/xlink" viewBox="0 0 1845.93 46.33"><defs><style>.cls-1{fill:url(#radial-gradient);}.cls-2{fill:url(#radial-gradient-2);}.cls-3{fill:url(#radial-gradient-3);}.cls-4{fill:url(#radial-gradient-4);}.cls-5{fill:url(#radial-gradient-5);}.cls-6{fill:url(#linear-gradient);}.cls-7{fill:url(#linear-gradient-2);}.cls-8{fill:url(#linear-gradient-3);}.cls-9{fill:url(#linear-gradient-4);}.cls-10{fill:url(#linear-gradient-5);}.cls-11{fill:url(#linear-gradient-6);}.cls-12{fill:url(#linear-gradient-7);}.cls-13{fill:url(#linear-gradient-8);}.cls-14{fill:url(#linear-gradient-9);}.cls-15{fill:url(#linear-gradient-10);}.cls-16{fill:url(#linear-gradient-11);}.cls-17{fill:url(#linear-gradient-12);}.cls-18{fill:url(#linear-gradient-13);}.cls-19{fill:url(#linear-gradient-14);}.cls-20{fill:url(#linear-gradient-15);}.cls-21{fill:url(#linear-gradient-16);}.cls-22{fill:url(#linear-gradient-17);}.cls-23{fill:url(#linear-gradient-18);}.cls-24{fill:url(#linear-gradient-19);}.cls-25{fill:url(#linear-gradient-20);}.cls-26{fill:url(#linear-gradient-21);}.cls-27{fill:url(#linear-gradient-22);}.cls-28{fill:url(#linear-gradient-23);}.cls-29{fill:url(#linear-gradient-24);}.cls-30{fill:url(#linear-gradient-25);}.cls-31{fill:url(#linear-gradient-26);}.cls-32{fill:url(#linear-gradient-27);}.cls-33{fill:url(#linear-gradient-28);}.cls-34{fill:url(#linear-gradient-29);}.cls-35{fill:url(#linear-gradient-30);}.cls-36{fill:url(#linear-gradient-31);}.cls-37{fill:url(#linear-gradient-32);}.cls-38{fill:url(#linear-gradient-33);}.cls-39{fill:url(#linear-gradient-34);}.cls-40{fill:url(#radial-gradient-6);}.cls-41{fill:url(#radial-gradient-7);}.cls-42{fill:url(#radial-gradient-8);}.cls-43{fill:url(#radial-gradient-9);}.cls-44{fill:url(#radial-gradient-10);}.cls-45{fill:url(#linear-gradient-35);}.cls-46{fill:url(#linear-gradient-36);}.cls-47{fill:url(#linear-gradient-37);}.cls-48{fill:url(#linear-gradient-38);}.cls-49{fill:url(#linear-gradient-39);}.cls-50{fill:url(#linear-gradient-40);}.cls-51{fill:url(#linear-gradient-41);}.cls-52{fill:url(#linear-gradient-42);}.cls-53{fill:url(#linear-gradient-43);}.cls-54{fill:url(#linear-gradient-44);}.cls-55{fill:url(#linear-gradient-45);}.cls-56{fill:url(#linear-gradient-46);}.cls-57{fill:url(#linear-gradient-47);}.cls-58{fill:url(#linear-gradient-48);}.cls-59{fill:url(#linear-gradient-49);}.cls-60{fill:url(#linear-gradient-50);}.cls-61{fill:url(#linear-gradient-51);}.cls-62{fill:url(#linear-gradient-52);}.cls-63{fill:url(#linear-gradient-53);}.cls-64{fill:url(#linear-gradient-54);}.cls-65{fill:url(#linear-gradient-55);}.cls-66{fill:url(#linear-gradient-56);}.cls-67{fill:url(#linear-gradient-57);}.cls-68{fill:url(#linear-gradient-58);}.cls-69{fill:url(#linear-gradient-59);}.cls-70{fill:url(#linear-gradient-60);}.cls-71{fill:url(#linear-gradient-61);}.cls-72{fill:url(#linear-gradient-62);}.cls-73{fill:url(#linear-gradient-63);}.cls-74{fill:url(#linear-gradient-64);}.cls-75{fill:url(#linear-gradient-65);}.cls-76{fill:url(#linear-gradient-66);}.cls-77{fill:url(#linear-gradient-67);}.cls-78{fill:url(#linear-gradient-68);}.cls-79{fill:url(#radial-gradient-11);}.cls-80{fill:url(#radial-gradient-12);}.cls-81{fill:url(#linear-gradient-69);}.cls-82{fill:url(#linear-gradient-70);}.cls-83{fill:url(#linear-gradient-71);}.cls-84{fill:url(#linear-gradient-72);}.cls-85{fill:url(#linear-gradient-73);}.cls-86{fill:url(#linear-gradient-74);}.cls-87{fill:url(#linear-gradient-75);}.cls-88{fill:url(#linear-gradient-76);}.cls-89{fill:url(#linear-gradient-77);}.cls-90{fill:url(#linear-gradient-78);}.cls-91{fill:url(#linear-gradient-79);}.cls-92{fill:url(#linear-gradient-80);}.cls-93{fill:url(#linear-gradient-81);}.cls-94{fill:url(#linear-gradient-82);}.cls-95{fill:url(#linear-gradient-83);}.cls-96{fill:url(#linear-gradient-84);}.cls-97{fill:url(#linear-gradient-85);}.cls-98{fill:url(#linear-gradient-86);}.cls-99{fill:url(#linear-gradient-87);}.cls-100{fill:url(#linear-gradient-88);}.cls-101{fill:url(#linear-gradient-89);}.cls-102{fill:url(#linear-gradient-90);}.cls-103{fill:url(#linear-gradient-91);}.cls-104{fill:url(#linear-gradient-92);}.cls-105{fill:url(#linear-gradient-93);}.cls-106{fill:url(#linear-gradient-94);}.cls-107{fill:url(#linear-gradient-95);}.cls-108{fill:url(#linear-gradient-96);}.cls-109{fill:url(#linear-gradient-97);}.cls-110{fill:url(#linear-gradient-98);}.cls-111{fill:url(#linear-gradient-99);}.cls-112{fill:url(#linear-gradient-100);}.cls-113{fill:url(#radial-gradient-13);}.cls-114{fill:url(#radial-gradient-14);}.cls-115{fill:url(#linear-gradient-101);}.cls-116{fill:url(#linear-gradient-102);}.cls-117{fill:url(#linear-gradient-103);}.cls-118{fill:url(#linear-gradient-104);}.cls-119{fill:url(#linear-gradient-105);}.cls-120{fill:url(#linear-gradient-106);}.cls-121{fill:url(#linear-gradient-107);}.cls-122{fill:url(#linear-gradient-108);}.cls-123{fill:url(#linear-gradient-109);}.cls-124{fill:url(#linear-gradient-110);}.cls-125{fill:url(#linear-gradient-111);}.cls-126{fill:url(#linear-gradient-112);}.cls-127{fill:url(#linear-gradient-113);}.cls-128{fill:url(#linear-gradient-114);}.cls-129{fill:url(#linear-gradient-115);}</style><radialGradient id="radial-gradient" cx="19.88" cy="23.14" r="21.48" gradientUnits="userSpaceOnUse"><stop offset="0" stop-color="#d2a032"/><stop offset="0.03" stop-color="#d4a53a"/><stop offset="0.25" stop-color="#e0c16d"/><stop offset="0.41" stop-color="#e7d38d"/><stop offset="0.5" stop-color="#eada99"/><stop offset="0.57" stop-color="#f1e3a5"/><stop offset="0.67" stop-color="#fff8c1"/><stop offset="0.86" stop-color="#d3b674"/><stop offset="1" stop-color="#ae8034"/></radialGradient><radialGradient id="radial-gradient-2" cx="113.82" cy="23.14" r="7.87" xlink:href="#radial-gradient"/><radialGradient id="radial-gradient-3" cx="278.34" cy="23.14" r="7.9" xlink:href="#radial-gradient"/><radialGradient id="radial-gradient-4" cx="535.19" cy="23.14" r="7.9" xlink:href="#radial-gradient"/><radialGradient id="radial-gradient-5" cx="370.66" cy="23.14" r="7.9" xlink:href="#radial-gradient"/><linearGradient id="linear-gradient" x1="307.63" y1="26.86" x2="296.1" y2="26.86" xlink:href="#radial-gradient"/><linearGradient id="linear-gradient-2" x1="316.45" y1="12.11" x2="272.2" y2="12.11" xlink:href="#radial-gradient"/><linearGradient id="linear-gradient-3" x1="326.64" y1="34.17" x2="295.52" y2="34.17" xlink:href="#radial-gradient"/><linearGradient id="linear-gradient-4" x1="329.62" y1="15.4" x2="311.04" y2="15.4" xlink:href="#radial-gradient"/><linearGradient id="linear-gradient-5" x1="293.84" y1="16.2" x2="195.83" y2="16.2" xlink:href="#radial-gradient"/><linearGradient id="linear-gradient-6" x1="353.49" y1="12.11" x2="322.28" y2="12.11" xlink:href="#radial-gradient"/><linearGradient id="linear-gradient-7" x1="163.9" y1="34.17" x2="83.93" y2="34.17" xlink:href="#radial-gradient"/><linearGradient id="linear-gradient-8" x1="201.04" y1="23.16" x2="158.08" y2="23.16" xlink:href="#radial-gradient"/><linearGradient id="linear-gradient-9" x1="575.27" y1="12.11" x2="552.52" y2="12.11" xlink:href="#radial-gradient"/><linearGradient id="linear-gradient-10" x1="556.19" y1="17.37" x2="497.89" y2="17.37" xlink:href="#radial-gradient"/><linearGradient id="linear-gradient-11" x1="565.08" y1="34.17" x2="485.1" y2="34.17" xlink:href="#radial-gradient"/><linearGradient id="linear-gradient-12" x1="586.51" y1="15.4" x2="567.93" y2="15.4" xlink:href="#radial-gradient"/><linearGradient id="linear-gradient-13" x1="490.92" y1="23.17" x2="447.92" y2="23.17" xlink:href="#radial-gradient"/><linearGradient id="linear-gradient-14" x1="353.49" y1="34.17" x2="332.47" y2="34.17" xlink:href="#radial-gradient"/><linearGradient id="linear-gradient-15" x1="352.92" y1="26.86" x2="341.39" y2="26.86" xlink:href="#radial-gradient"/><linearGradient id="linear-gradient-16" x1="257.13" y1="12.11" x2="103.23" y2="12.11" xlink:href="#radial-gradient"/><linearGradient id="linear-gradient-17" x1="545.79" y1="12.11" x2="391.83" y2="12.11" xlink:href="#radial-gradient"/><linearGradient id="linear-gradient-18" x1="299.47" y1="29.14" x2="290.47" y2="29.14" xlink:href="#radial-gradient"/><linearGradient id="linear-gradient-19" x1="470.06" y1="34.17" x2="360.23" y2="34.17" xlink:href="#radial-gradient"/><linearGradient id="linear-gradient-20" x1="376.84" y1="12.11" x2="360.22" y2="12.11" xlink:href="#radial-gradient"/><linearGradient id="linear-gradient-21" x1="453.2" y1="23.14" x2="349.55" y2="23.14" xlink:href="#radial-gradient"/><linearGradient id="linear-gradient-22" x1="550.84" y1="36.01" x2="458.94" y2="36.01" xlink:href="#radial-gradient"/><linearGradient id="linear-gradient-23" x1="578.1" y1="30.88" x2="559.59" y2="30.88" xlink:href="#radial-gradient"/><linearGradient id="linear-gradient-24" x1="604.85" y1="12.11" x2="581.1" y2="12.11" xlink:href="#radial-gradient"/><linearGradient id="linear-gradient-25" x1="337.96" y1="30.88" x2="319.45" y2="30.88" xlink:href="#radial-gradient"/><linearGradient id="linear-gradient-26" x1="612.27" y1="34.17" x2="570.9" y2="34.17" xlink:href="#radial-gradient"/><linearGradient id="linear-gradient-27" x1="81.07" y1="15.4" x2="62.5" y2="15.4" xlink:href="#radial-gradient"/><linearGradient id="linear-gradient-28" x1="151.15" y1="17.37" x2="92.83" y2="17.37" xlink:href="#radial-gradient"/><linearGradient id="linear-gradient-29" x1="67.9" y1="12.11" x2="37.26" y2="12.11" xlink:href="#radial-gradient"/><linearGradient id="linear-gradient-30" x1="96.5" y1="12.11" x2="73.72" y2="12.11" xlink:href="#radial-gradient"/><linearGradient id="linear-gradient-31" x1="190.06" y1="36.02" x2="98.18" y2="36.02" xlink:href="#radial-gradient"/><linearGradient id="linear-gradient-32" x1="78.09" y1="34.17" x2="45.51" y2="34.17" xlink:href="#radial-gradient"/><linearGradient id="linear-gradient-33" x1="288.79" y1="34.17" x2="178.94" y2="34.17" xlink:href="#radial-gradient"/><linearGradient id="linear-gradient-34" x1="89.42" y1="30.88" x2="70.9" y2="30.88" xlink:href="#radial-gradient"/><radialGradient id="radial-gradient-6" cx="1826.04" cy="23.19" r="21.48" xlink:href="#radial-gradient"/><radialGradient id="radial-gradient-7" cx="1732.11" cy="23.19" r="7.87" xlink:href="#radial-gradient"/><radialGradient id="radial-gradient-8" cx="1567.58" cy="23.19" r="7.9" xlink:href="#radial-gradient"/><radialGradient id="radial-gradient-9" cx="1310.74" cy="23.19" r="7.9" xlink:href="#radial-gradient"/><radialGradient id="radial-gradient-10" cx="1475.26" cy="23.19" r="7.9" xlink:href="#radial-gradient"/><linearGradient id="linear-gradient-35" x1="262.66" y1="26.91" x2="251.13" y2="26.91" gradientTransform="matrix(-1, 0, 0, 1, 1800.96, 0)" xlink:href="#radial-gradient"/><linearGradient id="linear-gradient-36" x1="271.48" y1="12.16" x2="227.23" y2="12.16" gradientTransform="matrix(-1, 0, 0, 1, 1800.96, 0)" xlink:href="#radial-gradient"/><linearGradient id="linear-gradient-37" x1="281.67" y1="34.23" x2="250.55" y2="34.23" gradientTransform="matrix(-1, 0, 0, 1, 1800.96, 0)" xlink:href="#radial-gradient"/><linearGradient id="linear-gradient-38" x1="284.65" y1="15.46" x2="266.07" y2="15.46" gradientTransform="matrix(-1, 0, 0, 1, 1800.96, 0)" xlink:href="#radial-gradient"/><linearGradient id="linear-gradient-39" x1="248.87" y1="16.25" x2="150.86" y2="16.25" gradientTransform="matrix(-1, 0, 0, 1, 1800.96, 0)" xlink:href="#radial-gradient"/><linearGradient id="linear-gradient-40" x1="308.52" y1="12.16" x2="277.31" y2="12.16" gradientTransform="matrix(-1, 0, 0, 1, 1800.96, 0)" xlink:href="#radial-gradient"/><linearGradient id="linear-gradient-41" x1="118.93" y1="34.23" x2="38.96" y2="34.23" gradientTransform="matrix(-1, 0, 0, 1, 1800.96, 0)" xlink:href="#radial-gradient"/><linearGradient id="linear-gradient-42" x1="156.07" y1="23.21" x2="113.11" y2="23.21" gradientTransform="matrix(-1, 0, 0, 1, 1800.96, 0)" xlink:href="#radial-gradient"/><linearGradient id="linear-gradient-43" x1="530.3" y1="12.16" x2="507.55" y2="12.16" gradientTransform="matrix(-1, 0, 0, 1, 1800.96, 0)" xlink:href="#radial-gradient"/><linearGradient id="linear-gradient-44" x1="511.22" y1="17.42" x2="452.92" y2="17.42" gradientTransform="matrix(-1, 0, 0, 1, 1800.96, 0)" xlink:href="#radial-gradient"/><linearGradient id="linear-gradient-45" x1="520.11" y1="34.23" x2="440.13" y2="34.23" gradientTransform="matrix(-1, 0, 0, 1, 1800.96, 0)" xlink:href="#radial-gradient"/><linearGradient id="linear-gradient-46" x1="541.54" y1="15.46" x2="522.96" y2="15.46" gradientTransform="matrix(-1, 0, 0, 1, 1800.96, 0)" xlink:href="#radial-gradient"/><linearGradient id="linear-gradient-47" x1="445.95" y1="23.22" x2="402.95" y2="23.22" gradientTransform="matrix(-1, 0, 0, 1, 1800.96, 0)" xlink:href="#radial-gradient"/><linearGradient id="linear-gradient-48" x1="308.52" y1="34.22" x2="287.5" y2="34.22" gradientTransform="matrix(-1, 0, 0, 1, 1800.96, 0)" xlink:href="#radial-gradient"/><linearGradient id="linear-gradient-49" x1="307.95" y1="26.91" x2="296.42" y2="26.91" gradientTransform="matrix(-1, 0, 0, 1, 1800.96, 0)" xlink:href="#radial-gradient"/><linearGradient id="linear-gradient-50" x1="212.16" y1="12.16" x2="58.26" y2="12.16" gradientTransform="matrix(-1, 0, 0, 1, 1800.96, 0)" xlink:href="#radial-gradient"/><linearGradient id="linear-gradient-51" x1="500.82" y1="12.16" x2="346.86" y2="12.16" gradientTransform="matrix(-1, 0, 0, 1, 1800.96, 0)" xlink:href="#radial-gradient"/><linearGradient id="linear-gradient-52" x1="254.5" y1="29.19" x2="245.5" y2="29.19" gradientTransform="matrix(-1, 0, 0, 1, 1800.96, 0)" xlink:href="#radial-gradient"/><linearGradient id="linear-gradient-53" x1="425.09" y1="34.22" x2="315.26" y2="34.22" gradientTransform="matrix(-1, 0, 0, 1, 1800.96, 0)" xlink:href="#radial-gradient"/><linearGradient id="linear-gradient-54" x1="331.87" y1="12.16" x2="315.25" y2="12.16" gradientTransform="matrix(-1, 0, 0, 1, 1800.96, 0)" xlink:href="#radial-gradient"/><linearGradient id="linear-gradient-55" x1="408.23" y1="23.19" x2="304.58" y2="23.19" gradientTransform="matrix(-1, 0, 0, 1, 1800.96, 0)" xlink:href="#radial-gradient"/><linearGradient id="linear-gradient-56" x1="505.87" y1="36.07" x2="413.97" y2="36.07" gradientTransform="matrix(-1, 0, 0, 1, 1800.96, 0)" xlink:href="#radial-gradient"/><linearGradient id="linear-gradient-57" x1="533.13" y1="30.93" x2="514.62" y2="30.93" gradientTransform="matrix(-1, 0, 0, 1, 1800.96, 0)" xlink:href="#radial-gradient"/><linearGradient id="linear-gradient-58" x1="559.88" y1="12.16" x2="536.13" y2="12.16" gradientTransform="matrix(-1, 0, 0, 1, 1800.96, 0)" xlink:href="#radial-gradient"/><linearGradient id="linear-gradient-59" x1="292.99" y1="30.93" x2="274.48" y2="30.93" gradientTransform="matrix(-1, 0, 0, 1, 1800.96, 0)" xlink:href="#radial-gradient"/><linearGradient id="linear-gradient-60" x1="567.3" y1="34.23" x2="525.93" y2="34.23" gradientTransform="matrix(-1, 0, 0, 1, 1800.96, 0)" xlink:href="#radial-gradient"/><linearGradient id="linear-gradient-61" x1="36.1" y1="15.46" x2="17.53" y2="15.46" gradientTransform="matrix(-1, 0, 0, 1, 1800.96, 0)" xlink:href="#radial-gradient"/><linearGradient id="linear-gradient-62" x1="106.18" y1="17.42" x2="47.86" y2="17.42" gradientTransform="matrix(-1, 0, 0, 1, 1800.96, 0)" xlink:href="#radial-gradient"/><linearGradient id="linear-gradient-63" x1="22.93" y1="12.16" x2="-7.71" y2="12.16" gradientTransform="matrix(-1, 0, 0, 1, 1800.96, 0)" xlink:href="#radial-gradient"/><linearGradient id="linear-gradient-64" x1="51.53" y1="12.16" x2="28.75" y2="12.16" gradientTransform="matrix(-1, 0, 0, 1, 1800.96, 0)" xlink:href="#radial-gradient"/><linearGradient id="linear-gradient-65" x1="145.09" y1="36.07" x2="53.21" y2="36.07" gradientTransform="matrix(-1, 0, 0, 1, 1800.96, 0)" xlink:href="#radial-gradient"/><linearGradient id="linear-gradient-66" x1="33.12" y1="34.23" x2="0.54" y2="34.23" gradientTransform="matrix(-1, 0, 0, 1, 1800.96, 0)" xlink:href="#radial-gradient"/><linearGradient id="linear-gradient-67" x1="243.82" y1="34.23" x2="133.97" y2="34.23" gradientTransform="matrix(-1, 0, 0, 1, 1800.96, 0)" xlink:href="#radial-gradient"/><linearGradient id="linear-gradient-68" x1="44.45" y1="30.93" x2="25.93" y2="30.93" gradientTransform="matrix(-1, 0, 0, 1, 1800.96, 0)" xlink:href="#radial-gradient"/><radialGradient id="radial-gradient-11" cx="702.44" cy="24.89" r="7.18" gradientUnits="userSpaceOnUse"><stop offset="0" stop-color="#d4a232"/><stop offset="0.04" stop-color="#d6a83c"/><stop offset="0.25" stop-color="#e2c46f"/><stop offset="0.41" stop-color="#e9d58f"/><stop offset="0.5" stop-color="#ecdc9b"/><stop offset="0.57" stop-color="#f2e5a7"/><stop offset="0.67" stop-color="#fffac3"/><stop offset="0.85" stop-color="#d4b976"/><stop offset="1" stop-color="#b08234"/></radialGradient><radialGradient id="radial-gradient-12" cx="851.56" cy="24.89" r="7.18" xlink:href="#radial-gradient-11"/><linearGradient id="linear-gradient-69" x1="617.3" y1="24.89" x2="640.57" y2="24.89" xlink:href="#radial-gradient-11"/><linearGradient id="linear-gradient-70" x1="936.03" y1="8.25" x2="956.66" y2="8.25" xlink:href="#radial-gradient-11"/><linearGradient id="linear-gradient-71" x1="936.62" y1="18.58" x2="948.18" y2="18.58" xlink:href="#radial-gradient-11"/><linearGradient id="linear-gradient-72" x1="914.74" y1="14.9" x2="937.5" y2="14.9" xlink:href="#radial-gradient-11"/><linearGradient id="linear-gradient-73" x1="908.49" y1="18.68" x2="922.02" y2="18.68" xlink:href="#radial-gradient-11"/><linearGradient id="linear-gradient-74" x1="889.9" y1="41.44" x2="910.56" y2="41.44" xlink:href="#radial-gradient-11"/><linearGradient id="linear-gradient-75" x1="942.03" y1="24.89" x2="954.96" y2="24.89" xlink:href="#radial-gradient-11"/><linearGradient id="linear-gradient-76" x1="894.14" y1="14.9" x2="909.57" y2="14.9" xlink:href="#radial-gradient-11"/><linearGradient id="linear-gradient-77" x1="867.13" y1="34.9" x2="903.27" y2="34.9" xlink:href="#radial-gradient-11"/><linearGradient id="linear-gradient-78" x1="846.96" y1="14.89" x2="889.1" y2="14.89" xlink:href="#radial-gradient-11"/><linearGradient id="linear-gradient-79" x1="891.34" y1="24.89" x2="904.96" y2="24.89" xlink:href="#radial-gradient-11"/><linearGradient id="linear-gradient-80" x1="913.95" y1="24.89" x2="932.57" y2="24.89" xlink:href="#radial-gradient-11"/><linearGradient id="linear-gradient-81" x1="908.18" y1="34.89" x2="931.25" y2="34.89" xlink:href="#radial-gradient-11"/><linearGradient id="linear-gradient-82" x1="936.3" y1="34.89" x2="951.99" y2="34.89" xlink:href="#radial-gradient-11"/><linearGradient id="linear-gradient-83" x1="862.56" y1="30.43" x2="873.01" y2="30.43" xlink:href="#radial-gradient-11"/><linearGradient id="linear-gradient-84" x1="762.41" y1="34.89" x2="861.03" y2="34.89" xlink:href="#radial-gradient-11"/><linearGradient id="linear-gradient-85" x1="655.92" y1="24.89" x2="680.32" y2="24.89" xlink:href="#radial-gradient-11"/><linearGradient id="linear-gradient-86" x1="688.26" y1="36.78" x2="771.51" y2="36.78" xlink:href="#radial-gradient-11"/><linearGradient id="linear-gradient-87" x1="910.22" y1="41.54" x2="938.97" y2="41.54" xlink:href="#radial-gradient-11"/><linearGradient id="linear-gradient-88" x1="938.71" y1="35.63" x2="956.32" y2="35.63" xlink:href="#radial-gradient-11"/><linearGradient id="linear-gradient-89" x1="611.01" y1="24.89" x2="660.82" y2="24.89" xlink:href="#radial-gradient-11"/><linearGradient id="linear-gradient-90" x1="692.85" y1="14.9" x2="833.15" y2="14.9" xlink:href="#radial-gradient-11"/><linearGradient id="linear-gradient-91" x1="889.63" y1="14.15" x2="907.69" y2="14.15" xlink:href="#radial-gradient-11"/><linearGradient id="linear-gradient-92" x1="666.13" y1="14.9" x2="686.73" y2="14.9" xlink:href="#radial-gradient-11"/><linearGradient id="linear-gradient-93" x1="907.9" y1="8.29" x2="935.9" y2="8.29" xlink:href="#radial-gradient-11"/><linearGradient id="linear-gradient-94" x1="898.07" y1="31.35" x2="909.2" y2="31.35" xlink:href="#radial-gradient-11"/><linearGradient id="linear-gradient-95" x1="924.23" y1="31.27" x2="937.5" y2="31.27" xlink:href="#radial-gradient-11"/><linearGradient id="linear-gradient-96" x1="683.41" y1="19.76" x2="735.8" y2="19.76" xlink:href="#radial-gradient-11"/><linearGradient id="linear-gradient-97" x1="869.96" y1="27.38" x2="880.41" y2="27.38" xlink:href="#radial-gradient-11"/><linearGradient id="linear-gradient-98" x1="675.36" y1="34.9" x2="748.64" y2="34.9" xlink:href="#radial-gradient-11"/><linearGradient id="linear-gradient-99" x1="742.11" y1="24.9" x2="780.99" y2="24.9" xlink:href="#radial-gradient-11"/><linearGradient id="linear-gradient-100" x1="776.8" y1="18.81" x2="865.61" y2="18.81" xlink:href="#radial-gradient-11"/><radialGradient id="radial-gradient-13" cx="1143.76" cy="24.89" r="7.18" xlink:href="#radial-gradient-11"/><radialGradient id="radial-gradient-14" cx="994.63" cy="24.89" r="7.18" xlink:href="#radial-gradient-11"/><linearGradient id="linear-gradient-101" x1="14745.08" y1="34.9" x2="14767.06" y2="34.9" gradientTransform="matrix(-1, 0, 0, 1, 15724.15, 0)" xlink:href="#radial-gradient-11"/><linearGradient id="linear-gradient-102" x1="14724.91" y1="14.89" x2="14781.74" y2="14.89" gradientTransform="matrix(-1, 0, 0, 1, 15724.15, 0)" xlink:href="#radial-gradient-11"/><linearGradient id="linear-gradient-103" x1="14740.51" y1="30.43" x2="14750.97" y2="30.43" gradientTransform="matrix(-1, 0, 0, 1, 15724.15, 0)" xlink:href="#radial-gradient-11"/><linearGradient id="linear-gradient-104" x1="14640.36" y1="34.89" x2="14738.98" y2="34.89" gradientTransform="matrix(-1, 0, 0, 1, 15724.15, 0)" xlink:href="#radial-gradient-11"/><linearGradient id="linear-gradient-105" x1="14533.87" y1="24.89" x2="14558.27" y2="24.89" gradientTransform="matrix(-1, 0, 0, 1, 15724.15, 0)" xlink:href="#radial-gradient-11"/><linearGradient id="linear-gradient-106" x1="14566.22" y1="36.78" x2="14649.46" y2="36.78" gradientTransform="matrix(-1, 0, 0, 1, 15724.15, 0)" xlink:href="#radial-gradient-11"/><linearGradient id="linear-gradient-107" x1="14495.25" y1="3259.94" x2="14518.52" y2="3259.94" gradientTransform="translate(15724.15 3284.83) rotate(180)" xlink:href="#radial-gradient-11"/><linearGradient id="linear-gradient-108" x1="14488.97" y1="3259.94" x2="14538.77" y2="3259.94" gradientTransform="translate(15724.15 3284.83) rotate(180)" xlink:href="#radial-gradient-11"/><linearGradient id="linear-gradient-109" x1="14570.8" y1="14.9" x2="14711.11" y2="14.9" gradientTransform="matrix(-1, 0, 0, 1, 15724.15, 0)" xlink:href="#radial-gradient-11"/><linearGradient id="linear-gradient-110" x1="14544.08" y1="14.9" x2="14564.68" y2="14.9" gradientTransform="matrix(-1, 0, 0, 1, 15724.15, 0)" xlink:href="#radial-gradient-11"/><linearGradient id="linear-gradient-111" x1="14561.37" y1="19.76" x2="14613.76" y2="19.76" gradientTransform="matrix(-1, 0, 0, 1, 15724.15, 0)" xlink:href="#radial-gradient-11"/><linearGradient id="linear-gradient-112" x1="14747.92" y1="27.38" x2="14758.36" y2="27.38" gradientTransform="matrix(-1, 0, 0, 1, 15724.15, 0)" xlink:href="#radial-gradient-11"/><linearGradient id="linear-gradient-113" x1="14553.31" y1="34.9" x2="14626.59" y2="34.9" gradientTransform="matrix(-1, 0, 0, 1, 15724.15, 0)" xlink:href="#radial-gradient-11"/><linearGradient id="linear-gradient-114" x1="14620.07" y1="24.9" x2="14658.94" y2="24.9" gradientTransform="matrix(-1, 0, 0, 1, 15724.15, 0)" xlink:href="#radial-gradient-11"/><linearGradient id="linear-gradient-115" x1="14654.75" y1="18.81" x2="14743.56" y2="18.81" gradientTransform="matrix(-1, 0, 0, 1, 15724.15, 0)" xlink:href="#radial-gradient-11"/></defs><title>Pattern_ForWebsite</title><g id="Content"><path class="cls-1" d="M19.88,2.25,38,12.7V33.58L19.88,44,1.79,33.58V12.7L19.88,2.25m0,35.71,12.84-7.41V15.73L19.88,8.31,7.05,15.73V30.55L19.88,38m0-37.78L19,.7.9,11.14l-.9.52v23l.9.52L19,45.58l.89.52.9-.52L38.87,35.14l.9-.52v-23l-.9-.52L20.78.7l-.9-.52Zm-11,16.58,11-6.37,11.05,6.37V29.52l-11,6.37-11-6.37V16.76Z"/><path class="cls-2" d="M113.82,15.51l6.61,3.81V27l-6.61,3.81L107.21,27V19.32l6.61-3.81m0,13.05,4.69-2.71V20.43l-4.69-2.71-4.69,2.71v5.42l4.69,2.71m0-13.83-.34.19-6.61,3.82-.34.19v8.41l.34.2,6.61,3.82.34.19.33-.19,6.61-3.82.34-.2V18.93l-.34-.19-6.61-3.82-.33-.19Zm-4,6.09,4-2.32,4,2.32v4.64l-4,2.32-4-2.32V20.82Z"/><path class="cls-3" d="M278.34,15.51,285,19.32V27l-6.61,3.81L271.73,27V19.32l6.61-3.81m0,13.05L283,25.85V20.43l-4.69-2.71-4.69,2.71v5.42l4.69,2.71m0-13.87-.35.21-6.61,3.81-.35.21v8.44l.35.2L278,31.38l.35.2.35-.2,6.61-3.82.36-.2V18.92l-.36-.21-6.61-3.81-.35-.21Zm-4,6.15,4-2.31,4,2.31v4.6l-4,2.31-4-2.31v-4.6Z"/><path class="cls-4" d="M535.19,15.51l6.61,3.81V27l-6.61,3.81L528.58,27V19.32l6.61-3.81m0,13.05,4.69-2.71V20.43l-4.69-2.71-4.69,2.71v5.42l4.69,2.71m0-13.87-.35.21-6.61,3.81-.36.21v8.44l.36.2,6.61,3.82.35.2.35-.2,6.61-3.82.35-.2V18.92l-.35-.21-6.61-3.81-.35-.21Zm-4,6.15,4-2.31,4,2.31v4.6l-4,2.31-4-2.31v-4.6Z"/><path class="cls-5" d="M370.66,15.51l6.61,3.81V27l-6.61,3.81L364.05,27V19.32l6.61-3.81m0,13.05,4.69-2.71V20.43l-4.69-2.71L366,20.43v5.42l4.69,2.71m0-13.87-.35.21-6.61,3.81-.35.21v8.44l.35.2,6.61,3.82.35.2.35-.2,6.61-3.82.36-.2V18.92l-.36-.21L371,14.9l-.35-.21Zm-4,6.15,4-2.31,4,2.31v4.6l-4,2.31-4-2.31v-4.6Z"/><polygon class="cls-6" points="307.63 22.91 296.1 22.91 296.1 30.81 299.47 30.8 299.47 26.27 307.63 26.27 307.63 22.91"/><polygon class="cls-7" points="293.84 13.79 293.84 13.79 314.48 13.79 316.45 10.43 293.84 10.43 293.84 10.42 290.48 10.42 290.48 10.43 286.43 10.43 272.2 13.79 290.48 13.79 290.48 13.8 293.84 13.79"/><polygon class="cls-8" points="320.42 32.49 320.41 32.49 316.53 32.49 316.53 32.49 315.57 32.49 315.39 32.49 315.39 32.49 299.47 32.49 299.47 32.49 296.1 32.49 296.1 32.49 295.52 32.49 295.53 35.85 296.1 35.85 296.1 35.86 299.47 35.86 299.47 35.85 318.48 35.85 318.48 35.86 323.61 35.85 323.61 35.85 324.7 35.85 326.64 32.49 320.42 32.49"/><polygon class="cls-9" points="318.4 10.43 316.43 13.79 316.43 13.79 312.03 21.31 311.04 23 312.02 24.69 315.56 30.81 319.44 30.8 314.93 23.01 320.33 13.79 320.33 13.79 322.3 10.43 322.3 10.43 324.5 6.66 325.72 8.74 329.62 8.74 327.4 4.96 324.5 0 321.6 4.96 318.4 10.43 318.4 10.43"/><polygon class="cls-10" points="264.44 10.43 250.21 13.79 250.27 13.79 195.83 26.66 200.91 28.92 264.88 13.79 264.89 13.79 279.12 10.43 279.1 10.43 290.48 7.73 290.48 8.74 293.84 8.74 293.84 3.48 264.49 10.43 264.44 10.43"/><polygon class="cls-11" points="330.61 10.43 330.6 10.42 326.71 10.43 326.71 10.43 325.68 10.43 325.5 10.43 325.5 10.43 324.25 10.43 322.28 13.79 328.68 13.79 328.68 13.79 332.57 13.79 332.57 13.79 353.49 13.79 353.49 10.43 330.61 10.43"/><polygon class="cls-12" points="104.41 32.49 101.54 32.49 98.18 32.49 94.66 32.49 85.87 32.49 83.93 35.85 98.18 35.85 98.18 35.86 101.54 35.86 101.54 35.85 149.67 35.85 163.9 32.49 104.41 32.49"/><polygon class="cls-13" points="198.2 29.56 198.21 29.56 193.13 27.3 193.11 27.31 166.38 15.47 158.08 15.48 187.7 28.59 192.78 30.84 192.79 30.84 192.79 30.83 201.04 30.82 198.2 29.56"/><polygon class="cls-14" points="573.3 10.43 570.84 10.43 570.85 10.42 566.95 10.42 566.95 10.43 552.52 10.43 552.52 13.79 564.98 13.79 564.97 13.8 568.87 13.79 568.87 13.79 575.27 13.79 573.3 10.43"/><polygon class="cls-15" points="506.21 8.71 509.44 7.29 547.47 7.29 547.47 10.43 547.47 10.43 547.47 13.79 547.47 13.79 547.47 24.59 547.47 26.27 547.47 30.81 550.84 30.8 550.84 26.27 556.19 26.27 556.19 22.91 550.84 22.91 550.84 13.79 550.84 13.79 550.84 10.43 550.84 10.43 550.84 3.93 508.72 3.93 497.89 8.72 506.21 8.71"/><polygon class="cls-16" points="550.84 32.49 547.47 32.49 547.47 32.49 485.1 32.49 499.32 35.85 547.47 35.85 547.47 35.86 550.84 35.86 550.84 35.85 565.08 35.85 563.13 32.49 550.84 32.49 550.84 32.49"/><polygon class="cls-17" points="571.83 8.74 573.05 6.66 575.25 10.43 575.25 10.43 577.22 13.79 577.22 13.79 582.62 23.01 578.11 30.81 582 30.8 585.53 24.69 586.51 23 585.52 21.31 581.12 13.79 581.12 13.79 579.11 10.36 579.11 10.35 575.95 4.96 573.05 0 570.14 4.96 567.93 8.74 571.83 8.74"/><polygon class="cls-18" points="482.59 15.49 455.9 27.31 455.9 27.31 450.81 29.56 450.82 29.56 447.92 30.84 456.22 30.84 456.22 30.85 461.32 28.59 490.92 15.49 482.59 15.49"/><polygon class="cls-19" points="353.49 32.49 352.92 32.49 352.92 32.48 349.55 32.49 349.55 32.49 334.42 32.49 332.47 35.85 349.55 35.85 349.55 35.86 352.92 35.85 352.92 35.85 353.49 35.85 353.49 32.49"/><polygon class="cls-20" points="341.39 26.27 349.55 26.27 349.55 30.8 352.92 30.8 352.92 22.91 341.39 22.91 341.39 26.27"/><polygon class="cls-21" points="103.23 13.79 154.26 13.79 154.29 13.8 162.59 13.79 162.57 13.79 242.9 13.79 257.13 10.43 154.97 10.43 154.94 10.41 146.65 10.42 146.67 10.43 103.23 10.43 103.23 13.79"/><polygon class="cls-22" points="486.4 13.81 494.72 13.8 494.75 13.79 545.79 13.79 545.78 10.43 502.35 10.43 502.41 10.4 494.08 10.41 494.04 10.43 391.83 10.43 406.03 13.79 486.44 13.79 486.4 13.81"/><polygon class="cls-23" points="296.1 37.54 296.1 39.43 293.84 39.43 293.84 35.85 293.85 35.85 293.84 32.49 293.84 32.49 293.84 15.47 290.48 15.48 290.48 32.49 290.47 32.49 290.48 35.85 290.48 35.85 290.48 42.8 299.47 42.8 299.47 37.54 296.1 37.54"/><polygon class="cls-24" points="455.83 32.49 452.51 32.49 452.54 32.48 444.21 32.48 444.2 32.49 360.23 32.49 360.23 35.85 440.94 35.85 440.94 35.86 444.9 35.86 444.91 35.85 470.06 35.85 455.83 32.49"/><polygon class="cls-25" points="362.64 10.43 360.22 10.43 360.23 13.79 376.84 13.79 362.64 10.43"/><polygon class="cls-26" points="358.54 32.49 358.54 32.49 358.54 13.79 358.54 13.79 358.54 10.43 358.54 10.43 358.54 7.73 369.92 10.43 384.13 13.79 384.14 13.79 448.11 28.92 453.19 26.67 405.83 15.46 405.83 15.47 384.54 10.43 384.53 10.43 355.18 3.48 355.18 10.43 355.17 10.43 355.17 13.79 355.18 13.79 355.18 32.49 355.17 32.49 355.18 35.85 355.18 35.85 355.18 39.43 352.92 39.43 352.92 37.54 349.55 37.54 349.55 42.8 358.54 42.8 358.54 35.85 358.55 35.85 358.54 32.49"/><polygon class="cls-27" points="547.47 37.54 547.47 39.43 507.17 39.43 501.76 38.15 501.76 38.16 474.94 31.82 474.94 31.81 464.03 29.23 458.94 31.48 463.2 32.49 463.18 32.49 477.38 35.85 477.42 35.85 506.77 42.8 550.84 42.8 550.84 37.54 547.47 37.54"/><polygon class="cls-28" points="574.21 37.54 573.05 39.56 570.91 35.85 570.91 35.85 568.94 32.45 568.94 32.45 563.48 23.01 567.89 15.47 563.99 15.48 560.58 21.31 559.59 23 560.57 24.69 565.08 32.49 565.08 32.49 567.07 35.93 567.07 35.93 570.14 41.24 573.05 46.28 575.96 41.24 578.1 37.54 574.21 37.54"/><polygon class="cls-29" points="581.1 10.43 583.07 13.79 604.85 13.79 604.85 10.43 581.1 10.43"/><polygon class="cls-30" points="330.53 35.85 332.48 32.49 332.47 32.49 336.98 24.69 337.96 23 336.97 21.31 333.56 15.47 329.66 15.47 334.07 23.01 328.59 32.49 328.59 32.49 326.64 35.85 326.64 35.85 324.5 39.56 323.33 37.53 319.45 37.54 321.59 41.24 324.5 46.28 327.41 41.24 330.53 35.85 330.53 35.85"/><polygon class="cls-31" points="581.02 32.48 577.13 32.49 577.13 32.49 570.9 32.49 572.85 35.85 575.19 35.85 575.19 35.86 579.07 35.86 579.08 35.85 612.27 35.85 610.76 32.49 581.02 32.49 581.02 32.48"/><polygon class="cls-32" points="63.48 21.31 62.5 23 63.48 24.69 67.01 30.81 70.9 30.81 66.39 23.01 71.78 13.79 73.75 10.43 75.96 6.66 77.18 8.74 81.07 8.74 78.86 4.96 75.96 0 73.05 4.96 69.85 10.43 67.88 13.79 63.48 21.31"/><polygon class="cls-33" points="98.18 13.79 98.18 13.79 98.18 22.91 92.83 22.91 92.83 26.27 98.18 26.27 98.18 30.81 101.54 30.81 101.54 26.27 101.54 24.59 101.54 13.79 101.55 13.79 101.55 10.43 101.54 10.43 101.54 7.29 139.58 7.29 142.86 8.74 151.15 8.73 140.29 3.93 98.18 3.93 98.18 10.43 98.17 10.43 98.18 13.79"/><polygon class="cls-34" points="67.9 10.43 37.26 10.43 39.49 13.79 65.93 13.79 67.9 10.43"/><polygon class="cls-35" points="96.49 10.43 82.19 10.43 82.06 10.43 78.16 10.43 77.09 10.43 75.69 10.43 73.72 13.79 80.13 13.79 80.13 13.8 84.03 13.79 84.03 13.79 96.5 13.79 96.49 10.43"/><polygon class="cls-36" points="171.61 35.85 185.82 32.49 190.06 31.49 184.94 29.24 174.05 31.82 174.05 31.82 156.98 35.85 156.99 35.85 141.85 39.43 101.54 39.43 101.54 37.54 98.18 37.54 98.18 42.8 142.24 42.8 171.6 35.85 171.61 35.85"/><polygon class="cls-37" points="69.93 35.86 73.81 35.85 73.81 35.85 76.15 35.85 78.09 32.49 72.05 32.49 71.87 32.49 67.98 32.49 66.85 32.49 45.51 32.49 45.51 35.85 69.93 35.85 69.93 35.86"/><polygon class="cls-38" points="288.79 32.49 208.4 32.49 208.4 32.49 193.09 32.51 178.94 35.85 204.11 35.85 204.12 35.86 208.07 35.86 208.08 35.85 288.79 35.85 288.79 32.49"/><polygon class="cls-39" points="88.44 24.69 89.42 23 88.43 21.31 85.01 15.47 81.12 15.48 85.53 23.01 80.04 32.49 78.1 35.85 75.96 39.56 74.79 37.54 70.9 37.54 73.04 41.24 75.96 46.28 78.87 41.24 81.98 35.85 83.93 32.49 88.44 24.69"/><path class="cls-40" d="M1826,2.3l18.09,10.45V33.64L1826,44.08,1808,33.64V12.75L1826,2.3M1826,38l12.84-7.41V15.78L1826,8.37l-12.84,7.41V30.61L1826,38m0-37.79-.9.52L1807.05,11.2l-.89.51v23l.89.52,18.09,10.45.9.51.9-.51L1845,35.19l.9-.52v-23l-.9-.51L1826.94.75l-.9-.52Zm-11,16.59,11-6.38,11,6.38V29.57L1826,36l-11-6.38V16.82Z"/><path class="cls-41" d="M1732.11,15.56l6.61,3.82V27l-6.61,3.82L1725.5,27V19.38l6.61-3.82m0,13.05,4.69-2.71V20.48l-4.69-2.7-4.69,2.7V25.9l4.69,2.71m0-13.83-.34.2-6.61,3.81-.33.2V27.4l.33.19,6.61,3.82.34.19.33-.19,6.62-3.82.33-.19V19l-.33-.2L1732.44,15l-.33-.2Zm-4,6.09,4-2.32,4,2.32v4.64l-4,2.32-4-2.32V20.87Z"/><path class="cls-42" d="M1567.58,15.56l6.61,3.82V27l-6.61,3.82L1561,27V19.38l6.61-3.82m0,13.05,4.69-2.71V20.48l-4.69-2.7-4.69,2.7V25.9l4.69,2.71m0-13.86-.35.2-6.61,3.82-.35.2v8.45l.35.2,6.61,3.82.35.2.35-.2,6.62-3.82.35-.2V19l-.35-.2L1567.93,15l-.35-.2Zm-4,6.14,4-2.3,4,2.3V25.5l-4,2.3-4-2.3V20.89Z"/><path class="cls-43" d="M1310.74,15.56l6.61,3.82V27l-6.61,3.82L1304.13,27V19.38l6.61-3.82m0,13.05,4.69-2.71V20.48l-4.69-2.7-4.69,2.7V25.9l4.69,2.71m0-13.86-.35.2-6.61,3.82-.36.2v8.45l.36.2,6.61,3.82.35.2.35-.2,6.61-3.82.35-.2V19l-.35-.2L1311.09,15l-.35-.2Zm-4,6.14,4-2.3,4,2.3V25.5l-4,2.3-4-2.3V20.89Z"/><path class="cls-44" d="M1475.26,15.56l6.61,3.82V27l-6.61,3.82L1468.65,27V19.38l6.61-3.82m0,13.05L1480,25.9V20.48l-4.69-2.7-4.69,2.7V25.9l4.69,2.71m0-13.86-.35.2-6.61,3.82-.35.2v8.45l.35.2,6.61,3.82.35.2.36-.2,6.61-3.82.35-.2V19l-.35-.2L1475.62,15l-.36-.2Zm-4,6.14,4-2.3,4,2.3V25.5l-4,2.3-4-2.3V20.89Z"/><polygon class="cls-45" points="1538.3 22.96 1549.82 22.96 1549.82 30.86 1546.46 30.86 1546.46 26.33 1538.3 26.33 1538.3 22.96"/><polygon class="cls-46" points="1552.08 13.85 1552.08 13.84 1531.45 13.84 1529.48 10.48 1552.08 10.48 1552.08 10.47 1555.45 10.48 1555.45 10.48 1559.49 10.48 1573.72 13.84 1555.45 13.84 1555.45 13.85 1552.08 13.85"/><polygon class="cls-47" points="1525.51 32.54 1525.51 32.54 1529.39 32.54 1529.39 32.54 1530.36 32.54 1530.54 32.54 1530.54 32.54 1546.46 32.54 1546.46 32.54 1549.82 32.54 1549.82 32.54 1550.4 32.54 1550.4 35.91 1549.82 35.91 1549.82 35.91 1546.46 35.91 1546.46 35.91 1527.45 35.91 1527.45 35.91 1522.32 35.91 1522.32 35.91 1521.23 35.91 1519.28 32.54 1525.51 32.54"/><polygon class="cls-48" points="1527.53 10.48 1529.5 13.84 1529.49 13.84 1533.89 21.36 1534.88 23.05 1533.9 24.74 1530.37 30.86 1526.48 30.86 1530.99 23.06 1525.6 13.84 1525.6 13.84 1523.63 10.48 1523.63 10.48 1521.42 6.71 1520.2 8.8 1516.31 8.79 1518.52 5.01 1521.42 0.05 1524.33 5.01 1527.53 10.48 1527.53 10.48"/><polygon class="cls-49" points="1581.48 10.48 1595.71 13.84 1595.66 13.84 1650.09 26.72 1645.01 28.97 1581.05 13.84 1581.03 13.84 1566.8 10.48 1566.83 10.48 1555.45 7.79 1555.45 8.8 1552.08 8.79 1552.08 3.54 1581.44 10.48 1581.48 10.48"/><polygon class="cls-50" points="1515.32 10.48 1515.32 10.47 1519.22 10.48 1519.22 10.48 1520.25 10.48 1520.42 10.48 1520.42 10.48 1521.68 10.48 1523.65 13.84 1517.25 13.84 1517.25 13.85 1513.35 13.84 1513.35 13.84 1492.43 13.84 1492.44 10.48 1515.32 10.48"/><polygon class="cls-51" points="1741.51 32.54 1744.38 32.54 1747.74 32.54 1751.27 32.54 1760.05 32.54 1762 35.91 1747.74 35.91 1747.74 35.91 1744.38 35.91 1744.38 35.91 1696.26 35.91 1682.03 32.54 1741.51 32.54"/><polygon class="cls-52" points="1647.72 29.61 1647.72 29.61 1652.8 27.36 1652.81 27.36 1679.55 15.53 1687.84 15.53 1658.23 28.64 1653.14 30.9 1653.13 30.9 1653.13 30.88 1644.88 30.87 1647.72 29.61"/><polygon class="cls-53" points="1272.63 10.48 1275.08 10.48 1275.08 10.47 1278.98 10.48 1278.98 10.48 1293.4 10.48 1293.4 13.84 1280.95 13.84 1280.95 13.85 1277.05 13.85 1277.05 13.84 1270.65 13.84 1272.63 10.48"/><polygon class="cls-54" points="1339.71 8.77 1336.49 7.34 1298.45 7.34 1298.45 10.48 1298.46 10.48 1298.46 13.84 1298.45 13.84 1298.45 24.65 1298.45 26.33 1298.45 30.86 1295.09 30.86 1295.09 26.33 1289.74 26.33 1289.74 22.96 1295.09 22.96 1295.09 13.84 1295.08 13.84 1295.09 10.48 1295.09 10.48 1295.09 3.98 1337.2 3.98 1348.04 8.78 1339.71 8.77"/><polygon class="cls-55" points="1295.09 32.54 1298.45 32.54 1298.45 32.54 1360.83 32.54 1346.6 35.91 1298.45 35.91 1298.45 35.91 1295.09 35.91 1295.09 35.91 1280.85 35.91 1282.79 32.54 1295.09 32.54 1295.09 32.54"/><polygon class="cls-56" points="1274.09 8.79 1272.88 6.71 1270.67 10.48 1270.68 10.48 1268.7 13.84 1268.7 13.84 1263.31 23.06 1267.82 30.86 1263.93 30.86 1260.4 24.74 1259.42 23.05 1260.4 21.36 1264.81 13.84 1264.81 13.84 1266.82 10.41 1266.82 10.41 1269.97 5.01 1272.88 0.05 1275.78 5.01 1277.99 8.79 1274.09 8.79"/><polygon class="cls-57" points="1363.33 15.55 1390.02 27.36 1390.02 27.36 1395.11 29.61 1395.11 29.61 1398.01 30.9 1389.7 30.89 1389.7 30.9 1384.6 28.64 1355.01 15.54 1363.33 15.55"/><polygon class="cls-58" points="1492.43 32.54 1493.01 32.54 1493.01 32.54 1496.37 32.54 1496.37 32.54 1511.51 32.54 1513.45 35.91 1496.37 35.91 1496.37 35.91 1493.01 35.91 1493.01 35.91 1492.43 35.91 1492.43 32.54"/><polygon class="cls-59" points="1504.54 26.33 1496.37 26.33 1496.37 30.86 1493.01 30.86 1493.01 22.96 1504.54 22.96 1504.54 26.33"/><polygon class="cls-60" points="1742.7 13.84 1691.66 13.84 1691.63 13.86 1683.34 13.85 1683.35 13.84 1603.02 13.84 1588.79 10.48 1690.95 10.48 1690.98 10.46 1699.28 10.47 1699.26 10.48 1742.7 10.48 1742.7 13.84"/><polygon class="cls-61" points="1359.53 13.86 1351.2 13.86 1351.17 13.84 1300.14 13.84 1300.14 10.48 1343.57 10.48 1343.52 10.46 1351.84 10.46 1351.88 10.48 1454.09 10.48 1439.89 13.84 1359.48 13.84 1359.53 13.86"/><polygon class="cls-62" points="1549.82 37.6 1549.82 39.49 1552.08 39.49 1552.08 35.91 1552.08 35.91 1552.08 32.54 1552.08 32.54 1552.08 15.53 1555.45 15.53 1555.45 32.54 1555.45 32.54 1555.45 35.91 1555.45 35.91 1555.45 42.85 1546.46 42.85 1546.46 37.59 1549.82 37.6"/><polygon class="cls-63" points="1390.1 32.54 1393.42 32.54 1393.39 32.53 1401.71 32.54 1401.73 32.54 1485.7 32.54 1485.7 35.91 1404.98 35.91 1404.98 35.91 1401.02 35.91 1401.01 35.91 1375.87 35.91 1390.1 32.54"/><polygon class="cls-64" points="1483.29 10.48 1485.7 10.48 1485.7 13.84 1469.09 13.84 1483.29 10.48"/><polygon class="cls-65" points="1487.38 32.54 1487.39 32.54 1487.39 13.84 1487.38 13.84 1487.38 10.48 1487.39 10.48 1487.39 7.79 1476.01 10.48 1461.79 13.84 1461.79 13.84 1397.82 28.97 1392.73 26.72 1440.1 15.52 1440.1 15.52 1461.39 10.48 1461.4 10.48 1490.75 3.54 1490.75 10.48 1490.76 10.48 1490.75 13.84 1490.75 13.84 1490.75 32.54 1490.75 32.54 1490.75 35.91 1490.75 35.91 1490.75 39.49 1493.01 39.49 1493.01 37.59 1496.37 37.59 1496.37 42.85 1487.39 42.85 1487.39 35.91 1487.38 35.91 1487.38 32.54"/><polygon class="cls-66" points="1298.45 37.6 1298.45 39.49 1338.76 39.49 1344.17 38.21 1344.17 38.21 1370.98 31.87 1370.98 31.87 1381.9 29.28 1386.99 31.54 1382.72 32.54 1382.75 32.54 1368.54 35.91 1368.51 35.91 1339.15 42.85 1295.09 42.85 1295.09 37.59 1298.45 37.6"/><polygon class="cls-67" points="1271.71 37.6 1272.88 39.61 1275.02 35.91 1275.02 35.91 1276.99 32.51 1276.99 32.51 1282.45 23.06 1278.04 15.53 1281.94 15.53 1285.35 21.36 1286.34 23.05 1285.36 24.74 1280.85 32.54 1280.85 32.54 1278.86 35.98 1278.86 35.98 1275.79 41.3 1272.88 46.33 1269.97 41.3 1267.83 37.59 1271.71 37.6"/><polygon class="cls-68" points="1264.83 10.48 1262.86 13.84 1241.07 13.84 1241.07 10.48 1264.83 10.48"/><polygon class="cls-69" points="1515.39 35.91 1513.45 32.54 1513.45 32.54 1508.94 24.74 1507.96 23.05 1508.95 21.36 1512.37 15.53 1516.26 15.53 1511.85 23.06 1517.34 32.54 1517.34 32.54 1519.28 35.91 1519.28 35.91 1521.42 39.61 1522.59 37.59 1526.48 37.59 1524.34 41.3 1521.42 46.33 1518.51 41.3 1515.4 35.91 1515.39 35.91"/><polygon class="cls-70" points="1264.9 32.54 1268.79 32.54 1268.79 32.54 1275.02 32.54 1273.08 35.91 1270.73 35.91 1270.74 35.91 1266.85 35.91 1266.85 35.91 1233.65 35.91 1235.16 32.54 1264.91 32.54 1264.9 32.54"/><polygon class="cls-71" points="1782.44 21.36 1783.43 23.05 1782.45 24.74 1778.91 30.86 1775.03 30.86 1779.54 23.06 1774.14 13.84 1772.17 10.48 1769.97 6.71 1768.75 8.8 1764.85 8.8 1767.07 5.01 1769.97 0.05 1772.87 5.01 1776.07 10.48 1778.04 13.84 1782.44 21.36"/><polygon class="cls-72" points="1747.75 13.84 1747.74 13.84 1747.74 22.96 1753.1 22.96 1753.1 26.33 1747.74 26.33 1747.74 30.86 1744.38 30.86 1744.38 26.33 1744.38 24.65 1744.38 13.84 1744.38 13.84 1744.38 10.48 1744.38 10.48 1744.38 7.34 1706.34 7.34 1703.07 8.79 1694.77 8.79 1705.63 3.98 1747.74 3.98 1747.74 10.48 1747.75 10.48 1747.75 13.84"/><polygon class="cls-73" points="1778.02 10.48 1808.66 10.48 1806.44 13.84 1779.99 13.84 1778.02 10.48"/><polygon class="cls-74" points="1749.43 10.48 1763.74 10.48 1763.87 10.48 1767.76 10.48 1768.84 10.48 1770.23 10.48 1772.2 13.84 1765.8 13.84 1765.79 13.85 1761.9 13.85 1761.9 13.84 1749.43 13.84 1749.43 10.48"/><polygon class="cls-75" points="1674.31 35.91 1660.11 32.54 1655.87 31.54 1660.99 29.3 1671.87 31.87 1671.87 31.87 1688.94 35.91 1688.94 35.91 1704.07 39.49 1744.38 39.49 1744.38 37.59 1747.74 37.59 1747.74 42.85 1703.68 42.85 1674.33 35.91 1674.31 35.91"/><polygon class="cls-76" points="1775.99 35.91 1772.11 35.91 1772.11 35.91 1769.78 35.91 1767.83 32.54 1773.87 32.54 1774.06 32.54 1777.94 32.54 1779.08 32.54 1800.41 32.54 1800.41 35.91 1776 35.91 1775.99 35.91"/><polygon class="cls-77" points="1557.13 32.54 1637.53 32.54 1637.53 32.55 1652.84 32.56 1666.99 35.91 1641.82 35.91 1641.81 35.91 1637.85 35.91 1637.85 35.91 1557.13 35.91 1557.13 32.54"/><polygon class="cls-78" points="1757.49 24.74 1756.51 23.05 1757.5 21.36 1760.91 15.53 1764.81 15.53 1760.4 23.06 1765.88 32.54 1767.83 35.91 1769.97 39.61 1771.14 37.59 1775.02 37.59 1772.88 41.3 1769.97 46.33 1767.06 41.3 1763.94 35.91 1762 32.54 1757.49 24.74"/><path class="cls-79" d="M702.44,18l6,3.45v6.92l-6,3.46-6-3.46V21.43l6-3.45m0,11.82,4.25-2.45V22.44L702.44,20l-4.26,2.46v4.91l4.26,2.45m0-12.58-.33.19-6,3.46-.33.19v7.67l.33.19,6,3.46.33.19.32-.19,6-3.46.32-.19V21.06l-.32-.19-6-3.46-.32-.19Zm-3.6,5.6,3.6-2.08L706,22.82V27l-3.59,2.08L698.84,27V22.82Z"/><path class="cls-80" d="M851.56,18l6,3.45v6.92l-6,3.46-6-3.46V21.43l6-3.45m0,11.82,4.25-2.45V22.44L851.56,20l-4.25,2.46v4.91l4.25,2.45m0-12.58-.33.19-6,3.46-.32.19v7.67l.32.19,6,3.46.33.19.33-.19,6-3.46.33-.19V21.06l-.33-.19-6-3.46-.33-.19Zm-3.6,5.6,3.6-2.08,3.6,2.08V27l-3.6,2.08L848,27V22.82Z"/><path class="cls-81" d="M617.3,18.18V31.61l11.63,6.72,11.64-6.72V18.18l-11.64-6.72Zm21.75,12.55-10.12,5.84-10.11-5.84V19.06l10.11-5.84,10.12,5.84Z"/><path class="cls-82" d="M944,9.32a12.39,12.39,0,0,1,6.21-2.1,7.73,7.73,0,0,1,1,.06,2.94,2.94,0,0,1,1.83.85,4.69,4.69,0,0,1,1.06,3.71h2.56A7,7,0,0,0,954.8,6.3a5.5,5.5,0,0,0-3.27-1.55,11,11,0,0,0-1.29-.09,15.05,15.05,0,0,0-7.54,2.47c-1.65,1-3.3,2.09-5.05,3.38l-.51.37-.56.49-.55.47h4.15C941.48,10.91,942.75,10.08,944,9.32Z"/><path class="cls-83" d="M940.37,13.37h-3.75l3,3.05c1.3,1.17,2.49,2.34,3.64,3.55s2.23,2.46,3.34,3.82l1.12-1.57.42-.58a66.62,66.62,0,0,0-4.79-5.22h0Z"/><polygon class="cls-84" points="934 13.37 934 13.37 914.74 13.37 916.98 15.4 918.12 16.43 930.45 16.42 930.45 16.42 933.25 16.42 934.32 16.42 934.33 16.42 937.5 16.42 934.46 13.37 934 13.37"/><path class="cls-85" d="M912.16,13.37h-3.67l3.37,3.05h0c2.92,2.43,5.68,5,8.31,7.56L922,22.2c-2-1.92-4.06-3.88-6.22-5.78h0l-3.38-3.05Z"/><path class="cls-86" d="M910.56,38H906.3c-2.53,1.83-5.77,3.9-8.94,4.37a4.9,4.9,0,0,1-.77.06,4.37,4.37,0,0,1-3.09-1.14,3.85,3.85,0,0,1-1-2.33,9,9,0,0,1,0-1H889.9a9.64,9.64,0,0,0,.05,1.23A6.42,6.42,0,0,0,891.68,43a7,7,0,0,0,4.92,1.89,7.2,7.2,0,0,0,1.14-.08c3.88-.58,7.56-3,10.64-5.25l.55-.41L910.47,38Zm-14,6.29h0a.57.57,0,0,0,.13,0Z"/><path class="cls-87" d="M955,18h-2.82a38.91,38.91,0,0,1-2.69,4.54h0l-.14.19a2,2,0,0,0-.12.19h0L947.63,25h0l-.2.28-.13.17h0c-.4.55-.81,1.1-1.24,1.67l0,0a51.92,51.92,0,0,1-4,4.67h3.49q1.32-1.5,2.55-3.12l0,0,1.14-1.52,1.8-2.47A40.05,40.05,0,0,0,955,18Z"/><polygon class="cls-88" points="894.14 13.37 895.17 16.42 902.86 16.42 902.86 16.42 906.54 16.42 906.54 16.42 909.58 16.42 906.2 13.37 905.73 13.37 905.73 13.37 894.14 13.37"/><polygon class="cls-89" points="890.01 36.42 892.6 36.42 892.6 36.42 903.27 36.42 900 33.37 893.48 33.37 893.48 33.37 890.75 33.37 890.75 33.37 873.01 33.37 873.01 33.37 867.13 33.37 867.13 36.42 869.96 36.42 869.96 36.43 873.01 36.43 873.01 36.42 890.01 36.42 890.01 36.42"/><polygon class="cls-90" points="865.61 13.37 862.11 13.37 862.11 13.37 859.85 13.37 846.96 16.42 862.56 16.42 862.56 16.42 865.61 16.42 865.61 16.42 889.1 16.42 888.26 13.37 865.61 13.37 865.61 13.37"/><path class="cls-91" d="M891.34,31.84h2.82a31.36,31.36,0,0,1,3-4.78l1.64-2.1a90.16,90.16,0,0,1,6.2-7h-3.49c-1.58,1.65-2.4,2.59-4.23,4.84h0l-1.79,2.27A32.14,32.14,0,0,0,891.34,31.84Z"/><path class="cls-92" d="M917.8,31.84c1.83-1.67,3.6-3.35,5.32-5h0L925,25.06h0c2.47-2.38,5-4.8,7.6-7.11h-3.81c-2,1.81-3.85,3.62-5.63,5.33h0l-1.84,1.78h0c-2.35,2.25-4.8,4.56-7.34,6.79Z"/><polygon class="cls-93" points="912.49 36.42 912.49 36.42 931.25 36.42 927.69 33.37 916.09 33.37 916.09 33.37 912.17 33.37 912.17 33.37 908.18 33.37 911.45 36.42 912.49 36.42"/><polygon class="cls-94" points="939.91 36.42 940.97 36.42 940.97 36.42 951.99 36.42 951.13 33.66 951.02 33.37 944.12 33.37 944.12 33.37 943.15 33.37 943.14 33.37 943.14 33.37 943.15 33.37 940.49 33.37 940.49 33.37 936.3 33.37 939.86 36.42 939.91 36.42"/><polygon class="cls-95" points="869.96 39.87 865.61 39.87 865.61 36.42 865.61 36.42 865.61 33.37 865.61 33.37 865.61 17.95 862.56 17.95 862.56 33.37 862.56 33.37 862.56 36.42 862.56 36.42 862.56 42.92 873.01 42.92 873.01 37.96 869.96 37.96 869.96 39.87"/><polygon class="cls-96" points="784.46 33.37 784.45 33.37 775.29 33.37 762.41 36.42 783.81 36.42 783.82 36.42 787.96 36.42 787.96 36.42 789.9 36.42 792.29 36.42 792.29 36.42 861.03 36.42 861.02 33.37 784.46 33.37"/><polygon class="cls-97" points="679.43 26.3 680.32 24.76 679.42 23.23 676.33 17.95 672.8 17.95 676.79 24.77 668.12 39.78 659.45 24.77 664.34 16.42 664.36 16.42 666.14 13.38 666.23 13.37 666.12 13.37 668.12 9.96 669.22 11.84 672.75 11.84 670.75 8.41 668.12 3.92 665.49 8.41 662.59 13.37 662.58 13.37 662.59 13.38 660.79 16.44 660.79 16.45 656.82 23.23 655.92 24.76 656.81 26.3 665.48 41.3 668.12 45.87 670.76 41.3 673.58 36.42 673.59 36.42 675.35 33.37 675.35 33.37 679.43 26.3"/><polygon class="cls-98" points="768.56 33.37 771.51 32.67 766.87 30.64 755.32 33.37 755.3 33.37 742.4 36.42 742.43 36.42 727.85 39.87 691.31 39.87 691.31 37.95 688.26 37.95 688.26 42.92 728.2 42.92 755.67 36.42 755.74 36.42 768.61 33.37 768.56 33.37"/><path class="cls-99" d="M936.68,38h-1.77c-1,.69-2,1.33-3,1.89-2.93,1.69-5.42,2.72-8.78,2.72-3.14,0-7.18-1.51-10.81-4.05l-2.13,1.63.55.39c4.07,2.88,8.71,4.59,12.39,4.59,3.93,0,6.76-1.17,10.05-3.06,1.2-.69,2.41-1.47,3.59-2.31l.6-.42h0l.54-.48,1-.9Z"/><path class="cls-100" d="M955.35,33.13c-.15-.47-.32-.93-.51-1.39A29.13,29.13,0,0,0,953,28.15c-.39-.63-.79-1.24-1.22-1.85l-1.6,2.2a26,26,0,0,1,2.6,4.87c.89,2.29,1.85,5.77,0,7.88a3.47,3.47,0,0,1-2.8,1.16,6.61,6.61,0,0,1-.76,0c-2.25-.27-4.68-1.56-7-2.93-.51-.3-1-.63-1.55-1l-1.44,1.27-.55.48c.75.49,1.49,1,2.23,1.41,2.53,1.51,5.25,2.95,8,3.27a9.33,9.33,0,0,0,1,.06,6.1,6.1,0,0,0,4.76-2,6.83,6.83,0,0,0,1.46-3.14,9.94,9.94,0,0,0-.15-4C955.84,34.89,955.62,34,955.35,33.13ZM950,44.26h0Z"/><path class="cls-101" d="M659,16.42l1.79-3.05h-16L629.7,4.64l-.77-.44-.76.44-16.4,9.47-.76.44V35.24l.76.44,16.4,9.47.76.44.77-.44,16.39-9.47.76-.44V16.42Zm-13.7,17.94-16.4,9.47-16.39-9.47V15.43L628.93,6l16.4,9.47Z"/><polygon class="cls-102" points="731.75 13.37 692.85 13.37 692.85 16.42 738.63 16.42 738.66 16.43 746.17 16.42 746.16 16.42 820.26 16.42 833.15 13.37 739.28 13.37 739.26 13.36 731.74 13.37 731.75 13.37"/><path class="cls-103" d="M892.82,20.6c.17.3,1.92,2.86,1.85,2.95l1.67-2.1a35.82,35.82,0,0,1-2.82-5c-.7-1.58-1.68-4.09-1.36-6.1a3.31,3.31,0,0,1,1-2,3.67,3.67,0,0,1,1.93-1q.35,0,.69,0c3.45,0,6.82,2.33,9.79,4.41L907.69,10c-.18-.12-.36-.24-.53-.37-3.31-2.31-7.06-4.93-11.32-4.93-.32,0-.63,0-1,0a6.18,6.18,0,0,0-3.4,1.62,5.47,5.47,0,0,0-1.81,3.67,15.14,15.14,0,0,0,1.46,7.18A31.6,31.6,0,0,0,892.82,20.6Z"/><polygon class="cls-104" points="669.19 13.37 667.92 13.37 666.13 16.42 671.9 16.42 671.91 16.42 675.44 16.42 675.44 16.42 676.28 16.42 676.47 16.42 676.47 16.42 686.73 16.42 686.73 13.37 673.84 13.37 673.65 13.37 670.12 13.37 669.19 13.37"/><path class="cls-105" d="M923.14,7.29c4.92,0,8.6,2.62,10.79,4.34l2-1.7c-3.44-2.71-7.36-5.19-12.76-5.19S915.06,6.55,910.28,10l-.71.53L909,11h0l-.56.45-.53.43h4.22C916.46,8.69,918.69,7.29,923.14,7.29Z"/><path class="cls-106" d="M905.52,36.42h3.68l-3.27-3.05h0a47.09,47.09,0,0,1-6.23-7.1l-1.17,1.54-.45.58a49.83,49.83,0,0,0,4.21,5h0Z"/><path class="cls-107" d="M937.5,36.42l-3.56-3.05h0l-.34-.3-.36-.31h0c-2.48-2.16-4.87-4.42-7.16-6.63l-1.84,1.77c1.88,1.82,3.81,3.66,5.82,5.47l3.56,3.05Z"/><polygon class="cls-108" points="688.26 16.42 688.26 24.89 683.41 24.89 683.41 27.94 688.26 27.94 688.26 31.84 691.31 31.84 691.31 27.94 691.31 26.41 691.31 16.42 691.32 16.42 691.31 13.37 691.31 13.37 691.31 10.73 725.79 10.73 728.56 11.96 728.56 11.84 735.8 11.83 726.43 7.68 688.26 7.68 688.26 13.37 688.26 13.37 688.26 16.42 688.26 16.42"/><polygon class="cls-109" points="873.01 31.84 873.01 25.96 880.41 25.96 880.41 22.91 869.96 22.91 869.96 31.85 873.01 31.84"/><polygon class="cls-110" points="688.26 36.42 691.31 36.42 691.31 36.42 692.03 36.42 693.99 36.42 693.99 36.42 735.74 36.42 748.64 33.37 694 33.37 691.31 33.37 688.26 33.37 685.11 33.37 677.12 33.37 675.36 36.42 688.26 36.42 688.26 36.42"/><polygon class="cls-111" points="773.45 31.84 780.99 31.84 778.92 30.92 778.94 30.92 774.33 28.87 774.31 28.88 749.63 17.95 742.11 17.96 769.4 30.04 769.38 30.04 773.45 31.84"/><polygon class="cls-112" points="826.98 16.42 776.8 28.29 781.4 30.33 840.23 16.42 840.29 16.42 853.19 13.37 853.12 13.37 862.56 11.14 862.56 11.84 865.61 11.84 865.61 7.28 839.87 13.37 839.82 13.37 826.92 16.42 826.98 16.42"/><path class="cls-113" d="M1143.76,18l6,3.45v6.92l-6,3.46-6-3.46V21.43l6-3.45m0,11.82,4.25-2.45V22.44L1143.76,20l-4.26,2.46v4.91l4.26,2.45m0-12.58-.33.19-6,3.46-.33.19v7.67l.33.19,6,3.46.33.19.32-.19,6-3.46.33-.19V21.06l-.33-.19-6-3.46-.32-.19Zm-3.6,5.6,3.6-2.08,3.59,2.08V27l-3.59,2.08-3.6-2.08V22.82Z"/><path class="cls-114" d="M994.63,18l6,3.45v6.92l-6,3.46-6-3.46V21.43l6-3.45m0,11.82,4.25-2.45V22.44L994.63,20l-4.25,2.46v4.91l4.25,2.45m0-12.58-.33.19-6,3.46-.33.19v7.67l.33.19,6,3.46.33.19.33-.19,6-3.46.33-.19V21.06l-.33-.19-6-3.46-.33-.19Zm-3.6,5.6,3.6-2.08,3.6,2.08V27l-3.6,2.08L991,27V22.82Z"/><polygon class="cls-115" points="973.62 36.42 971.03 36.42 967.54 36.42 957.65 36.43 957.09 33.37 970.15 33.37 966.66 33.37 969.39 33.37 972.88 33.37 973.18 33.37 973.18 33.37 979.06 33.37 979.06 36.42 976.23 36.42 976.23 36.43 973.18 36.43 973.18 36.42 970.13 36.42 973.62 36.42"/><polygon class="cls-116" points="980.58 13.37 984.08 13.37 984.08 13.37 986.34 13.37 999.24 16.42 983.63 16.42 983.63 16.42 980.58 16.42 980.58 16.42 945.58 16.42 942.4 13.37 980.58 13.37 980.58 13.37"/><polygon class="cls-117" points="976.23 39.87 980.58 39.87 980.58 36.42 980.58 36.42 980.58 33.37 980.58 33.37 980.58 17.95 983.63 17.95 983.63 33.37 983.63 33.37 983.63 36.42 983.63 36.42 983.63 42.92 973.18 42.92 973.18 37.96 976.23 37.96 976.23 39.87"/><polygon class="cls-118" points="1061.74 33.37 1061.74 33.37 1070.9 33.37 1083.78 36.42 1062.38 36.42 1062.37 36.42 1058.23 36.42 1058.23 36.42 1056.29 36.42 1053.9 36.42 1053.9 36.42 985.16 36.42 985.17 33.37 1061.74 33.37"/><polygon class="cls-119" points="1166.76 26.3 1165.87 24.76 1166.77 23.23 1169.86 17.95 1173.39 17.95 1169.4 24.77 1178.07 39.78 1186.74 24.77 1181.86 16.42 1181.83 16.42 1180.05 13.38 1179.96 13.37 1180.07 13.37 1178.07 9.96 1176.97 11.84 1173.44 11.84 1175.44 8.41 1178.07 3.92 1180.7 8.41 1183.6 13.37 1183.62 13.37 1183.6 13.38 1185.4 16.44 1185.4 16.45 1189.38 23.23 1190.27 24.76 1189.38 26.3 1180.71 41.3 1178.07 45.87 1175.43 41.3 1172.61 36.42 1172.6 36.42 1170.84 33.37 1170.85 33.37 1166.76 26.3"/><polygon class="cls-120" points="1077.63 33.37 1074.68 32.67 1079.32 30.64 1090.87 33.37 1090.89 33.37 1103.79 36.42 1103.76 36.42 1118.35 39.87 1154.88 39.87 1154.88 37.95 1157.93 37.95 1157.93 42.92 1117.99 42.92 1090.52 36.42 1090.45 36.42 1077.58 33.37 1077.63 33.37"/><path class="cls-121" d="M1228.89,31.61V18.18l-11.63-6.72-11.64,6.72V31.61l11.64,6.72Zm-21.74-12.55,10.11-5.84,10.11,5.84V30.73l-10.11,5.84-10.11-5.84Z"/><path class="cls-122" d="M1187.16,33.37l-1.79,3.05h16l15.12,8.73.76.44.76-.44,16.4-9.47.76-.44V14.55l-.76-.44L1218,4.64l-.76-.44-.76.44-16.4,9.47-.76.44V33.37Zm13.7-17.94L1217.26,6l16.39,9.47V34.36l-16.39,9.47-16.4-9.47Z"/><polygon class="cls-123" points="1114.44 13.37 1153.35 13.37 1153.34 16.42 1107.56 16.42 1107.53 16.43 1100.02 16.42 1100.03 16.42 1025.93 16.42 1013.04 13.37 1106.91 13.37 1106.93 13.36 1114.45 13.37 1114.44 13.37"/><polygon class="cls-124" points="1177 13.37 1178.28 13.37 1180.06 16.42 1174.29 16.42 1174.29 16.42 1170.76 16.42 1170.76 16.42 1169.91 16.42 1169.72 16.42 1169.72 16.42 1159.46 16.42 1159.47 13.37 1172.36 13.37 1172.54 13.37 1176.07 13.37 1177 13.37"/><polygon class="cls-125" points="1157.93 16.42 1157.93 24.89 1162.78 24.89 1162.78 27.94 1157.93 27.94 1157.93 31.84 1154.88 31.84 1154.88 27.94 1154.88 26.41 1154.88 16.42 1154.88 16.42 1154.88 13.37 1154.88 13.37 1154.88 10.73 1120.4 10.73 1117.63 11.96 1117.63 11.84 1110.39 11.83 1119.76 7.68 1157.93 7.68 1157.93 13.37 1157.93 13.37 1157.93 16.42 1157.93 16.42"/><polygon class="cls-126" points="973.18 31.84 973.18 25.96 965.78 25.96 965.78 22.91 976.23 22.91 976.23 31.85 973.18 31.84"/><polygon class="cls-127" points="1157.93 36.42 1154.88 36.42 1154.88 36.42 1154.16 36.42 1152.2 36.42 1152.2 36.42 1110.45 36.42 1097.55 33.37 1152.2 33.37 1154.88 33.37 1157.93 33.37 1161.08 33.37 1169.07 33.37 1170.83 36.42 1157.93 36.42 1157.93 36.42"/><polygon class="cls-128" points="1072.75 31.84 1065.2 31.84 1067.27 30.92 1067.25 30.92 1071.86 28.87 1071.88 28.88 1096.56 17.95 1104.08 17.96 1076.79 30.04 1076.81 30.04 1072.75 31.84"/><polygon class="cls-129" points="1019.21 16.42 1069.39 28.29 1064.79 30.33 1005.97 16.42 1005.9 16.42 993 13.37 993.08 13.37 983.63 11.14 983.63 11.84 980.58 11.84 980.58 7.28 1006.32 13.37 1006.38 13.37 1019.27 16.42 1019.21 16.42"/></g></svg>