<svg id="Layer_1" data-name="Layer 1" xmlns="http://www.w3.org/2000/svg" xmlns:xlink="http://www.w3.org/1999/xlink" viewBox="0 0 2831.65 201.79"><defs><style>.cls-1{fill:url(#linear-gradient);}.cls-2{fill:url(#linear-gradient-2);}.cls-3{fill:url(#linear-gradient-3);}.cls-4{fill:url(#linear-gradient-4);}.cls-5{fill:url(#linear-gradient-5);}.cls-6{fill:url(#linear-gradient-6);}.cls-7{fill:url(#linear-gradient-7);}.cls-8{fill:url(#linear-gradient-8);}.cls-9{fill:url(#linear-gradient-9);}.cls-10{fill:url(#linear-gradient-10);}.cls-11{fill:url(#linear-gradient-11);}.cls-12{fill:url(#linear-gradient-12);}.cls-13{fill:url(#linear-gradient-13);}.cls-14{fill:url(#linear-gradient-14);}.cls-15{fill:url(#linear-gradient-15);}.cls-16{fill:url(#linear-gradient-16);}.cls-17{fill:url(#linear-gradient-17);}.cls-18{fill:url(#linear-gradient-18);}.cls-19{fill:url(#linear-gradient-19);}.cls-20{fill:url(#linear-gradient-20);}.cls-21{fill:url(#linear-gradient-21);}.cls-22{fill:url(#linear-gradient-22);}.cls-23{fill:url(#linear-gradient-23);}.cls-24{fill:url(#linear-gradient-24);}.cls-25{fill:url(#linear-gradient-25);}.cls-26{fill:url(#linear-gradient-26);}.cls-27{fill:url(#linear-gradient-27);}.cls-28{fill:url(#linear-gradient-28);}.cls-29{fill:url(#linear-gradient-29);}.cls-30{fill:url(#linear-gradient-30);}.cls-31{fill:url(#linear-gradient-31);}.cls-32{fill:url(#linear-gradient-32);}.cls-33{fill:url(#linear-gradient-33);}.cls-34{fill:url(#linear-gradient-34);}.cls-35{fill:url(#linear-gradient-35);}.cls-36{fill:url(#linear-gradient-36);}</style><linearGradient id="linear-gradient" x1="142.68" y1="100.89" x2="30.72" y2="100.89" gradientUnits="userSpaceOnUse"><stop offset="0" stop-color="#d4a232"/><stop offset="0.04" stop-color="#d6a83c"/><stop offset="0.25" stop-color="#e2c46f"/><stop offset="0.41" stop-color="#e9d58f"/><stop offset="0.5" stop-color="#ecdc9b"/><stop offset="0.57" stop-color="#f2e5a7"/><stop offset="0.67" stop-color="#fffac3"/><stop offset="0.85" stop-color="#d4b976"/><stop offset="1" stop-color="#b08234"/></linearGradient><linearGradient id="linear-gradient-2" x1="2831.65" y1="100.89" x2="2489.28" y2="100.89" xlink:href="#linear-gradient"/><linearGradient id="linear-gradient-3" x1="2800.93" y1="100.89" x2="2688.97" y2="100.89" xlink:href="#linear-gradient"/><linearGradient id="linear-gradient-4" x1="1341.33" y1="117.11" x2="1291.08" y2="117.11" xlink:href="#linear-gradient"/><linearGradient id="linear-gradient-5" x1="1379.79" y1="52.8" x2="1186.87" y2="52.8" xlink:href="#linear-gradient"/><linearGradient id="linear-gradient-6" x1="1424.24" y1="149" x2="1288.56" y2="149" xlink:href="#linear-gradient"/><linearGradient id="linear-gradient-7" x1="1437.21" y1="67.17" x2="1356.22" y2="67.17" xlink:href="#linear-gradient"/><linearGradient id="linear-gradient-8" x1="1281.22" y1="70.64" x2="853.88" y2="70.64" xlink:href="#linear-gradient"/><linearGradient id="linear-gradient-9" x1="1541.31" y1="52.79" x2="1405.21" y2="52.79" xlink:href="#linear-gradient"/><linearGradient id="linear-gradient-10" x1="714.64" y1="149.01" x2="365.95" y2="149.01" xlink:href="#linear-gradient"/><linearGradient id="linear-gradient-11" x1="876.6" y1="100.98" x2="689.29" y2="100.98" xlink:href="#linear-gradient"/><linearGradient id="linear-gradient-12" x1="2508.32" y1="52.79" x2="2409.12" y2="52.79" xlink:href="#linear-gradient"/><linearGradient id="linear-gradient-13" x1="2425.11" y1="75.72" x2="2170.91" y2="75.72" xlink:href="#linear-gradient"/><linearGradient id="linear-gradient-14" x1="2463.88" y1="149" x2="2115.14" y2="149" xlink:href="#linear-gradient"/><linearGradient id="linear-gradient-15" x1="2557.32" y1="67.16" x2="2476.32" y2="67.16" xlink:href="#linear-gradient"/><linearGradient id="linear-gradient-16" x1="2140.52" y1="101.01" x2="1953.03" y2="101.01" xlink:href="#linear-gradient"/><linearGradient id="linear-gradient-17" x1="1541.32" y1="148.99" x2="1449.66" y2="148.99" xlink:href="#linear-gradient"/><linearGradient id="linear-gradient-18" x1="1538.79" y1="117.11" x2="1488.54" y2="117.11" xlink:href="#linear-gradient"/><linearGradient id="linear-gradient-19" x1="1121.15" y1="52.79" x2="450.09" y2="52.79" xlink:href="#linear-gradient"/><linearGradient id="linear-gradient-20" x1="2379.77" y1="52.78" x2="1708.49" y2="52.78" xlink:href="#linear-gradient"/><linearGradient id="linear-gradient-21" x1="1305.74" y1="127.04" x2="1266.53" y2="127.04" xlink:href="#linear-gradient"/><linearGradient id="linear-gradient-22" x1="2049.57" y1="148.98" x2="1570.67" y2="148.98" xlink:href="#linear-gradient"/><linearGradient id="linear-gradient-23" x1="1643.11" y1="52.79" x2="1570.66" y2="52.79" xlink:href="#linear-gradient"/><linearGradient id="linear-gradient-24" x1="1976.04" y1="100.89" x2="1524.13" y2="100.89" xlink:href="#linear-gradient"/><linearGradient id="linear-gradient-25" x1="2401.78" y1="157.03" x2="2001.08" y2="157.03" xlink:href="#linear-gradient"/><linearGradient id="linear-gradient-26" x1="2520.66" y1="134.63" x2="2439.94" y2="134.63" xlink:href="#linear-gradient"/><linearGradient id="linear-gradient-27" x1="2637.3" y1="52.79" x2="2533.72" y2="52.79" xlink:href="#linear-gradient"/><linearGradient id="linear-gradient-28" x1="1473.6" y1="134.62" x2="1392.87" y2="134.62" xlink:href="#linear-gradient"/><linearGradient id="linear-gradient-29" x1="353.5" y1="67.17" x2="272.5" y2="67.17" xlink:href="#linear-gradient"/><linearGradient id="linear-gradient-30" x1="659.06" y1="75.73" x2="404.76" y2="75.73" xlink:href="#linear-gradient"/><linearGradient id="linear-gradient-31" x1="296.07" y1="100.89" x2="0" y2="100.89" xlink:href="#linear-gradient"/><linearGradient id="linear-gradient-32" x1="420.74" y1="52.81" x2="321.46" y2="52.81" xlink:href="#linear-gradient"/><linearGradient id="linear-gradient-33" x1="828.7" y1="157.05" x2="428.09" y2="157.05" xlink:href="#linear-gradient"/><linearGradient id="linear-gradient-34" x1="340.5" y1="149.01" x2="198.44" y2="149.01" xlink:href="#linear-gradient"/><linearGradient id="linear-gradient-35" x1="1259.21" y1="149.01" x2="780.21" y2="149.01" xlink:href="#linear-gradient"/><linearGradient id="linear-gradient-36" x1="389.88" y1="134.63" x2="309.16" y2="134.63" xlink:href="#linear-gradient"/></defs><title>patternsegment_diamond</title><path class="cls-1" d="M30.72,68.57v64.64l56,32.32,56-32.32V68.57l-56-32.32ZM134.86,128.7,86.7,156.5,38.55,128.7V73.09L86.7,45.29l48.16,27.8Z"/><path class="cls-2" d="M2827.74,48.58,2748.86,3,2745,.78,2741,3l-78.88,45.54-3.91,2.26v90.82H2533.38l0,0-17,0h-27.17l8.48,14.67H2508l0,0,17,0h142.66L2741,198.75,2745,201l3.91-2.26,78.88-45.54,3.91-2.26V50.84Zm-3.92,97.85L2745,192l-78.88-45.54V55.35L2745,9.81l78.87,45.54Z"/><path class="cls-3" d="M2689,68.57v64.64l56,32.32,56-32.32V68.57l-56-32.32ZM2793.1,128.7,2745,156.5l-48.16-27.8V73.09L2745,45.29l48.15,27.8Z"/><polygon class="cls-4" points="1305.74 134.31 1305.74 114.56 1341.33 114.56 1341.33 99.89 1291.08 99.89 1291.08 134.33 1305.74 134.31"/><polygon class="cls-5" points="1281.22 45.44 1266.55 45.45 1266.55 45.46 1248.91 45.46 1186.87 60.12 1266.55 60.12 1266.55 60.15 1281.22 60.14 1281.22 60.12 1371.21 60.12 1379.8 45.46 1281.22 45.46 1281.22 45.44"/><polygon class="cls-6" points="1411.01 156.33 1415.76 156.33 1424.24 141.66 1397.09 141.66 1397.08 141.65 1380.15 141.66 1380.15 141.66 1375.96 141.66 1375.18 141.66 1375.18 141.66 1305.74 141.66 1305.74 141.65 1291.08 141.66 1291.08 141.66 1288.56 141.66 1288.57 156.33 1291.08 156.33 1291.08 156.36 1305.74 156.35 1305.74 156.33 1388.63 156.33 1388.64 156.34 1411.01 156.32 1411.01 156.33"/><polygon class="cls-7" points="1379.71 60.12 1360.53 92.9 1356.22 100.26 1360.49 107.65 1375.91 134.33 1392.84 134.32 1373.18 100.31 1396.71 60.12 1396.71 60.12 1405.3 45.46 1405.29 45.46 1414.91 29.03 1420.23 38.13 1437.21 38.11 1427.56 21.62 1414.91 0 1402.25 21.62 1388.3 45.46 1388.29 45.46 1379.7 60.12 1379.71 60.12"/><polygon class="cls-8" points="1091.23 60.12 853.88 116.27 876.03 126.09 1154.94 60.12 1154.99 60.12 1217.04 45.46 1216.94 45.46 1266.55 33.72 1266.55 38.12 1281.22 38.11 1281.22 15.19 1153.23 45.46 1153.03 45.46 1090.99 60.12 1091.23 60.12"/><polygon class="cls-9" points="1424.52 45.46 1420.03 45.46 1419.26 45.46 1419.26 45.46 1413.8 45.46 1405.21 60.12 1433.11 60.12 1433.12 60.15 1450.11 60.13 1450.1 60.12 1541.31 60.12 1541.3 45.46 1441.52 45.46 1441.5 45.44 1424.52 45.45 1424.52 45.46"/><polygon class="cls-10" points="428.09 156.35 442.75 156.34 442.75 156.33 652.6 156.33 714.64 141.66 455.27 141.66 442.75 141.66 428.09 141.66 412.74 141.66 374.43 141.66 365.95 156.33 428.09 156.33 428.09 156.35"/><polygon class="cls-11" points="842.09 119.05 842.02 119.07 725.44 67.47 689.28 67.5 818.4 124.66 840.59 134.48 840.61 134.49 840.61 134.41 876.6 134.38 864.2 128.89 864.24 128.88 842.09 119.05"/><polygon class="cls-12" points="2463.43 60.12 2463.41 60.16 2480.42 60.14 2480.43 60.12 2508.32 60.12 2499.72 45.46 2489.01 45.46 2489.03 45.43 2472.02 45.45 2472.02 45.46 2409.12 45.46 2409.13 60.12 2463.43 60.12"/><polygon class="cls-13" points="2221.26 31.79 2387.12 31.79 2387.12 45.46 2387.09 45.46 2387.1 60.12 2387.12 60.12 2387.12 107.23 2387.12 114.56 2387.12 134.33 2401.78 134.31 2401.78 114.56 2425.11 114.56 2425.11 99.89 2401.78 99.89 2401.78 60.12 2401.8 60.12 2401.79 45.46 2401.78 45.46 2401.78 17.12 2218.16 17.12 2170.91 38.03 2207.22 38 2221.26 31.79"/><polygon class="cls-14" points="2401.78 141.66 2401.78 141.65 2387.12 141.66 2387.12 141.66 2115.14 141.66 2177.18 156.33 2387.12 156.33 2387.12 156.36 2401.78 156.35 2401.78 156.33 2463.88 156.33 2455.39 141.66 2401.78 141.66"/><polygon class="cls-15" points="2498.63 29.03 2508.24 45.46 2508.22 45.46 2516.82 60.12 2516.83 60.12 2540.35 100.31 2520.69 134.32 2537.64 134.31 2553.05 107.65 2557.32 100.26 2553.01 92.9 2533.82 60.12 2533.82 60.12 2525.04 45.15 2525.05 45.15 2511.28 21.62 2498.63 0 2485.97 21.62 2476.32 38.11 2493.32 38.09 2498.63 29.03"/><polygon class="cls-16" points="2011.47 124.66 2140.52 67.53 2104.21 67.56 1987.86 119.07 1987.85 119.07 1965.66 128.89 1965.67 128.89 1953.03 134.49 1989.24 134.45 1989.24 134.49 2011.47 124.66"/><polygon class="cls-17" points="1524.13 156.35 1538.8 156.34 1538.8 156.33 1541.32 156.33 1541.3 141.66 1538.8 141.66 1538.8 141.64 1524.13 141.65 1524.13 141.66 1458.14 141.66 1449.66 156.33 1524.13 156.33 1524.13 156.35"/><polygon class="cls-18" points="1538.8 134.3 1538.8 99.89 1488.54 99.89 1488.54 114.56 1524.13 114.56 1524.13 134.32 1538.8 134.3"/><polygon class="cls-19" points="639.5 45.46 450.09 45.46 450.11 60.12 672.63 60.12 672.76 60.18 708.91 60.15 708.86 60.12 1059.11 60.12 1121.15 45.46 675.73 45.46 675.59 45.4 639.43 45.43 639.5 45.46"/><polygon class="cls-20" points="2121.01 60.12 2120.81 60.21 2157.12 60.18 2157.25 60.12 2379.76 60.12 2379.75 45.46 2190.37 45.46 2190.62 45.35 2154.32 45.38 2154.14 45.46 1708.49 45.46 1770.4 60.12 2121.01 60.12"/><polygon class="cls-21" points="1291.08 171.94 1281.22 171.94 1281.22 156.33 1281.24 156.33 1281.22 141.66 1281.22 141.66 1281.22 67.47 1266.55 67.48 1266.55 141.66 1266.53 141.66 1266.54 156.33 1266.55 156.33 1266.55 186.6 1305.74 186.6 1305.74 163.68 1291.08 163.69 1291.08 171.94"/><polygon class="cls-22" points="1973.05 141.66 1973.17 141.61 1936.86 141.64 1936.82 141.66 1570.67 141.66 1570.68 156.33 1922.61 156.33 1922.61 156.35 1939.88 156.35 1939.92 156.33 2049.57 156.33 1987.52 141.66 1973.05 141.66"/><polygon class="cls-23" points="1581.2 45.46 1570.66 45.46 1570.67 60.12 1643.11 60.12 1581.2 45.46"/><polygon class="cls-24" points="1563.32 141.66 1563.32 60.12 1563.34 60.12 1563.32 45.46 1563.32 45.46 1563.32 33.72 1612.93 45.46 1674.92 60.12 1674.93 60.12 1953.85 126.1 1976.04 116.28 1769.52 67.43 1769.51 67.45 1676.68 45.46 1676.64 45.46 1548.65 15.19 1548.65 45.46 1548.63 45.46 1548.64 60.12 1548.65 60.12 1548.65 141.66 1548.63 141.66 1548.65 156.33 1548.65 156.33 1548.65 171.94 1538.8 171.94 1538.8 163.67 1524.13 163.68 1524.13 186.6 1563.32 186.6 1563.32 156.33 1563.35 156.33 1563.34 141.66 1563.32 141.66"/><polygon class="cls-25" points="2387.12 171.94 2211.37 171.94 2187.79 166.36 2187.78 166.37 2070.87 138.74 2070.87 138.71 2023.27 127.45 2001.08 137.27 2019.67 141.66 2019.57 141.66 2081.5 156.33 2081.67 156.33 2209.66 186.6 2401.78 186.6 2401.78 163.68 2387.12 163.69 2387.12 171.94"/><polygon class="cls-26" points="2498.63 172.49 2489.29 156.33 2489.29 156.33 2480.71 141.5 2480.71 141.5 2456.9 100.31 2476.12 67.48 2459.12 67.49 2444.24 92.9 2439.93 100.26 2444.21 107.65 2463.87 141.66 2463.86 141.66 2472.54 156.67 2472.54 156.67 2485.93 179.83 2498.63 201.79 2511.32 179.83 2520.66 163.68 2503.71 163.7 2498.63 172.49"/><polygon class="cls-27" points="2637.3 60.12 2637.3 45.46 2533.72 45.46 2542.32 60.12 2637.3 60.12"/><polygon class="cls-28" points="1449.66 141.66 1469.33 107.65 1473.6 100.26 1469.29 92.9 1454.39 67.46 1437.41 67.47 1456.63 100.31 1432.72 141.66 1432.71 141.66 1424.23 156.33 1424.25 156.33 1414.91 172.49 1409.8 163.66 1392.87 163.67 1402.21 179.83 1414.91 201.79 1427.6 179.83 1441.19 156.33 1441.19 156.33 1449.67 141.66 1449.66 141.66"/><polygon class="cls-29" points="276.81 92.9 272.5 100.26 276.77 107.65 292.19 134.33 309.13 134.33 289.46 100.31 312.99 60.12 321.57 45.46 331.19 29.03 336.51 38.13 353.5 38.13 343.84 21.62 331.19 0 318.53 21.62 304.58 45.46 295.99 60.12 276.81 92.9"/><polygon class="cls-30" points="428.09 60.12 428.09 99.89 404.76 99.89 404.76 114.56 428.09 114.56 428.09 134.33 442.75 134.33 442.75 114.56 442.75 107.23 442.75 60.12 442.77 60.12 442.76 45.46 442.75 45.46 442.75 31.79 608.62 31.79 622.9 38.11 659.06 38.08 611.72 17.12 428.09 17.12 428.09 45.46 428.06 45.46 428.07 60.12 428.09 60.12"/><path class="cls-31" d="M287.49,60.12l8.58-14.66h-132L90.62,3,86.7.78,82.79,3,3.91,48.58,0,50.84V151l3.91,2.26,78.88,45.54L86.7,201l3.92-2.26,78.87-45.54L173.4,151V60.12ZM165.58,146.43,86.7,192,7.82,146.43V55.35L86.7,9.81l78.88,45.54Z"/><polygon class="cls-32" points="336.13 45.46 330.04 45.46 321.46 60.12 349.39 60.12 349.41 60.15 366.39 60.14 366.38 60.12 420.74 60.12 420.73 45.46 358.36 45.46 357.8 45.46 340.8 45.46 336.13 45.46"/><polygon class="cls-33" points="828.7 137.29 806.37 127.5 758.9 138.73 758.91 138.74 684.47 156.33 684.49 156.33 618.51 171.94 442.75 171.94 442.75 163.67 428.09 163.69 428.09 186.6 620.22 186.6 748.2 156.33 748.27 156.33 810.21 141.66 828.7 137.29"/><polygon class="cls-34" points="321.85 156.33 332.01 156.33 340.5 141.66 314.16 141.66 313.37 141.66 296.43 141.66 291.48 141.66 198.44 141.66 198.44 156.33 304.91 156.33 304.92 156.35 321.85 156.34 321.85 156.33"/><polygon class="cls-35" points="908.65 141.66 908.65 141.68 841.92 141.74 780.21 156.33 889.95 156.33 889.99 156.35 907.26 156.35 907.27 156.33 1259.21 156.33 1259.2 141.66 908.65 141.66"/><polygon class="cls-36" points="389.88 100.26 385.57 92.9 370.68 67.47 353.7 67.48 372.91 100.31 349 141.66 340.53 156.33 331.19 172.49 326.09 163.67 309.16 163.68 318.49 179.83 331.19 201.79 343.88 179.83 357.47 156.33 365.94 141.66 385.61 107.65 389.88 100.26"/></svg>