<svg id="Layer_1" data-name="Layer 1" xmlns="http://www.w3.org/2000/svg" xmlns:xlink="http://www.w3.org/1999/xlink" viewBox="0 0 2840.44 190.89"><defs><style>.cls-1{fill:url(#radial-gradient);}.cls-2{fill:url(#radial-gradient-2);}.cls-3{fill:url(#linear-gradient);}.cls-4{fill:url(#linear-gradient-2);}.cls-5{fill:url(#linear-gradient-3);}.cls-6{fill:url(#linear-gradient-4);}.cls-7{fill:url(#linear-gradient-5);}.cls-8{fill:url(#linear-gradient-6);}.cls-9{fill:url(#linear-gradient-7);}.cls-10{fill:url(#linear-gradient-8);}.cls-11{fill:url(#linear-gradient-9);}.cls-12{fill:url(#linear-gradient-10);}.cls-13{fill:url(#linear-gradient-11);}.cls-14{fill:url(#linear-gradient-12);}.cls-15{fill:url(#linear-gradient-13);}.cls-16{fill:url(#linear-gradient-14);}.cls-17{fill:url(#linear-gradient-15);}.cls-18{fill:url(#linear-gradient-16);}.cls-19{fill:url(#linear-gradient-17);}.cls-20{fill:url(#linear-gradient-18);}.cls-21{fill:url(#linear-gradient-19);}.cls-22{fill:url(#linear-gradient-20);}.cls-23{fill:url(#linear-gradient-21);}.cls-24{fill:url(#linear-gradient-22);}.cls-25{fill:url(#linear-gradient-23);}.cls-26{fill:url(#linear-gradient-24);}.cls-27{fill:url(#linear-gradient-25);}.cls-28{fill:url(#linear-gradient-26);}.cls-29{fill:url(#linear-gradient-27);}.cls-30{fill:url(#linear-gradient-28);}.cls-31{fill:url(#linear-gradient-29);}.cls-32{fill:url(#linear-gradient-30);}.cls-33{fill:url(#linear-gradient-31);}.cls-34{fill:url(#linear-gradient-32);}.cls-35{fill:url(#radial-gradient-3);}.cls-36{fill:url(#radial-gradient-4);}.cls-37{fill:url(#linear-gradient-33);}.cls-38{fill:url(#linear-gradient-34);}.cls-39{fill:url(#linear-gradient-35);}.cls-40{fill:url(#linear-gradient-36);}.cls-41{fill:url(#linear-gradient-37);}.cls-42{fill:url(#linear-gradient-38);}.cls-43{fill:url(#linear-gradient-39);}.cls-44{fill:url(#linear-gradient-40);}.cls-45{fill:url(#linear-gradient-41);}.cls-46{fill:url(#linear-gradient-42);}.cls-47{fill:url(#linear-gradient-43);}.cls-48{fill:url(#linear-gradient-44);}.cls-49{fill:url(#linear-gradient-45);}.cls-50{fill:url(#linear-gradient-46);}.cls-51{fill:url(#linear-gradient-47);}</style><radialGradient id="radial-gradient" cx="416.05" cy="95.45" r="32.67" gradientUnits="userSpaceOnUse"><stop offset="0" stop-color="#d4a232"/><stop offset="0.04" stop-color="#d6a83c"/><stop offset="0.25" stop-color="#e2c46f"/><stop offset="0.41" stop-color="#e9d58f"/><stop offset="0.5" stop-color="#ecdc9b"/><stop offset="0.57" stop-color="#f2e5a7"/><stop offset="0.67" stop-color="#fffac3"/><stop offset="0.85" stop-color="#d4b976"/><stop offset="1" stop-color="#b08234"/></radialGradient><radialGradient id="radial-gradient-2" cx="1094.68" cy="95.45" r="32.67" xlink:href="#radial-gradient"/><linearGradient id="linear-gradient" x1="28.6" y1="95.45" x2="134.51" y2="95.45" xlink:href="#radial-gradient"/><linearGradient id="linear-gradient-2" x1="1479.09" y1="19.7" x2="1572.96" y2="19.7" xlink:href="#radial-gradient"/><linearGradient id="linear-gradient-3" x1="1481.77" y1="66.7" x2="1534.38" y2="66.7" xlink:href="#radial-gradient"/><linearGradient id="linear-gradient-4" x1="1382.19" y1="49.96" x2="1485.76" y2="49.96" xlink:href="#radial-gradient"/><linearGradient id="linear-gradient-5" x1="1353.74" y1="67.15" x2="1415.34" y2="67.15" xlink:href="#radial-gradient"/><linearGradient id="linear-gradient-6" x1="1269.14" y1="170.75" x2="1363.16" y2="170.75" xlink:href="#radial-gradient"/><linearGradient id="linear-gradient-7" x1="1506.38" y1="95.45" x2="1565.25" y2="95.45" xlink:href="#radial-gradient"/><linearGradient id="linear-gradient-8" x1="1288.43" y1="49.95" x2="1358.69" y2="49.95" xlink:href="#radial-gradient"/><linearGradient id="linear-gradient-9" x1="1165.53" y1="140.98" x2="1330" y2="140.98" xlink:href="#radial-gradient"/><linearGradient id="linear-gradient-10" x1="1073.73" y1="49.94" x2="1265.53" y2="49.94" xlink:href="#radial-gradient"/><linearGradient id="linear-gradient-11" x1="1275.71" y1="95.45" x2="1337.7" y2="95.45" xlink:href="#radial-gradient"/><linearGradient id="linear-gradient-12" x1="1378.58" y1="95.45" x2="1463.31" y2="95.45" xlink:href="#radial-gradient"/><linearGradient id="linear-gradient-13" x1="1352.32" y1="140.95" x2="1457.34" y2="140.95" xlink:href="#radial-gradient"/><linearGradient id="linear-gradient-14" x1="1480.3" y1="140.95" x2="1551.7" y2="140.95" xlink:href="#radial-gradient"/><linearGradient id="linear-gradient-15" x1="1144.73" y1="120.66" x2="1192.3" y2="120.66" xlink:href="#radial-gradient"/><linearGradient id="linear-gradient-16" x1="688.98" y1="140.96" x2="1137.77" y2="140.96" xlink:href="#radial-gradient"/><linearGradient id="linear-gradient-17" x1="204.36" y1="95.45" x2="315.4" y2="95.45" xlink:href="#radial-gradient"/><linearGradient id="linear-gradient-18" x1="351.55" y1="149.52" x2="730.39" y2="149.52" xlink:href="#radial-gradient"/><linearGradient id="linear-gradient-19" x1="1361.63" y1="171.18" x2="1492.47" y2="171.18" xlink:href="#radial-gradient"/><linearGradient id="linear-gradient-20" x1="1491.29" y1="144.3" x2="1571.41" y2="144.3" xlink:href="#radial-gradient"/><linearGradient id="linear-gradient-21" x1="0" y1="95.45" x2="226.65" y2="95.45" xlink:href="#radial-gradient"/><linearGradient id="linear-gradient-22" x1="372.4" y1="49.94" x2="1010.92" y2="49.94" xlink:href="#radial-gradient"/><linearGradient id="linear-gradient-23" x1="1267.94" y1="46.55" x2="1350.09" y2="46.55" xlink:href="#radial-gradient"/><linearGradient id="linear-gradient-24" x1="250.83" y1="49.95" x2="344.57" y2="49.95" xlink:href="#radial-gradient"/><linearGradient id="linear-gradient-25" x1="1351.06" y1="19.88" x2="1478.49" y2="19.88" xlink:href="#radial-gradient"/><linearGradient id="linear-gradient-26" x1="1306.35" y1="124.81" x2="1356.99" y2="124.81" xlink:href="#radial-gradient"/><linearGradient id="linear-gradient-27" x1="1425.39" y1="124.48" x2="1485.79" y2="124.48" xlink:href="#radial-gradient"/><linearGradient id="linear-gradient-28" x1="329.49" y1="72.09" x2="567.89" y2="72.09" xlink:href="#radial-gradient"/><linearGradient id="linear-gradient-29" x1="1178.43" y1="106.76" x2="1225.97" y2="106.76" xlink:href="#radial-gradient"/><linearGradient id="linear-gradient-30" x1="292.83" y1="140.96" x2="626.31" y2="140.96" xlink:href="#radial-gradient"/><linearGradient id="linear-gradient-31" x1="596.61" y1="95.46" x2="773.54" y2="95.46" xlink:href="#radial-gradient"/><linearGradient id="linear-gradient-32" x1="754.45" y1="67.75" x2="1158.61" y2="67.75" xlink:href="#radial-gradient"/><radialGradient id="radial-gradient-3" cx="2424.39" cy="95.45" r="32.67" xlink:href="#radial-gradient"/><radialGradient id="radial-gradient-4" cx="1745.76" cy="95.45" r="32.67" xlink:href="#radial-gradient"/><linearGradient id="linear-gradient-33" x1="15030.2" y1="140.98" x2="15130.2" y2="140.98" gradientTransform="matrix(-1, 0, 0, 1, 16705.11, 0)" xlink:href="#radial-gradient"/><linearGradient id="linear-gradient-34" x1="14938.39" y1="49.94" x2="15197.03" y2="49.94" gradientTransform="matrix(-1, 0, 0, 1, 16705.11, 0)" xlink:href="#radial-gradient"/><linearGradient id="linear-gradient-35" x1="15009.39" y1="120.66" x2="15056.97" y2="120.66" gradientTransform="matrix(-1, 0, 0, 1, 16705.11, 0)" xlink:href="#radial-gradient"/><linearGradient id="linear-gradient-36" x1="14553.64" y1="140.96" x2="15002.43" y2="140.96" gradientTransform="matrix(-1, 0, 0, 1, 16705.11, 0)" xlink:href="#radial-gradient"/><linearGradient id="linear-gradient-37" x1="14069.02" y1="95.45" x2="14180.07" y2="95.45" gradientTransform="matrix(-1, 0, 0, 1, 16705.11, 0)" xlink:href="#radial-gradient"/><linearGradient id="linear-gradient-38" x1="14216.21" y1="149.52" x2="14595.05" y2="149.52" gradientTransform="matrix(-1, 0, 0, 1, 16705.11, 0)" xlink:href="#radial-gradient"/><linearGradient id="linear-gradient-39" x1="13893.26" y1="10280.32" x2="13999.17" y2="10280.32" gradientTransform="translate(16705.11 10375.77) rotate(180)" xlink:href="#radial-gradient"/><linearGradient id="linear-gradient-40" x1="13864.66" y1="10280.32" x2="14091.31" y2="10280.32" gradientTransform="translate(16705.11 10375.77) rotate(180)" xlink:href="#radial-gradient"/><linearGradient id="linear-gradient-41" x1="14237.07" y1="49.94" x2="14875.58" y2="49.94" gradientTransform="matrix(-1, 0, 0, 1, 16705.11, 0)" xlink:href="#radial-gradient"/><linearGradient id="linear-gradient-42" x1="14115.49" y1="49.95" x2="14209.23" y2="49.95" gradientTransform="matrix(-1, 0, 0, 1, 16705.11, 0)" xlink:href="#radial-gradient"/><linearGradient id="linear-gradient-43" x1="14194.15" y1="72.09" x2="14432.55" y2="72.09" gradientTransform="matrix(-1, 0, 0, 1, 16705.11, 0)" xlink:href="#radial-gradient"/><linearGradient id="linear-gradient-44" x1="15043.09" y1="106.76" x2="15090.63" y2="106.76" gradientTransform="matrix(-1, 0, 0, 1, 16705.11, 0)" xlink:href="#radial-gradient"/><linearGradient id="linear-gradient-45" x1="14157.5" y1="140.96" x2="14490.97" y2="140.96" gradientTransform="matrix(-1, 0, 0, 1, 16705.11, 0)" xlink:href="#radial-gradient"/><linearGradient id="linear-gradient-46" x1="14461.28" y1="95.46" x2="14638.2" y2="95.46" gradientTransform="matrix(-1, 0, 0, 1, 16705.11, 0)" xlink:href="#radial-gradient"/><linearGradient id="linear-gradient-47" x1="14619.11" y1="67.75" x2="15023.28" y2="67.75" gradientTransform="matrix(-1, 0, 0, 1, 16705.11, 0)" xlink:href="#radial-gradient"/></defs><title>patternsegment_knot</title><path class="cls-1" d="M416.05,64,443.32,79.7v31.49l-27.27,15.74-27.27-15.74V79.7L416.05,64m0,53.83,19.35-11.17V84.27L416.05,73.1,396.7,84.27v22.35l19.35,11.17m0-57.27-1.49.86L387.29,77.13l-1.48.86v34.92l1.48.86,27.27,15.74,1.49.86,1.49-.86,27.26-15.74,1.49-.86V78l-1.49-.86L417.54,61.38l-1.49-.86ZM399.67,86l16.38-9.45L432.42,86V104.9l-16.37,9.45-16.38-9.45V86Z"/><path class="cls-2" d="M1094.68,64,1122,79.7v31.49l-27.27,15.74-27.26-15.74V79.7L1094.68,64m0,53.83L1114,106.62V84.27L1094.68,73.1l-19.35,11.17v22.35l19.35,11.17m0-57.27-1.48.86-27.27,15.75-1.49.86v34.92l1.49.86,27.27,15.74,1.48.86,1.49-.86,27.27-15.74,1.49-.86V78l-1.49-.86-27.27-15.75-1.49-.86ZM1078.31,86l16.37-9.45L1111.06,86V104.9l-16.38,9.45-16.37-9.45V86Z"/><path class="cls-3" d="M28.6,64.87V126l53,30.58L134.51,126V64.87L81.56,34.3Zm99,57.14-46,26.58L35.53,122V68.88l46-26.57,46,26.57Z"/><path class="cls-4" d="M1515.42,24.59c10.78-6.44,20-9.57,28.27-9.57a33.41,33.41,0,0,1,4.37.29,13.33,13.33,0,0,1,8.35,3.85c4,3.94,5.22,10.24,4.81,16.86h11.66c.46-8.66-1.19-18.22-8.36-25.19a25,25,0,0,0-14.92-7,45.41,45.41,0,0,0-5.86-.39c-13.92,0-26.24,6.41-34.28,11.22-7.51,4.48-15,9.51-23,15.38l-2.3,1.7-2.56,2.19L1479.09,36H1498C1503.9,31.82,1509.65,28,1515.42,24.59Z"/><path class="cls-5" d="M1498.82,43h-1.33a0,0,0,0,1,0,0h-15.7l13.83,13.89c5.92,5.35,11.35,10.65,16.55,16.14s10.18,11.21,15.2,17.38l5.11-7.13,1.92-2.65a300.44,300.44,0,0,0-21.8-23.74h.05Z"/><polygon class="cls-6" points="1469.83 43 1469.83 43 1382.19 43 1392.4 52.24 1397.59 56.93 1453.69 56.88 1453.67 56.89 1466.42 56.88 1471.32 56.88 1471.32 56.88 1485.76 56.88 1471.95 43 1469.83 43"/><path class="cls-7" d="M1370.48,43h-16.74l15.35,13.88h0c13.31,11,25.87,22.86,37.85,34.42l8.37-8.09c-9.06-8.75-18.47-17.67-28.32-26.33h.12L1371.78,43Z"/><path class="cls-8" d="M1363.16,154.86h-.81l-18.57,0c-11.53,8.31-26.26,17.73-40.65,19.87a24.49,24.49,0,0,1-3.54.27c-5.62,0-10.89-1.94-14.07-5.17a17.72,17.72,0,0,1-4.57-10.62,34,34,0,0,1-.17-4.37l-11.64,0a48.67,48.67,0,0,0,.24,5.57,29.26,29.26,0,0,0,7.86,17.55c5.31,5.42,13.7,8.64,22.41,8.64a35.73,35.73,0,0,0,5.19-.38c17.67-2.64,34.38-13.56,48.41-23.91l2.51-1.84,7-5.33Zm-63.51,28.6h-.19c.19,0,.4,0,.59,0Z"/><path class="cls-9" d="M1565.25,63.86h-12.86a178.32,178.32,0,0,1-12.25,20.65v0l-.65.9c-.19.27-.38.56-.55.83l0,0-7.06,9.82v0c-.31.41-.61.84-.93,1.25l-.59.81h0c-1.84,2.48-3.71,5-5.68,7.57l-.08.11a232.39,232.39,0,0,1-18.2,21.23H1518l4.29,0q6-6.85,11.6-14.19l.11-.16c1.73-2.27,3.48-4.59,5.21-6.92l8.19-11.25A184.89,184.89,0,0,0,1565.25,63.86Z"/><path class="cls-10" d="M1288.43,43l4.71,13.88h65.55L1343.34,43h-54.91Z"/><path class="cls-11" d="M1269.66,147.9H1330L1315.12,134H1192.3l-26.77,0,0,13.85h12.88V148h13.87v-.06h77.36Z"/><polygon class="cls-12" points="1158.61 42.99 1142.7 43.01 1142.7 43 1132.42 43 1073.73 56.88 1144.74 56.88 1144.74 56.89 1158.61 56.88 1158.61 56.88 1265.53 56.88 1261.68 43 1158.61 43 1158.61 42.99"/><path class="cls-13" d="M1275.71,127h12.84A141.53,141.53,0,0,1,1302,105.32l7.47-9.55a402.8,402.8,0,0,1,28.23-31.91h-15.91c-7.17,7.49-10.9,11.76-19.25,22l0,0-8.16,10.32C1285.52,107.73,1279.59,118,1275.71,127Z"/><path class="cls-14" d="M1396.12,127c8.32-7.57,16.4-15.24,24.23-22.77l0,0,8.36-8.08h0c11.24-10.83,22.75-21.85,34.57-32.34H1446c-8.94,8.21-17.54,16.46-25.61,24.24l0,0-8.36,8.1h0c-10.68,10.26-21.84,20.77-33.43,30.88Z"/><polygon class="cls-15" points="1371.96 147.89 1371.96 147.89 1457.34 147.89 1441.13 134.01 1388.33 134.01 1388.34 134.01 1370.5 134.01 1370.5 134.01 1352.32 134.01 1367.21 147.89 1371.96 147.89"/><polygon class="cls-16" points="1496.73 147.89 1501.57 147.89 1501.57 147.89 1551.7 147.89 1547.79 135.32 1547.3 134.01 1515.9 134.01 1515.91 134 1511.47 134.01 1511.46 134.01 1511.46 134.01 1511.47 134.01 1499.37 134.01 1499.37 134.01 1480.3 134.01 1496.52 147.89 1496.73 147.89"/><polygon class="cls-17" points="1178.43 163.59 1158.61 163.59 1158.61 147.89 1158.63 147.89 1158.62 134.01 1158.61 134.01 1158.61 63.85 1144.74 63.87 1144.74 134.01 1144.73 134.01 1144.74 147.89 1144.74 147.89 1144.74 177.46 1192.3 177.46 1192.3 154.89 1178.43 154.9 1178.43 163.59"/><polygon class="cls-18" points="789.3 134.01 789.27 134 747.58 134.04 688.98 147.89 786.37 147.89 786.42 147.91 805.26 147.9 805.27 147.89 814.07 147.89 824.94 147.88 824.94 147.89 1137.77 147.89 1137.75 134.01 789.3 134.01"/><polygon class="cls-19" points="311.37 101.84 315.4 94.85 311.33 87.89 297.26 63.85 281.19 63.87 299.35 94.89 259.88 163.17 220.41 94.89 242.66 56.88 242.78 56.88 250.87 43.05 251.27 43 250.78 43 259.88 27.46 264.9 36.03 280.97 36.03 271.86 20.45 259.88 0 247.91 20.45 234.71 43 234.65 43 234.71 43.05 226.55 56.99 226.52 57 208.44 87.89 204.36 94.85 208.4 101.84 247.87 170.12 259.88 190.89 271.89 170.12 284.74 147.89 284.76 147.89 292.79 134.01 292.76 134.01 311.37 101.84"/><polygon class="cls-20" points="716.98 134.01 730.39 130.84 709.27 121.58 656.71 134.01 656.63 134.01 597.93 147.89 598.06 147.89 531.69 163.59 365.42 163.59 365.42 154.87 351.55 154.88 351.55 177.46 533.3 177.46 658.33 147.89 658.61 147.89 717.2 134.01 716.98 134.01"/><path class="cls-21" d="M1482.06,154.86l-8.08,0c-4.49,3.12-9,6-13.52,8.6-13.34,7.65-24.67,12.38-39.94,12.38-14.32,0-32.66-6.89-49.21-18.44l-9.68,7.39,2.48,1.78c18.55,13.1,39.65,20.91,56.41,20.91,17.86,0,30.75-5.34,45.73-13.94,5.45-3.13,11-6.67,16.35-10.51l2.71-1.92s0,0,0,0l2.46-2.18,4.66-4.11Z"/><path class="cls-22" d="M1567,132.92c-.68-2.14-1.45-4.24-2.33-6.31a125.84,125.84,0,0,0-8.5-16.33c-1.75-2.87-3.6-5.68-5.52-8.44l-7.28,10A118.62,118.62,0,0,1,1555.17,134c4,10.42,8.42,26.27.15,35.85-3.06,3.55-7.24,5.28-12.78,5.28a29.63,29.63,0,0,1-3.44-.21c-10.25-1.21-21.29-7.12-31.7-13.31-2.35-1.4-4.71-2.88-7.06-4.4l-6.58,5.8-2.47,2.18c3.38,2.24,6.77,4.39,10.16,6.41,11.51,6.85,23.88,13.4,36.28,14.87a41,41,0,0,0,4.76.28c8.9,0,16.38-3.21,21.63-9.3a30.49,30.49,0,0,0,6.66-14.29c1.17-6.16.58-12.06-.7-18.14A122.68,122.68,0,0,0,1567,132.92Zm-24.5,50.67h0Z"/><path class="cls-23" d="M218.53,56.88,226.65,43H153.83L85,3.28l-3.47-2-3.47,2L3.47,46.36,0,48.36v94.17l3.47,2,74.62,43.09,3.47,2,3.47-2,74.61-43.09,3.47-2V56.88Zm-62.36,81.65L81.56,181.61,6.94,138.53V52.37L81.56,9.28l74.61,43.09Z"/><polygon class="cls-24" points="549.44 43 372.4 43 372.42 56.88 580.78 56.88 580.89 56.93 615.1 56.9 615.05 56.88 952.23 56.88 1010.92 43 583.71 43 583.61 42.96 549.41 42.99 549.44 43"/><path class="cls-25" d="M1282.42,75.88c.8,1.39,8.77,13,8.44,13.46l7.6-9.59a164.83,164.83,0,0,1-12.84-22.87c-3.19-7.18-7.65-18.63-6.19-27.76a15.1,15.1,0,0,1,4.73-9.13c2.82-2.54,6.11-4.21,8.79-4.46,1-.1,2.1-.14,3.16-.14,15.68,0,31,10.6,44.55,20.06l9.43-7.6c-.81-.56-1.6-1.11-2.41-1.69-15.06-10.5-32.11-22.41-51.51-22.41-1.43,0-2.87.07-4.3.21-7,.65-12.73,4.9-15.49,7.38a24.89,24.89,0,0,0-8.24,16.71c-1.09,11.16,2.38,22.47,6.67,32.66A138.64,138.64,0,0,0,1282.42,75.88Z"/><polygon class="cls-26" points="264.75 43 258.95 43 250.83 56.88 277.1 56.88 277.11 56.9 293.18 56.88 293.18 56.88 297.04 56.88 297.89 56.88 297.89 56.88 344.57 56.88 344.55 43 285.89 43 285.05 43 268.98 43 264.75 43"/><path class="cls-27" d="M1420.44,15.36c22.35,0,39.13,11.92,49.06,19.71l9-7.71C1462.85,15,1445,3.72,1420.44,3.72c-24.35,0-36.81,8.24-58.54,24-1.11.79-2.19,1.6-3.25,2.41l-2.56,1.9,0,0-2.59,2.08-2.4,1.94,19.22,0C1390,21.72,1400.16,15.36,1420.44,15.36Z"/><path class="cls-28" d="M1340.24,147.9H1357L1342.1,134h0a211.76,211.76,0,0,1-28.34-32.29l-5.35,7-2,2.64A224.43,224.43,0,0,0,1325.48,134h-.13Z"/><path class="cls-29" d="M1485.79,147.89,1469.57,134h0c-.53-.44-1-.9-1.54-1.35l-1.67-1.43h0c-11.27-9.8-22.18-20.1-32.59-30.16l-8.37,8.08c8.53,8.25,17.32,16.65,26.46,24.87l16.23,13.87Z"/><polygon class="cls-30" points="351.55 56.88 351.55 95.43 329.49 95.43 329.49 109.31 351.55 109.31 351.55 127.04 365.42 127.04 365.42 109.31 365.42 102.37 365.42 56.88 365.44 56.88 365.43 43 365.42 43 365.42 31 522.33 31 534.93 36.58 534.93 36.03 567.89 36 525.26 17.13 351.55 17.13 351.55 43 351.53 43 351.54 56.88 351.55 56.88"/><polygon class="cls-31" points="1192.3 127.07 1192.3 100.32 1225.97 100.32 1225.97 86.44 1178.43 86.44 1178.43 127.08 1192.3 127.07"/><polygon class="cls-32" points="351.55 147.9 365.42 147.89 365.42 147.89 368.69 147.89 377.63 147.88 377.63 147.89 567.62 147.89 626.31 134.01 377.63 134.01 365.42 134.01 351.55 134.01 337.19 134.01 300.86 134.01 292.83 147.89 351.55 147.89 351.55 147.9"/><polygon class="cls-33" points="739.2 127.06 773.54 127.04 764.12 122.87 764.19 122.85 743.23 113.55 743.13 113.58 630.82 63.86 596.61 63.89 720.79 118.86 720.71 118.88 739.2 127.06"/><polygon class="cls-34" points="982.83 56.88 754.45 110.9 775.4 120.2 1043.1 56.88 1043.41 56.88 1102.1 43 1101.75 43 1144.74 32.84 1144.74 36.03 1158.61 36.02 1158.61 15.3 1041.48 43 1041.23 43 982.54 56.88 982.83 56.88"/><path class="cls-35" d="M2424.39,64l27.27,15.74v31.49l-27.27,15.74-27.26-15.74V79.7L2424.39,64m0,53.83,19.35-11.17V84.27L2424.39,73.1,2405,84.27v22.35l19.35,11.17m0-57.27-1.49.86-27.26,15.75-1.49.86v34.92l1.49.86,27.26,15.74,1.49.86,1.49-.86,27.27-15.74,1.49-.86V78l-1.49-.86-27.27-15.75-1.49-.86ZM2408,86l16.37-9.45L2440.77,86V104.9l-16.38,9.45L2408,104.9V86Z"/><path class="cls-36" d="M1745.76,64,1773,79.7v31.49l-27.27,15.74-27.27-15.74V79.7L1745.76,64m0,53.83,19.35-11.17V84.27L1745.76,73.1l-19.35,11.17v22.35l19.35,11.17m0-57.27-1.49.86L1717,77.13l-1.48.86v34.92l1.48.86,27.27,15.74,1.49.86,1.49-.86,27.26-15.74,1.49-.86V78l-1.49-.86-27.26-15.75-1.49-.86ZM1729.38,86l16.38-9.45L1762.13,86V104.9l-16.37,9.45-16.38-9.45V86Z"/><path class="cls-37" d="M1650.15,147.9h-27.67l-45,.06L1574.91,134h73.23l26.77,0v13.85H1662V148h-13.87v-.06h2Z"/><polygon class="cls-38" points="1681.83 42.99 1697.74 43.01 1697.74 43 1708.02 43 1766.72 56.88 1695.7 56.88 1695.7 56.89 1681.83 56.88 1681.83 56.88 1522.53 56.88 1508.08 43 1681.83 43 1681.83 42.99"/><polygon class="cls-39" points="1662.01 163.59 1681.83 163.59 1681.83 147.89 1681.82 147.89 1681.83 134.01 1681.83 134.01 1681.83 63.85 1695.7 63.87 1695.7 134.01 1695.72 134.01 1695.7 147.89 1695.7 147.89 1695.7 177.46 1648.14 177.46 1648.14 154.89 1662.01 154.9 1662.01 163.59"/><polygon class="cls-40" points="2051.14 134.01 2051.18 134 2092.87 134.04 2151.46 147.89 2054.08 147.89 2054.02 147.91 2035.18 147.9 2035.17 147.89 2026.37 147.89 2015.5 147.88 2015.5 147.89 1702.68 147.89 1702.69 134.01 2051.14 134.01"/><polygon class="cls-41" points="2529.08 101.84 2525.04 94.85 2529.12 87.89 2543.18 63.85 2559.25 63.87 2541.09 94.89 2580.56 163.17 2620.03 94.89 2597.78 56.88 2597.67 56.88 2589.57 43.05 2589.18 43 2589.66 43 2580.56 27.46 2575.55 36.03 2559.47 36.03 2568.59 20.45 2580.56 0 2592.53 20.45 2605.73 43 2605.8 43 2605.73 43.05 2613.9 56.99 2613.92 57 2632.01 87.89 2636.08 94.85 2632.04 101.84 2592.57 170.12 2580.56 190.89 2568.55 170.12 2555.7 147.89 2555.68 147.89 2547.66 134.01 2547.68 134.01 2529.08 101.84"/><polygon class="cls-42" points="2123.46 134.01 2110.05 130.84 2131.17 121.58 2183.73 134.01 2183.82 134.01 2242.51 147.89 2242.39 147.89 2308.76 163.59 2475.02 163.59 2475.02 154.87 2488.89 154.88 2488.89 177.46 2307.14 177.46 2182.11 147.89 2181.84 147.89 2123.25 134.01 2123.46 134.01"/><path class="cls-43" d="M2811.84,126V64.87l-53-30.57-53,30.57V126l53,30.58Zm-99-57.14,46-26.57,46,26.57V122l-46,26.57-46-26.57Z"/><path class="cls-44" d="M2621.92,134l-8.13,13.87h72.82l68.81,39.73,3.47,2,3.46-2L2837,144.53l3.47-2V48.36l-3.47-2L2762.35,3.28l-3.46-2-3.47,2L2680.8,46.36l-3.47,2V134Zm62.35-81.65,74.62-43.09,74.62,43.09v86.16l-74.62,43.08-74.62-43.08Z"/><polygon class="cls-45" points="2291.01 43 2468.04 43 2468.03 56.88 2259.67 56.88 2259.55 56.93 2225.35 56.9 2225.39 56.88 1888.22 56.88 1829.53 43 2256.73 43 2256.83 42.96 2291.04 42.99 2291.01 43"/><polygon class="cls-46" points="2575.69 43 2581.49 43 2589.61 56.88 2563.34 56.88 2563.33 56.9 2547.26 56.88 2547.27 56.88 2543.4 56.88 2542.55 56.88 2542.55 56.88 2495.88 56.88 2495.89 43 2554.55 43 2555.39 43 2571.46 43 2575.69 43"/><polygon class="cls-47" points="2488.89 56.88 2488.89 95.43 2510.96 95.43 2510.96 109.31 2488.89 109.31 2488.89 127.04 2475.02 127.04 2475.02 109.31 2475.02 102.37 2475.02 56.88 2475 56.88 2475.01 43 2475.02 43 2475.02 31 2318.11 31 2305.51 36.58 2305.51 36.03 2272.55 36 2315.18 17.13 2488.89 17.13 2488.89 43 2488.92 43 2488.9 56.88 2488.89 56.88"/><polygon class="cls-48" points="1648.14 127.07 1648.14 100.32 1614.47 100.32 1614.47 86.44 1662.01 86.44 1662.01 127.08 1648.14 127.07"/><polygon class="cls-49" points="2488.89 147.9 2475.02 147.89 2475.02 147.89 2471.75 147.89 2462.81 147.88 2462.81 147.89 2272.82 147.89 2214.13 134.01 2462.81 134.01 2475.02 134.01 2488.89 134.01 2503.25 134.01 2539.59 134.01 2547.61 147.89 2488.89 147.89 2488.89 147.9"/><polygon class="cls-50" points="2101.25 127.06 2066.91 127.04 2076.33 122.87 2076.26 122.85 2097.21 113.55 2097.32 113.58 2209.63 63.86 2243.83 63.89 2119.65 118.86 2119.74 118.88 2101.25 127.06"/><polygon class="cls-51" points="1857.61 56.88 2086 110.9 2065.04 120.2 1797.34 56.88 1797.03 56.88 1738.34 43 1738.69 43 1695.7 32.84 1695.7 36.03 1681.83 36.02 1681.83 15.3 1798.96 43 1799.21 43 1857.9 56.88 1857.61 56.88"/></svg>