<?xml version="1.0" encoding="UTF-8"?>
<svg id="Content" xmlns="http://www.w3.org/2000/svg" viewBox="0 0 46.24 46.23">
  <defs>
    <style>
      .cls-1 {
        fill: none;
        stroke-width: 1.94px;
      }

      .cls-1, .cls-2 {
        stroke: #fff;
        stroke-miterlimit: 10;
      }

      .cls-3 {
        letter-spacing: 0em;
      }

      .cls-2, .cls-4 {
        fill: #fff;
      }

      .cls-4 {
        font-family: NunitoSans-SemiBold, 'Nunito Sans';
        font-size: 11px;
        font-weight: 600;
      }
    </style>
  </defs>
  <path class="cls-1" d="m45.27,7.35v31.53c0,4.26-3.34,6.38-6.68,6.38H7.65c-3.34,0-6.68-2.12-6.68-6.38V7.36C.97,3.1,4.31.97,7.66.97h30.93c3.34,0,6.68,2.12,6.68,6.38Z"/>
  <polygon class="cls-2" points="30.22 30.39 33.56 28.84 35.9 30.39 37.41 28.84 40.55 29.31 37.41 27.25 35.76 28.42 33.65 27.25 30.22 30.39"/>
  <polygon class="cls-2" points="13.09 17.76 20.36 15.89 25.01 20.35 29.57 16.31 38.72 20.35 29.1 13.02 25.11 15.84 20.6 13.02 13.09 17.76"/>
  <polygon class="cls-2" points="20.22 27.76 15.25 25.6 11.63 27.53 9.19 24.92 4.26 25.44 8.95 23.11 12.01 25.13 15.72 23.4 20.22 27.76"/>
  <text class="cls-4" transform="translate(3.96 40.81)"><tspan x="0" y="0">blues</tspan><tspan class="cls-3" x="26.54" y="0">k</tspan><tspan x="32.12" y="0">y</tspan></text>
</svg>