<svg xmlns="http://www.w3.org/2000/svg" viewBox="0 0 50.05 46.36"><defs><style>.cls-1{fill:#e3b861;}</style></defs><title>Icon_Website_EE-flat</title><g id="Content"><path class="cls-1" d="M39.54,2V26.38H10.75c3.18,5.37,5.24,8.33,7.73,9.77C21.63,38,26.55,38,36.35,38h3.19v6.39h-7c-3.45,0-6.2-.07-8.6-.29a20.37,20.37,0,0,1-8.61-2.38,20.3,20.3,0,0,1-6.37-6.27c-1.64-2.33-3.34-5.21-5.56-9h0l-.92-1.6h0a3.19,3.19,0,0,1,0-3.2h0L13.73,2H39.54M10.73,20H33.15V8.39H17.43L10.73,20M41.54,0h-29L12,1,.7,20.58a5.18,5.18,0,0,0,0,5.2l.92,1.6c2.14,3.7,3.92,6.73,5.66,9.2a22.07,22.07,0,0,0,7,6.84,22.16,22.16,0,0,0,9.43,2.64c2,.18,4.2.26,6.78.28v0H41.54V36H36.35c-9.15,0-14.19,0-16.87-1.55-1.64-.94-3.19-2.9-5.17-6H41.54V0Zm-23,10.39H31.15V18H14.2l4.38-7.59Z"/><path class="cls-1" d="M48.05,2V26.39H41.66V2h6.39m2-2H39.66V28.39H50.05V0Z"/><path class="cls-1" d="M41.66,38h6.39v6.4H41.66V38m-2-2v10.4H50.05V36H39.66Z"/></g></svg>