<?xml version="1.0" encoding="UTF-8"?><svg id="Content" xmlns="http://www.w3.org/2000/svg" viewBox="0 0 28.89 44.83"><defs><style>.cls-1{fill:#fff;}</style></defs><path class="cls-1" d="M7.88,0V3.94h0c0,3.6-2.93,6.57-6.57,6.57H0v10.51H5.25v9.37c0,7.97,6.48,14.45,14.45,14.45h9.19v-13.13h-9.19c-.72,0-1.31-.59-1.31-1.31v-9.37h10.51V10.51h-10.51V0H7.88ZM26.27,13.13v5.25H15.76v12c0,2.17,1.77,3.94,3.94,3.94h6.57v7.88h-6.57c-6.52,0-11.82-5.3-11.82-11.82v-12H2.63v-5.35c1.83-.26,3.49-1.07,4.81-2.25h0c1.87-1.67,3.06-4.13,3.06-6.85v-1.31h5.25V13.13h10.51Z"/></svg>