<?xml version="1.0" encoding="UTF-8"?><svg id="Content" xmlns="http://www.w3.org/2000/svg" viewBox="0 0 56.56 42.79"><defs><style>.cls-1{fill:none;stroke:#fff;stroke-miterlimit:10;stroke-width:1.94px;}</style></defs><path class="cls-1" d="M53.89,6.17c-1.85,.81-3.82,1.35-5.88,1.61,2.11-1.26,3.73-3.25,4.49-5.64-1.97,1.18-4.15,2.01-6.47,2.47-1.87-1.99-4.54-3.23-7.45-3.23-5.65,0-10.19,4.58-10.19,10.2,0,.81,.07,1.59,.24,2.33-8.48-.41-15.99-4.48-21.03-10.67-.88,1.53-1.4,3.27-1.4,5.16,0,3.53,1.82,6.66,4.53,8.48-1.64-.03-3.25-.51-4.61-1.26v.11c0,4.96,3.54,9.08,8.17,10.02-.83,.23-1.74,.34-2.67,.34-.65,0-1.31-.04-1.93-.17,1.32,4.04,5.07,7.01,9.53,7.11-3.47,2.72-7.88,4.35-12.65,4.35-.84,0-1.64-.04-2.44-.14,4.52,2.91,9.87,4.58,15.65,4.58,18.77,0,29.04-15.55,29.04-29.03,0-.45-.02-.89-.04-1.32,2.02-1.44,3.73-3.23,5.11-5.3Z"/></svg>