<?xml version="1.0" encoding="UTF-8"?><svg id="Content" xmlns="http://www.w3.org/2000/svg" viewBox="0 0 46.23 46.23"><defs><style>.cls-1{fill:#fff;}</style></defs><path class="cls-1" d="M17.26,23.46c-3.06,0-5.54,2.49-5.54,5.54v11.69c0,3.06,2.49,5.54,5.54,5.54s5.54-2.49,5.54-5.54v-11.69c0-3.05-2.49-5.54-5.54-5.54Zm3.8,17.23c0,2.1-1.71,3.8-3.8,3.8s-3.8-1.71-3.8-3.8v-11.69c0-2.1,1.71-3.8,3.8-3.8s3.8,1.71,3.8,3.8v11.69Z"/><path class="cls-1" d="M.03,29c0,3.06,2.49,5.55,5.55,5.55s5.55-2.49,5.55-5.55v-5.55H5.58C2.52,23.45,.03,25.94,.03,29Zm9.35,0c0,2.1-1.71,3.81-3.81,3.81s-3.81-1.71-3.81-3.81,1.71-3.81,3.81-3.81h3.81v3.81Z"/><path class="cls-1" d="M17.26,11.09h5.54V5.54c0-3.05-2.49-5.54-5.54-5.54s-5.55,2.49-5.55,5.55,2.49,5.55,5.55,5.55Zm0-9.35c2.09,0,3.8,1.7,3.8,3.8v3.82h-3.8c-2.1,0-3.81-1.71-3.81-3.81s1.71-3.81,3.81-3.81Z"/><path class="cls-1" d="M17.26,11.73H5.55c-3.06,0-5.55,2.49-5.55,5.55s2.49,5.55,5.55,5.55h11.71c3.06,0,5.55-2.49,5.55-5.55s-2.49-5.55-5.55-5.55Zm0,9.36H5.55c-2.1,0-3.81-1.71-3.81-3.81s1.71-3.81,3.81-3.81h11.71c2.1,0,3.81,1.71,3.81,3.81s-1.71,3.81-3.81,3.81Z"/><path class="cls-1" d="M46.2,17.27c0-3.06-2.49-5.55-5.55-5.55s-5.54,2.48-5.54,5.55v5.55h5.54c3.06,0,5.55-2.49,5.55-5.55Zm-9.35,0c0-2.1,1.7-3.8,3.8-3.8s3.81,1.71,3.81,3.81-1.71,3.81-3.81,3.81h-3.8v-3.82Z"/><path class="cls-1" d="M28.97,22.82c3.06,0,5.54-2.49,5.54-5.54V5.55C34.52,2.49,32.03,0,28.97,0s-5.54,2.49-5.54,5.54v11.73c0,3.06,2.49,5.54,5.54,5.54Zm-3.8-17.27c0-2.1,1.71-3.8,3.8-3.8s3.8,1.71,3.8,3.8v11.73c0,2.1-1.71,3.8-3.8,3.8s-3.8-1.71-3.8-3.8V5.55Z"/><path class="cls-1" d="M28.97,35.14h-5.54v5.55c0,3.05,2.49,5.54,5.54,5.54s5.54-2.49,5.54-5.54-2.49-5.54-5.54-5.54Zm0,9.35c-2.1,0-3.8-1.71-3.8-3.8v-3.81h3.8c2.1,0,3.8,1.71,3.8,3.8s-1.71,3.8-3.8,3.8Z"/><path class="cls-1" d="M40.69,23.45h-11.71c-3.06,0-5.55,2.49-5.55,5.55s2.49,5.55,5.55,5.55h11.71c3.06,0,5.55-2.49,5.55-5.55s-2.49-5.55-5.55-5.55Zm0,9.35h-11.71c-2.1,0-3.81-1.71-3.81-3.81s1.71-3.81,3.81-3.81h11.71c2.1,0,3.81,1.71,3.81,3.81s-1.71,3.81-3.81,3.81Z"/></svg>