<?xml version="1.0" encoding="UTF-8"?>
<svg id="Content" xmlns="http://www.w3.org/2000/svg" viewBox="0 0 46.24 40.84">
  <defs>
    <style>
      .cls-1 {
        fill: none;
      }

      .cls-1, .cls-2 {
        stroke: #fff;
        stroke-miterlimit: 10;
        stroke-width: 1.9px;
      }

      .cls-2 {
        fill: #fff;
      }
    </style>
  </defs>
  <g>
    <path class="cls-1" d="m9.81,27.05l-1.54,1.12c.79-.68,1.21-.96,1.54-1.12Z"/>
    <path class="cls-1" d="m15.19,23.13c-2.25,2.12-1.81,2.1-2.78,2.7-1.69,1.04-2,.93-2.6,1.22"/>
    <path class="cls-2" d="m21.62,31.73c-.61,1.83-2.2,4.98-4.33,6.6-.08.06-.15.12-.23.17-.63.46-1.46.74-2.36.74-.53,0-1.03-.09-1.48-.27h-.01c-.08-.03-.16-.06-.24-.09-.09-.05-.18-.09-.27-.13-.01-.01-.02-.01-.03-.02-.77-.44-2.14-1.42-3.18-2.51-1.37-1.41-2.16-2.45-2.16-2.75-.44-.63-.69-1.37-.69-2.17,0-1.27.64-2.39,1.62-3.12,0,0,0,0,.01,0l1.54-1.12s1.93-.83,2.6-1.22c.98-.58,3.29-3.05,2.78-2.7-1.21.63-2.61.98-4.11.98-4.09,0-7.47-2.63-8.12-6.07l-.44-3.78-.84-6.59c-.01-.07.03-2.44.02-2.51l-.03-.39c0-.14.01-.27.03-.41.05-.36.17-.7.34-1.01.09-.5.88-1.82,1.91-1.82.19,0,.81-.06.98,0,.06-.02-.32.06-.26.05,1.15.28,2.29.76,3.44,1.42.1.06.19.11.27.17.01,0,.02,0,.03,0,.02.02.04.03.06.04,2.32,1.45,2.94,2.19,4.2,3.43,1.23,1.22,3.06,3.24,4.32,4.83.1.13.2.25.28.37.09.11.16.2.24.31,1.31,1.54,3.92,5.41,4.71,7.73-.13.62.52,8.49-.6,11.84Z"/>
  </g>
  <g>
    <path class="cls-1" d="m36.43,27.05l1.54,1.12c-.79-.68-1.21-.96-1.54-1.12Z"/>
    <path class="cls-1" d="m31.05,23.13c2.25,2.12,1.81,2.1,2.78,2.7,1.69,1.04,2,.93,2.6,1.22"/>
    <path class="cls-2" d="m24.62,31.73c.61,1.83,2.2,4.98,4.33,6.6.08.06.15.12.23.17.63.46,1.46.74,2.36.74.53,0,1.03-.09,1.48-.27h.01c.08-.03.16-.06.24-.09.09-.05.18-.09.27-.13.01-.01.02-.01.03-.02.77-.44,2.14-1.42,3.18-2.51,1.37-1.41,2.16-2.45,2.16-2.75.44-.63.69-1.37.69-2.17,0-1.27-.64-2.39-1.62-3.12,0,0,0,0-.01,0l-1.54-1.12s-1.93-.83-2.6-1.22c-.98-.58-3.29-3.05-2.78-2.7,1.21.63,2.61.98,4.11.98,4.09,0,7.47-2.63,8.12-6.07l.44-3.78.84-6.59c.01-.07-.03-2.44-.02-2.51l.03-.39c0-.14-.01-.27-.03-.41-.05-.36-.17-.7-.34-1.01-.09-.5-.88-1.82-1.91-1.82-.19,0-.81-.06-.98,0-.06-.02.32.06.26.05-1.15.28-2.29.76-3.44,1.42-.1.06-.19.11-.27.17-.01,0-.02,0-.03,0-.02.02-.04.03-.06.04-2.32,1.45-2.94,2.19-4.2,3.43-1.23,1.22-3.06,3.24-4.32,4.83-.1.13-.2.25-.28.37-.09.11-.16.2-.24.31-1.31,1.54-3.92,5.41-4.71,7.73.13.62-.52,8.49.6,11.84Z"/>
  </g>
</svg>