<?xml version="1.0" encoding="UTF-8"?>
<svg id="Content" xmlns="http://www.w3.org/2000/svg" viewBox="0 0 46.24 40.84">
  <defs>
    <style>
      .cls-1 {
        fill: none;
        stroke: #fff;
        stroke-miterlimit: 10;
        stroke-width: 1.9px;
      }
    </style>
  </defs>
  <path class="cls-1" d="m44.54,5.16l.03-.39c0-.14-.01-.27-.03-.41-.05-.36-.17-.7-.34-1.01-.08-.5-.87-1.82-1.91-1.82-.19,0-.81-.06-.98,0,0,.01-.89.3-.89.33,0,0-1.14.48-2.29,1.14-1.85.99-2.95,1.93-4.56,3.65-1.3,1.39-3.73,4.21-5.45,6.31-2.21,2.51-3.96,7.02-4.82,7.21h-.57c-.22.03-3.05-5.56-5.43-8.29-1.27-1.59-3.4-4.02-4.63-5.24-1.26-1.24-4.29-3.48-4.29-3.48-.84-.31-2.2-1.27-2.35-1.31,0,0-1.1-.32-1.1-.33-.17-.06-.79,0-.98,0-1.03,0-1.82,1.32-1.91,1.82-.17.31-.29.65-.34,1.01-.02.14-.03.27-.03.41l.03.39c.01.07-.03,2.44-.02,2.51l.84,6.59.44,3.78c.65,3.44,4.03,6.07,8.12,6.07,1.5,0,2.9-.35,4.11-.98.42-.29-1.1,1.36-2.19,2.27-.22.18-.42.33-.59.43-.04.02-.09.05-.14.08-1.32.8-1.75.86-2.19,1.02-.02.01-.03.01-.04.02-.14.06-.23.1-.23.1l-1.54,1.12s-.01,0-.01,0c-.98.73-1.62,1.85-1.62,3.12,0,.8.25,1.54.69,2.17,0,.3.79,1.34,2.16,2.75,1.04,1.09,2.41,2.07,3.18,2.51.01.01.02.01.03.02.09.04.18.08.27.13.08.03.16.06.24.09h.01c.45.18.95.27,1.48.27.9,0,1.73-.28,2.36-.74.08-.05.15-.11.23-.17,2.13-1.62,3.72-4.77,4.33-6.6.36-1.07.57-2.38.87-2.49h1.14c.34.11.63,1.42.99,2.49.61,1.83,2.2,4.98,4.33,6.6.08.06.15.12.23.17.63.46,1.46.74,2.36.74.53,0,1.03-.09,1.48-.27h.01c.08-.03.16-.06.24-.09.09-.05.18-.09.27-.13.01-.01.02-.01.03-.02.77-.44,2.14-1.42,3.18-2.51,1.37-1.41,2.16-2.45,2.16-2.75.44-.63.69-1.37.69-2.17,0-1.27-.64-2.39-1.62-3.12,0,0,0,0-.01,0l-1.54-1.12s-.09-.04-.23-.1c-.01-.01-.02-.01-.04-.02-.44-.16-.87-.22-2.19-1.02-.05-.03-.1-.06-.14-.08-.17-.1-.37-.25-.59-.43-1.09-.91-2.61-2.56-2.19-2.27,1.21.63,2.61.98,4.11.98,4.09,0,7.47-2.63,8.12-6.07l.44-3.78.84-6.59c.01-.07-.03-2.44-.02-2.51Z"/>
</svg>