<?xml version="1.0" encoding="UTF-8"?><svg id="Content" xmlns="http://www.w3.org/2000/svg" viewBox="0 0 50.05 46.36"><defs><style>.cls-1{fill:#fff;}</style></defs><path class="cls-1" d="M39.54,2V26.38H10.75c3.17,5.37,5.23,8.33,7.72,9.77,3.15,1.82,8.07,1.82,17.87,1.82h3.2v6.39h-7.05c-3.45-.02-6.21-.08-8.6-.29-3.68-.34-6.34-1.07-8.61-2.38-2.27-1.31-4.24-3.24-6.37-6.26-1.65-2.33-3.35-5.22-5.56-9.04h0c-.3-.52-.61-1.05-.92-1.6h0c-.27-.47-.43-1.02-.43-1.6s.16-1.13,.43-1.6h0S13.73,2,13.73,2h25.81M10.73,19.98h22.42V8.39h-15.72l-6.69,11.59M41.54,0H12.58l-.58,1L.7,20.58c-.46,.79-.7,1.69-.7,2.6s.24,1.81,.7,2.6l.92,1.6c2.14,3.7,3.92,6.73,5.66,9.2,2.31,3.27,4.47,5.38,7,6.84,2.54,1.46,5.44,2.28,9.43,2.64,1.99,.18,4.2,.25,6.79,.28h0s2,.02,2,.02h9.05v-10.39h-5.2c-9.15,0-14.18,0-16.87-1.55-1.63-.94-3.19-2.9-5.17-6.04h27.24V0h0ZM18.58,10.39h12.57v7.59H14.2l4.38-7.59h0Z"/><g><path class="cls-1" d="M48.05,2.01V26.39h-6.39V2.01h6.39M50.05,0h-10.39V28.39h10.39V0h0Z"/><path class="cls-1" d="M41.66,37.96h6.39s0,6.39,0,6.39h-6.39s0-6.39,0-6.39m-2-2v2s0,6.39,0,6.39v2s2,0,2,0h6.39s2,0,2,0v-2s0-6.39,0-6.39v-2s-2,0-2,0h-6.39s-2,0-2,0h0Z"/></g></svg>