<?xml version="1.0" encoding="UTF-8"?>
<svg id="Content" xmlns="http://www.w3.org/2000/svg" viewBox="0 0 42.6 46.27">
  <defs>
    <style>
      .cls-1 {
        fill: none;
        stroke: #fff;
        stroke-miterlimit: 10;
        stroke-width: 2px;
      }
    </style>
  </defs>
  <path class="cls-1" d="m41.6,14.66c0,6.88-5.52,11.11-14.57,13.64-.74.2.57-.12,0,0-3.09.65-5.67,3.32-7.28,7.1-.65,1.63-.68,3.12-1.33,4.44,0,0,0,.02,0,.03-1.57,3.23-4.25,5.03-7.26,5.35-4.44.48-7.17-3.33-8.37-8.07,0-.02,0,.02,0,0-.98-3.59-1.79-7.69-1.79-12.41,0-7.07.83-11.81,3.91-16.27C7.86,4.11,14.21,1.03,22.58,1.03c.9,0,3.59-.07,4.45,0,.67-.03-.61,0,0,0,4.48,0,8.49,1.89,11.16,4.87,1.23,1.37,2.17,2.95,2.75,4.7h0c.43,1.29.66,2.65.66,4.06Z"/>
</svg>