<svg xmlns="http://www.w3.org/2000/svg" xmlns:xlink="http://www.w3.org/1999/xlink" viewBox="0 0 46.23 46.23"><defs><style>.cls-1{fill:url(#linear-gradient);}.cls-2{fill:url(#linear-gradient-2);}.cls-3{fill:url(#linear-gradient-3);}.cls-4{fill:url(#linear-gradient-4);}.cls-5{fill:url(#linear-gradient-5);}.cls-6{fill:url(#linear-gradient-6);}.cls-7{fill:url(#linear-gradient-7);}</style><linearGradient id="linear-gradient" x1="-1.08" y1="34.84" x2="48.66" y2="34.84" gradientUnits="userSpaceOnUse"><stop offset="0" stop-color="#d4a232"/><stop offset="0.04" stop-color="#d6a83c"/><stop offset="0.25" stop-color="#e2c46f"/><stop offset="0.41" stop-color="#e9d58f"/><stop offset="0.5" stop-color="#ecdc9b"/><stop offset="0.57" stop-color="#f2e5a7"/><stop offset="0.67" stop-color="#fffac3"/><stop offset="0.85" stop-color="#d4b976"/><stop offset="1" stop-color="#b08234"/></linearGradient><linearGradient id="linear-gradient-2" x1="-1.08" y1="29" x2="48.66" y2="29" xlink:href="#linear-gradient"/><linearGradient id="linear-gradient-3" x1="-1.08" y1="5.55" x2="48.66" y2="5.55" xlink:href="#linear-gradient"/><linearGradient id="linear-gradient-4" x1="-1.08" y1="17.27" x2="48.66" y2="17.27" xlink:href="#linear-gradient"/><linearGradient id="linear-gradient-5" x1="-1.08" y1="17.27" x2="48.66" y2="17.27" xlink:href="#linear-gradient"/><linearGradient id="linear-gradient-6" x1="-1.08" y1="11.41" x2="48.66" y2="11.41" xlink:href="#linear-gradient"/><linearGradient id="linear-gradient-7" x1="-1.08" y1="40.69" x2="48.66" y2="40.69" xlink:href="#linear-gradient"/></defs><title>Icon_Website_slack</title><g id="Content"><path class="cls-1" d="M17.26,23.46A5.54,5.54,0,0,0,11.72,29V40.69a5.54,5.54,0,0,0,11.08,0V29A5.55,5.55,0,0,0,17.26,23.46Zm3.8,17.23a3.81,3.81,0,0,1-7.61,0V29a3.81,3.81,0,1,1,7.61,0Z"/><path class="cls-2" d="M0,29a5.55,5.55,0,0,0,11.09,0V23.45H5.58A5.56,5.56,0,0,0,0,29Zm9.36,0a3.81,3.81,0,1,1-3.81-3.81H9.39Z"/><path class="cls-3" d="M17.26,11.09H22.8V5.54a5.55,5.55,0,1,0-5.54,5.55Zm0-9.35a3.8,3.8,0,0,1,3.8,3.8V9.35h-3.8a3.81,3.81,0,1,1,0-7.61Z"/><path class="cls-4" d="M17.26,11.73H5.55a5.55,5.55,0,1,0,0,11.09H17.26a5.55,5.55,0,1,0,0-11.09Zm0,9.35H5.55a3.81,3.81,0,0,1,0-7.62H17.26a3.81,3.81,0,0,1,0,7.62Z"/><path class="cls-5" d="M46.2,17.27a5.55,5.55,0,1,0-11.09,0v5.55h5.54A5.56,5.56,0,0,0,46.2,17.27Zm-9.35,0a3.81,3.81,0,1,1,3.8,3.82h-3.8Z"/><path class="cls-6" d="M29,22.82a5.56,5.56,0,0,0,5.55-5.55V5.55a5.55,5.55,0,1,0-11.09,0V17.27A5.55,5.55,0,0,0,29,22.82ZM25.17,5.55a3.81,3.81,0,1,1,7.61,0V17.27a3.81,3.81,0,1,1-7.61,0Z"/><path class="cls-7" d="M29,35.14H23.43v5.55A5.55,5.55,0,1,0,29,35.14Zm0,9.35a3.81,3.81,0,0,1-3.8-3.8V36.88H29a3.81,3.81,0,1,1,0,7.61Z"/><path class="cls-2" d="M40.69,23.45H29a5.55,5.55,0,0,0,0,11.09H40.69a5.55,5.55,0,0,0,0-11.09Zm0,9.36H29a3.81,3.81,0,1,1,0-7.62H40.69a3.81,3.81,0,0,1,0,7.62Z"/></g></svg>