<?xml version="1.0" encoding="utf-8"?>
<!-- Generator: Adobe Illustrator 24.0.0, SVG Export Plug-In . SVG Version: 6.00 Build 0)  -->
<svg version="1.1" xmlns="http://www.w3.org/2000/svg" xmlns:xlink="http://www.w3.org/1999/xlink" x="0px" y="0px"
	 viewBox="0 0 46.23 46.23" style="enable-background:new 0 0 46.23 46.23;" xml:space="preserve">
<style type="text/css">
	.st0{fill:#E3B861;}
</style>
<g id="BACKGROUND">
</g>
<g id="Layer_4">
</g>
<g id="Inspiration__x28_delete_this_x29_">
</g>
<g id="Content">
	<g>
		<path class="st0" d="M17.26,23.46c-3.06,0-5.54,2.49-5.54,5.54v11.69c0,3.06,2.49,5.54,5.54,5.54s5.54-2.49,5.54-5.54V29
			C22.8,25.94,20.31,23.46,17.26,23.46z M21.06,40.69c0,2.1-1.71,3.8-3.8,3.8s-3.8-1.71-3.8-3.8V29c0-2.1,1.71-3.8,3.8-3.8
			c2.1,0,3.8,1.71,3.8,3.8V40.69z"/>
		<path class="st0" d="M0.03,29c0,3.06,2.49,5.55,5.55,5.55c3.06,0,5.55-2.49,5.55-5.55v-5.55H5.58C2.52,23.45,0.03,25.94,0.03,29z
			 M9.39,29c0,2.1-1.71,3.81-3.81,3.81S1.77,31.1,1.77,29c0-2.1,1.71-3.81,3.81-3.81h3.81V29z"/>
		<path class="st0" d="M17.26,11.09h5.54V5.54C22.8,2.48,20.32,0,17.26,0c-3.06,0-5.55,2.49-5.55,5.55
			C11.71,8.6,14.2,11.09,17.26,11.09z M17.26,1.74c2.09,0,3.8,1.7,3.8,3.8v3.82h-3.8c-2.1,0-3.81-1.71-3.81-3.81
			C13.45,3.45,15.16,1.74,17.26,1.74z"/>
		<path class="st0" d="M17.26,11.73H5.55C2.49,11.73,0,14.21,0,17.27s2.49,5.55,5.55,5.55h11.71c3.06,0,5.55-2.49,5.55-5.55
			S20.32,11.73,17.26,11.73z M17.26,21.08H5.55c-2.1,0-3.81-1.71-3.81-3.81s1.71-3.81,3.81-3.81h11.71c2.1,0,3.81,1.71,3.81,3.81
			S19.36,21.08,17.26,21.08z"/>
		<path class="st0" d="M46.2,17.27c0-3.06-2.49-5.55-5.55-5.55c-3.05,0-5.54,2.48-5.54,5.55v5.55h5.54
			C43.71,22.82,46.2,20.33,46.2,17.27z M36.85,17.26c0-2.1,1.7-3.8,3.8-3.8c2.1,0,3.81,1.71,3.81,3.81s-1.71,3.81-3.81,3.81h-3.8
			V17.26z"/>
		<path class="st0" d="M28.97,22.82c3.06,0,5.54-2.49,5.54-5.54V5.55c0-3.06-2.49-5.54-5.54-5.54s-5.54,2.49-5.54,5.54v11.73
			C23.43,20.33,25.92,22.82,28.97,22.82z M25.17,5.55c0-2.1,1.71-3.8,3.8-3.8c2.1,0,3.8,1.71,3.8,3.8v11.73c0,2.1-1.71,3.8-3.8,3.8
			c-2.1,0-3.8-1.71-3.8-3.8V5.55z"/>
		<path class="st0" d="M28.97,35.14h-5.54v5.55c0,3.05,2.49,5.54,5.54,5.54c3.06,0,5.54-2.49,5.54-5.54
			C34.52,37.63,32.03,35.14,28.97,35.14z M28.97,44.49c-2.1,0-3.8-1.71-3.8-3.8v-3.81h3.8c2.1,0,3.8,1.71,3.8,3.8
			S31.07,44.49,28.97,44.49z"/>
		<path class="st0" d="M40.69,23.45H28.97c-3.06,0-5.55,2.49-5.55,5.55c0,3.06,2.49,5.55,5.55,5.55h11.71
			c3.06,0,5.55-2.49,5.55-5.55C46.23,25.94,43.74,23.45,40.69,23.45z M40.69,32.81H28.97c-2.1,0-3.81-1.71-3.81-3.81
			c0-2.1,1.71-3.81,3.81-3.81h11.71c2.1,0,3.81,1.71,3.81,3.81C44.49,31.1,42.79,32.81,40.69,32.81z"/>
	</g>
</g>
</svg>
