<?xml version="1.0" encoding="UTF-8"?>
<svg id="Content" xmlns="http://www.w3.org/2000/svg" viewBox="0 0 40.14 46.14">
  <defs>
    <style>
      .cls-1 {
        fill: none;
        stroke: #fff;
        stroke-miterlimit: 10;
        stroke-width: 2px;
      }
    </style>
  </defs>
  <path class="cls-1" d="m28.56,1h-7.06c0,.2.03.39.05.59v29.33c0,3.14-2.27,5.75-5.3,6.38-.44.09-.91.14-1.38.14-3.69,0-6.67-2.91-6.67-6.52s2.98-6.52,6.67-6.52c.47,0,.94.05,1.38.14v-6.87c-.48-.05-.97-.08-1.47-.08-7.62,0-13.78,6.16-13.78,13.78s6.16,13.77,13.78,13.77c.5,0,.99-.03,1.47-.08,6.76-.72,12.06-6.33,12.29-13.24,0-.15,0-.3,0-.45V14.48c2.93,2.38,6.59,3.91,10.6,4.18v-6.61c-5.8-.43-10.4-5.19-10.59-11.05Z"/>
</svg>