<svg xmlns="http://www.w3.org/2000/svg" xmlns:xlink="http://www.w3.org/1999/xlink" viewBox="0 0 28.89 44.83"><defs><style>.cls-1{fill:url(#linear-gradient);}</style><linearGradient id="linear-gradient" y1="22.42" x2="28.89" y2="22.42" gradientUnits="userSpaceOnUse"><stop offset="0" stop-color="#d4a232"/><stop offset="0.04" stop-color="#d6a83c"/><stop offset="0.25" stop-color="#e2c46f"/><stop offset="0.41" stop-color="#e9d58f"/><stop offset="0.5" stop-color="#ecdc9b"/><stop offset="0.57" stop-color="#f2e5a7"/><stop offset="0.67" stop-color="#fffac3"/><stop offset="0.85" stop-color="#d4b976"/><stop offset="1" stop-color="#b08234"/></linearGradient></defs><title>Icon_Website_tumblr</title><g id="Content"><path class="cls-1" d="M7.88,0V3.94h0a6.58,6.58,0,0,1-6.57,6.56H0V21H5.25v9.37A14.46,14.46,0,0,0,19.7,44.83h9.19V31.7H19.7a1.32,1.32,0,0,1-1.31-1.32V21h10.5V10.51H18.39V0ZM26.27,13.13v5.26H15.76v12a3.94,3.94,0,0,0,3.94,3.94h6.57V42.2H19.7A11.83,11.83,0,0,1,7.88,30.38v-12H2.63V13a9.15,9.15,0,0,0,4.81-2.25h0a9.19,9.19,0,0,0,3.07-6.85V2.63h5.25v10.5Z"/></g></svg>