<?xml version="1.0" encoding="utf-8"?>
<!-- Generator: Adobe Illustrator 24.0.0, SVG Export Plug-In . SVG Version: 6.00 Build 0)  -->
<svg version="1.1" xmlns="http://www.w3.org/2000/svg" xmlns:xlink="http://www.w3.org/1999/xlink" x="0px" y="0px"
	 viewBox="0 0 28.89 44.83" style="enable-background:new 0 0 28.89 44.83;" xml:space="preserve">
<style type="text/css">
	.st0{fill:#E3B861;}
</style>
<g id="BACKGROUND">
</g>
<g id="Layer_4">
</g>
<g id="Inspiration__x28_delete_this_x29_">
</g>
<g id="Content">
	<path class="st0" d="M7.88,0v3.94v0.01v0c0,3.6-2.93,6.56-6.57,6.56H0v10.51h5.25v9.37c0,7.97,6.48,14.45,14.45,14.45h9.19V31.7
		H19.7c-0.72,0-1.31-0.59-1.31-1.31v-9.37h10.51V10.51H18.39V0H7.88z M26.27,13.13v5.25H15.76v12c0,2.17,1.77,3.94,3.94,3.94h6.57
		v7.88H19.7c-6.52,0-11.82-5.3-11.82-11.82v-12H2.63v-5.35c1.83-0.26,3.49-1.07,4.81-2.25l0,0c1.87-1.67,3.06-4.13,3.06-6.85V2.63
		h5.25v10.51H26.27z"/>
</g>
</svg>
