<svg xmlns="http://www.w3.org/2000/svg" xmlns:xlink="http://www.w3.org/1999/xlink" viewBox="0 0 56.56 42.79"><defs><style>.cls-1{fill:none;stroke-miterlimit:10;stroke-width:1.94px;stroke:url(#linear-gradient);}</style><linearGradient id="linear-gradient" y1="21.39" x2="56.56" y2="21.39" gradientUnits="userSpaceOnUse"><stop offset="0" stop-color="#d4a232"/><stop offset="0.04" stop-color="#d6a83c"/><stop offset="0.25" stop-color="#e2c46f"/><stop offset="0.41" stop-color="#e9d58f"/><stop offset="0.5" stop-color="#ecdc9b"/><stop offset="0.57" stop-color="#f2e5a7"/><stop offset="0.67" stop-color="#fffac3"/><stop offset="0.85" stop-color="#d4b976"/><stop offset="1" stop-color="#b08234"/></linearGradient></defs><title>Icon_Website_twitter</title><g id="Content"><path class="cls-1" d="M53.89,6.17A21.28,21.28,0,0,1,48,7.78,10.09,10.09,0,0,0,52.5,2.15,20.32,20.32,0,0,1,46,4.61a10.2,10.2,0,0,0-17.64,7,11,11,0,0,0,.23,2.33A28.89,28.89,0,0,1,7.6,3.25a10.19,10.19,0,0,0,3.13,13.63,10.09,10.09,0,0,1-4.61-1.26v.12a10.25,10.25,0,0,0,8.18,10,10.09,10.09,0,0,1-2.68.34,8.84,8.84,0,0,1-1.93-.18A10.3,10.3,0,0,0,19.22,33,20.53,20.53,0,0,1,6.57,37.38a19.62,19.62,0,0,1-2.44-.14,28.77,28.77,0,0,0,15.65,4.58c18.78,0,29-15.55,29-29,0-.45,0-.89,0-1.32A20.13,20.13,0,0,0,53.89,6.17Z"/></g></svg>