<?xml version="1.0" encoding="utf-8"?>
<!-- Generator: Adobe Illustrator 24.0.0, SVG Export Plug-In . SVG Version: 6.00 Build 0)  -->
<svg version="1.1" xmlns="http://www.w3.org/2000/svg" xmlns:xlink="http://www.w3.org/1999/xlink" x="0px" y="0px"
	 viewBox="0 0 56.56 42.79" style="enable-background:new 0 0 56.56 42.79;" xml:space="preserve">
<style type="text/css">
	.st0{fill:none;stroke:#E3B861;stroke-width:1.9438;stroke-miterlimit:10;}
</style>
<g id="BACKGROUND">
</g>
<g id="Layer_4">
</g>
<g id="Inspiration__x28_delete_this_x29_">
</g>
<g id="Content">
	<g>
		<g>
			<path class="st0" d="M53.89,6.17c-1.85,0.81-3.82,1.35-5.88,1.61c2.11-1.26,3.73-3.25,4.49-5.64c-1.97,1.18-4.15,2.01-6.47,2.47
				c-1.87-1.99-4.54-3.23-7.45-3.23c-5.65,0-10.19,4.58-10.19,10.2c0,0.81,0.07,1.59,0.24,2.33C20.14,13.5,12.64,9.44,7.6,3.25
				C6.72,4.77,6.2,6.52,6.2,8.4c0,3.53,1.82,6.66,4.53,8.48c-1.64-0.03-3.25-0.51-4.61-1.26c0,0.03,0,0.07,0,0.11
				c0,4.96,3.54,9.08,8.17,10.02c-0.83,0.23-1.74,0.34-2.67,0.34c-0.65,0-1.31-0.04-1.93-0.17c1.32,4.04,5.07,7.01,9.53,7.11
				c-3.47,2.72-7.88,4.35-12.65,4.35c-0.84,0-1.64-0.04-2.44-0.14c4.52,2.91,9.87,4.58,15.65,4.58c18.77,0,29.04-15.55,29.04-29.03
				c0-0.45-0.02-0.89-0.04-1.32C50.81,10.03,52.51,8.24,53.89,6.17z"/>
		</g>
	</g>
</g>
</svg>
