<?xml version="1.0" encoding="utf-8"?>
<!-- Generator: Adobe Illustrator 18.1.1, SVG Export Plug-In . SVG Version: 6.00 Build 0)  -->
<svg version="1.1" xmlns="http://www.w3.org/2000/svg" xmlns:xlink="http://www.w3.org/1999/xlink" x="0px" y="0px"
	 viewBox="0 0 655.2 86.7" enable-background="new 0 0 655.2 86.7" xml:space="preserve">
<g id="Layer_1" display="none">
	<polygon display="inline" fill="#00A651" points="0,61.5 144,21.7 144,25.2 3.3,66.6 0,65 	"/>
	<polygon display="inline" fill="#00A651" points="0,25.2 68.9,65.1 74.9,61.5 0,21.7 0,21.7 	"/>
	<polygon display="inline" fill="#00AEEF" points="80.8,64.9 80.8,71.9 106.5,86.7 106.5,79.7 	"/>
	<polygon display="inline" fill="#00AEEF" points="106.5,86.7 144,65 138,61.5 106.5,79.7 	"/>
	<polygon display="inline" fill="#00AEEF" points="144,65 138,61.5 138,25.1 144,21.7 	"/>
	<polygon display="inline" fill="#00AEEF" points="106.5,0 106.5,6.9 138,25.1 144,21.7 	"/>
	<polygon display="inline" fill="#00AEEF" points="106.5,0 106.5,6.9 74.9,25.1 69.1,25.1 72,19.9 	"/>
	<polygon display="inline" fill="#00AEEF" points="37.5,0 63.2,14.8 63.2,21.7 37.5,6.9 	"/>
	<polygon display="inline" fill="#00AEEF" points="37.5,0 37.5,6.9 6,25.1 0,21.7 	"/>
	<polygon display="inline" fill="#00AEEF" points="0,65 6,61.5 6,25.1 0,21.7 	"/>
	<polygon display="inline" fill="#00AEEF" points="37.5,86.7 37.5,79.7 6,61.5 0,65 	"/>
	<polygon display="inline" fill="#00AEEF" points="37.5,86.7 37.5,79.7 69.1,61.5 74.9,61.5 72,66.8 	"/>
	<polygon display="inline" fill="#00AEEF" points="72,66.8 69.1,61.5 69.1,21.7 72,19.9 74.9,25.1 74.9,65.1 	"/>
	<polygon fill="#FFF200" points="44.1,25.2 150.6,86.7 156.6,83.2 47.4,20.1 44.1,21.7 	"/>
</g>
<g id="Layer_4">
	<polygon fill="#227F44" points="0,61.5 144,21.7 144,23.3 3,66.7 0,65 	"/>
	<polygon fill="#227F44" points="0,25.1 68.9,65.1 74.9,61.5 0,21.7 0,21.7 	"/>
	<polygon fill="#00AEEF" points="106.5,86.7 144,65 138,61.5 106.5,79.7 	"/>
	<polygon fill="#00AEEF" points="144,65 138,61.5 138,25.1 144,21.7 	"/>
	<polygon fill="#00AEEF" points="106.5,0 106.5,6.9 138,25.1 144,21.7 	"/>
	<polygon fill="#00AEEF" points="106.5,0 106.5,6.9 74.9,25.1 69.1,25.1 72,19.9 	"/>
	<polygon fill="#00AEEF" points="37.5,0 55.5,10.4 57.3,11.4 57.3,18.3 55.5,17.3 37.5,6.9 	"/>
	<polygon fill="#00AEEF" points="37.5,0 37.5,6.9 6,25.1 0,21.7 	"/>
	<polygon fill="#00AEEF" points="0,65 6,61.5 6,25.1 0,21.7 	"/>
	<polygon fill="#00AEEF" points="37.5,86.7 37.5,79.7 6,61.5 0,65 	"/>
	<polygon fill="#00AEEF" points="37.5,86.7 37.5,79.7 69.1,61.5 74.9,61.5 72,66.8 	"/>
	<polygon fill="#00AEEF" points="72,66.8 69.1,61.5 69.1,21.7 72,19.9 74.9,25.1 74.9,65.1 	"/>
	<polygon fill="#00AEEF" points="107.5,86.7 89.5,76.3 87.8,75.3 87.8,68.3 89.5,69.3 107.5,79.7 	"/>
</g>
<g id="Layer_2">
	<text transform="matrix(1 0 0 1 154.3336 64.9344)" display="none"><tspan x="0" y="0" display="inline" fill="#00A651" font-family="'MuseoSans-500'" font-size="62" letter-spacing="3">C</tspan><tspan x="47.9" y="0" display="inline" fill="#00A651" font-family="'MuseoSans-500'" font-size="62" letter-spacing="1">RO</tspan><tspan x="141.6" y="0" display="inline" fill="#00A651" font-family="'MuseoSans-500'" font-size="62" letter-spacing="2">SSI</tspan><tspan x="234.8" y="0" display="inline" fill="#00A651" font-family="'MuseoSans-500'" font-size="62">N</tspan><tspan x="281.7" y="0" display="inline" fill="#00A651" font-family="'MuseoSans-500'" font-size="62" letter-spacing="2">G</tspan><tspan x="331.6" y="0" display="inline" fill="#00A651" font-family="'MuseoSans-500'" font-size="62" letter-spacing="2">S</tspan><tspan x="368" y="0" display="inline" fill="#00AEEF" font-family="'MuseoSans-500'" font-size="62">C</tspan><tspan x="412.7" y="0" display="inline" fill="#00AEEF" font-family="'MuseoSans-500'" font-size="62" letter-spacing="-1">O</tspan><tspan x="462.1" y="0" display="inline" fill="#00AEEF" font-family="'MuseoSans-500'" font-size="62" letter-spacing="3">N</tspan></text>
	<g>
		<path fill="#227F44" d="M179.6,20.4c10.5,0,15.9,5.8,15.9,5.8l-3,4.6c0,0-5.1-4.8-12.6-4.8c-9.8,0-16.2,7.4-16.2,16.7
			c0,9.4,6.5,17.3,16.2,17.3c8.2,0,13.5-5.7,13.5-5.7l3.3,4.4c0,0-6,6.9-17,6.9c-13.1,0-22.4-10-22.4-22.9
			C157.3,30.1,166.9,20.4,179.6,20.4z"/>
		<path fill="#227F44" d="M206,21.2h13.4c4.6,0,6.5,0.4,8.2,1c4.5,1.7,7.4,6.1,7.4,11.8c0,5.6-3.1,10.3-7.9,11.8V46
			c0,0,0.5,0.6,1.3,2l9.3,17h-6.9l-9.2-17.4h-9.4v17.4H206V21.2z M220.9,42.2c4.8,0,7.8-3,7.8-7.9c0-3.2-1.2-5.5-3.5-6.8
			c-1.2-0.6-2.6-1-6-1h-7.1v15.7H220.9z"/>
		<path display="none" fill="#00A651" d="M266.8,20.4c12.6,0,22.4,9.7,22.4,22.3c0,12.9-9.8,22.9-22.4,22.9
			c-12.6,0-22.5-10-22.5-22.9C244.3,30.2,254.2,20.4,266.8,20.4z M266.8,60c8.9,0,16.1-7.4,16.1-17.3c0-9.5-7.2-16.7-16.1-16.7
			s-16.2,7.2-16.2,16.7C250.6,52.6,257.9,60,266.8,60z"/>
		<path fill="#227F44" d="M299.9,55.3c0,0,4.7,4.7,11.2,4.7c4.1,0,7.6-2.3,7.6-6.4c0-9.5-21.2-7.4-21.2-20.9
			c0-6.8,5.9-12.2,14.1-12.2c8.1,0,12.4,4.4,12.4,4.4l-2.8,5.1c0,0-4-3.8-9.6-3.8c-4.7,0-7.9,2.9-7.9,6.4c0,9.1,21.2,6.6,21.2,20.8
			c0,6.8-5.2,12.3-13.9,12.3c-9.3,0-14.5-5.8-14.5-5.8L299.9,55.3z"/>
		<path fill="#227F44" d="M336.2,55.3c0,0,4.7,4.7,11.2,4.7c4.1,0,7.6-2.3,7.6-6.4c0-9.5-21.2-7.4-21.2-20.9
			c0-6.8,5.9-12.2,14.1-12.2c8.1,0,12.4,4.4,12.4,4.4l-2.8,5.1c0,0-4-3.8-9.6-3.8c-4.7,0-7.9,2.9-7.9,6.4c0,9.1,21.2,6.6,21.2,20.8
			c0,6.8-5.2,12.3-13.9,12.3c-9.3,0-14.5-5.8-14.5-5.8L336.2,55.3z"/>
		<path fill="#227F44" d="M372.4,21.2h6.1v43.8h-6.1V21.2z"/>
		<path fill="#227F44" d="M392.9,21.2h6.1l19.5,28.5c1.6,2.4,3.7,6.3,3.7,6.3h0.1c0,0-0.4-3.9-0.4-6.3V21.2h6.1v43.8h-6l-19.5-28.4
			c-1.6-2.4-3.7-6.4-3.7-6.4h-0.1c0,0,0.4,3.9,0.4,6.4v28.4h-6.1V21.2z"/>
		<path fill="#227F44" d="M459.3,20.4c10.5,0,15.9,5.3,15.9,5.3l-3.1,4.6c0,0-4.9-4.3-12.3-4.3c-10.3,0-16.5,7.5-16.5,16.9
			c0,10.2,6.9,17.2,16.1,17.2c7.6,0,12.4-5.5,12.4-5.5v-6.3h-7.1v-5.3h12.7v22H472v-2.7c0-0.9,0.1-1.9,0.1-1.9h-0.1
			c0,0-4.8,5.3-13.5,5.3c-11.8,0-21.5-9.3-21.5-22.7C436.9,30.3,446.5,20.4,459.3,20.4z"/>
		<path fill="#227F44" d="M489.9,55.3c0,0,4.7,4.7,11.2,4.7c4.1,0,7.6-2.3,7.6-6.4c0-9.5-21.2-7.4-21.2-20.9
			c0-6.8,5.9-12.2,14.1-12.2c8.1,0,12.4,4.4,12.4,4.4l-2.8,5.1c0,0-4-3.8-9.6-3.8c-4.7,0-7.9,2.9-7.9,6.4c0,9.1,21.2,6.6,21.2,20.8
			c0,6.8-5.2,12.3-13.9,12.3c-9.3,0-14.5-5.8-14.5-5.8L489.9,55.3z"/>
		<path fill="#00AEEF" d="M545.4,20.4c10.5,0,15.9,5.8,15.9,5.8l-3,4.6c0,0-5.1-4.8-12.6-4.8c-9.8,0-16.2,7.4-16.2,16.7
			c0,9.4,6.5,17.3,16.2,17.3c8.2,0,13.5-5.7,13.5-5.7l3.3,4.4c0,0-6,6.9-17,6.9c-13.1,0-22.4-10-22.4-22.9
			C523.1,30.1,532.7,20.4,545.4,20.4z"/>
		<path fill="#00AEEF" d="M590.4,20.4c12.6,0,22.4,9.7,22.4,22.3c0,12.9-9.8,22.9-22.4,22.9s-22.5-10-22.5-22.9
			C567.9,30.2,577.7,20.4,590.4,20.4z M590.4,60c8.9,0,16.1-7.4,16.1-17.3c0-9.5-7.2-16.7-16.1-16.7s-16.2,7.2-16.2,16.7
			C574.2,52.6,581.5,60,590.4,60z"/>
		<path fill="#00AEEF" d="M620.2,21.2h6.1l19.5,28.5c1.6,2.4,3.7,6.3,3.7,6.3h0.1c0,0-0.4-3.9-0.4-6.3V21.2h6.1v43.8h-6l-19.5-28.4
			c-1.6-2.4-3.7-6.4-3.7-6.4h-0.1c0,0,0.4,3.9,0.4,6.4v28.4h-6.1V21.2z"/>
	</g>
	<path fill="#227F44" d="M266.5,68.6l-22.1-12.7V30.4l22.1-12.7l22.1,12.7v25.5L266.5,68.6z M250.4,52.4l16.1,9.3l16.1-9.3V33.9
		l-16.1-9.3l-16.1,9.3V52.4z"/>
	<polygon display="none" fill="none" stroke="#00AEEF" stroke-width="6" stroke-miterlimit="10" points="609.6,54.1 590.5,65.1 
		571.5,54.1 571.5,32.1 590.5,21.1 609.6,32.1 	"/>
</g>
<g id="Layer_3" display="none">
</g>
</svg>
