<?xml version="1.0" encoding="UTF-8"?><svg id="Layer_1" xmlns="http://www.w3.org/2000/svg" viewBox="0 0 314.43 189.25"><defs><style>.cls-1{fill:#fff;}</style></defs><polygon class="cls-1" points="0 134.22 0 141.94 6.55 145.72 314.43 50.96 314.43 47.31 0 134.22"/><polygon class="cls-1" points="0 54.88 150.48 142.06 163.63 134.38 0 47.31 0 54.88"/><polygon class="cls-1" points="232.48 189.25 314.43 141.94 301.33 134.38 232.48 174.12 232.48 189.25"/><polygon class="cls-1" points="314.43 141.94 301.33 134.38 301.33 54.88 314.43 47.31 314.43 141.94"/><polygon class="cls-1" points="232.48 0 232.48 15.13 301.33 54.88 314.43 47.31 232.48 0"/><polygon class="cls-1" points="232.48 0 232.48 15.13 163.63 54.88 150.8 54.88 157.22 43.46 232.48 0"/><polygon class="cls-1" points="81.95 0 121.26 22.69 125.13 24.93 125.13 40.06 121.28 37.83 81.95 15.13 81.95 0"/><polygon class="cls-1" points="0 47.31 13.1 54.88 81.95 15.13 81.95 0 0 47.31"/><polygon class="cls-1" points="0 141.94 13.1 134.38 13.1 54.88 0 47.31 0 141.94"/><polygon class="cls-1" points="0 141.94 81.95 189.25 81.95 174.13 13.1 134.38 0 141.94"/><polygon class="cls-1" points="81.95 189.25 81.95 174.12 150.8 134.38 163.63 134.38 157.21 145.8 81.95 189.25"/><polygon class="cls-1" points="157.21 145.8 150.8 134.38 150.8 47.47 157.21 43.45 163.63 54.88 163.63 142.09 157.21 145.8"/><polygon class="cls-1" points="234.82 189.25 195.51 166.56 191.64 164.32 191.64 149.2 195.49 151.42 234.82 174.12 234.82 189.25"/></svg>