<?xml version="1.0" encoding="UTF-8"?><svg id="Layer_1" xmlns="http://www.w3.org/2000/svg" viewBox="0 0 828 828"><defs><style>.cls-1{stroke-width:5px;}.cls-1,.cls-2,.cls-3,.cls-4,.cls-5,.cls-6,.cls-7,.cls-8,.cls-9,.cls-10,.cls-11,.cls-12,.cls-13{fill:none;stroke-linecap:round;stroke-linejoin:round;}.cls-1,.cls-6{stroke-dasharray:0 0 4 12;}.cls-1,.cls-7{stroke:#fed19d;}.cls-2{stroke-dasharray:0 0 3.97 11.91;}.cls-2,.cls-3,.cls-4,.cls-5,.cls-6,.cls-8,.cls-9,.cls-10{stroke:#da7d63;}.cls-2,.cls-3,.cls-5,.cls-6,.cls-8,.cls-9,.cls-10{stroke-width:3px;}.cls-4,.cls-11,.cls-12,.cls-13{stroke-width:6px;}.cls-5{stroke-dasharray:0 0 3.97 11.9;}.cls-7{stroke-width:2px;}.cls-8{stroke-dasharray:0 0 4.07 12.2;}.cls-9{stroke-dasharray:0 0 2.3 6.89;}.cls-10{stroke-dasharray:0 0 3.96 11.89;}.cls-14{fill:#f4ac78;}.cls-14,.cls-15,.cls-16,.cls-17{stroke-width:0px;}.cls-15{fill:#da7d63;}.cls-16{fill:#fed19d;}.cls-17{fill:#fbb37c;}.cls-11{stroke:#fbb37c;}.cls-12{stroke:#231f20;}.cls-13{stroke:#976978;}</style></defs><path class="cls-6" d="m503.47,761.24c-49.11,12.63-101.69,15.01-154.83,5.15C153.53,730.18,24.71,542.66,60.91,347.55,97.12,152.44,284.64,23.62,479.75,59.82c195.11,36.2,323.93,223.72,287.73,418.84-26.34,141.97-132.8,248.84-264.01,282.58"/><path class="cls-3" d="m117,341.48c.16-.65.32-1.3.48-1.94"/><path class="cls-8" d="m120.67,327.76c39-133.29,163.48-223.06,300.94-219.48"/><path class="cls-3" d="m427.7,108.49c.67.03,1.33.06,2,.1"/><path class="cls-13" d="m773.42,423.16c-.54,18.35-2.49,36.89-5.94,55.49-7.6,40.96-21.87,79-41.48,113.21"/><path class="cls-3" d="m341.56,711.01c-.65-.16-1.3-.32-1.94-.48"/><path class="cls-2" d="m328.12,707.42c-140.52-40.96-232.76-176.9-218.42-322.98"/><path class="cls-3" d="m110.34,378.52c.08-.66.16-1.32.24-1.99"/><path class="cls-14" d="m397.59,223.08c.22-1.9.42-3.81.6-5.71.13-1.37-.65-2.48-1.92-2.78-1.84-.43-3.7-.84-5.54-1.26-.56-.12-1.11-.27-1.69-.41.02-.15.03-.27.05-.38.11-.68.22-1.37.34-2.05.78-4.66,1.56-9.31,2.14-14,.22-1.76.47-3.52.62-5.3.2-2.29.36-4.58.46-6.88.1-2.23.04-4.46-.29-6.67-.22-1.44-.55-2.86-1.25-4.16-.58-1.05-1.39-1.88-2.51-2.35-.75-.31-1.51-.58-2.27-.85-1.55-.56-3.12-1.13-4.68-1.66-1.3-.44-2.6-.86-3.9-1.27-1.14-.37-2.29-.73-3.43-1.08-1.35-.41-2.68-.83-4.02-1.22-1.14-.33-2.28-.66-3.42-.97-1.41-.39-2.83-.8-4.25-1.18-.97-.26-1.93-.51-2.9-.76-1.68-.44-3.36-.9-5.05-1.32-1.33-.34-2.66-.66-3.99-.97-1.96-.47-3.92-.92-5.87-1.4-.55-.13-1.11-.29-1.67-.43.05-.46.1-.88.13-1.29.1-1.28-.16-1.71-1.36-2.23-1.06-.47-2.21-.28-3.05.53-.4.39-.68.88-.92,1.39-.07.14-.13.27-.18.38-2.88-.6-5.76-1.19-8.63-1.78-37.5,12.33-71.83,32.65-100.6,59.34,2.28.38,4.57.78,6.84,1.19,9.52,1.76,19.04,3.51,28.57,5.28,1.78.33,3.56.66,5.34,1,.6.11,1.17.04,1.72-.24.91-.46,1.32-1.26,1.53-2.21.7-3.2,1.41-6.38,2.11-9.57.81-3.65,1.62-7.31,2.44-10.96.24-1.08.49-2.18.73-3.27.1-.41.1-.42.53-.47.28-.04.57-.06.86-.07,2.2-.1,4.39.09,6.58.29,1.36.13,2.72.31,4.08.47.14.02.28.05.49.09-.11.1-.17.16-.23.21-.29.25-.63.46-.87.74-.8.91-1.46,1.91-2.03,2.97-1.49,2.84-2.19,5.89-2.56,9.03-.33,2.83-.34,5.66-.15,8.5.02.34.04.67.06,1.04-.22.03-.41.05-.58.06-2.42.25-4.77.72-7.07,1.53-2.86,1.03-5.44,2.48-7.67,4.56-3.21,3-5.15,6.74-6.29,10.94-.54,2.02-1.05,4.03-1.58,6.04-.53,2.03-1.07,4.05-1.6,6.09-.57,2.22-1.13,4.46-1.7,6.68-.7,2.71-1.39,5.41-2.08,8.12-.74,2.95-1.47,5.91-2.2,8.87-.68,2.72-1.37,5.45-2.03,8.18-.07.28-.21.44-.45.56-4.53,2.49-8.96,5.12-13.3,7.93-3.94,2.54-7.79,5.22-11.41,8.21-2.07,1.7-4.05,3.49-5.81,5.52-1.22,1.4-2.32,2.9-3.07,4.63-.85,1.98-.69,3.85.52,5.64.55.79,1.16,1.54,1.85,2.21,1.93,1.9,4.12,3.46,6.4,4.88,3.91,2.43,8.03,4.47,12.25,6.29,2.33,1.01,4.7,1.95,7.08,2.88,1.68.66,3.39,1.27,5.08,1.88,1.21.43,2.43.85,3.64,1.26,1.29.42,2.6.85,3.91,1.25,1.36.41,2.72.81,4.08,1.2,1.64.47,3.28.94,4.93,1.39,1.34.36,2.69.7,4.03,1.04.22.06.45.08.73.14.6-2.22,1.2-4.38,1.77-6.56.45-1.74.65-3.52.7-5.32.06-2.52-.34-4.99-.99-7.42-.55-2-1.3-3.94-2.12-5.86-.61-1.47-1.09-2.98-1.44-4.54-.58-2.7-.6-5.41-.05-8.12.46-2.21,1.32-4.29,2.4-6.28,1.13-2.1,2.48-4.08,3.79-6.06.9-1.37,1.78-2.75,2.43-4.27,1.16-2.73,1.94-5.6,2.57-8.48.74-3.37,1.35-6.78,2.02-10.16.32-1.58.64-3.16.99-4.72.1-.51.3-1,.48-1.5.06-.18.15-.38.41-.41.3.21.37.54.4.85.12.85.24,1.71.27,2.56.14,3.91-.24,7.78-.84,11.63-.51,3.36-1.3,6.67-2.43,9.89-.89,2.53-2,4.95-3.5,7.18-.96,1.42-1.95,2.8-2.88,4.24-1.03,1.57-1.76,3.27-2.05,5.14-.22,1.34-.22,2.7-.07,4.05.3,2.8,1.13,5.46,2.18,8.05,1.25,3.13,2.38,6.3,3.13,9.59.57,2.47.87,4.96.8,7.49-.1,3.03-.71,5.97-1.51,8.88-.15.52-.27,1.04-.41,1.57.8.2,1.55.39,2.27.57.36,2.59,1.59,4.66,3.57,6.27,1.35,1.1,2.91,1.68,4.67,1.43,3.03-.41,5.3-1.99,6.88-4.58.06-.1.13-.19.17-.27.09,0,.14,0,.19,0,1.86.27,3.71.55,5.58.81.72.1,1.44.21,2.16.29,1.68.19,3.36.38,5.04.56,1.35.15,2.69.3,4.03.4,1.73.15,3.47.27,5.21.39,1.74.12,3.47.25,5.21.31,2.46.09,4.93.13,7.39.17,4.07.07,8.14-.05,12.19-.33,3.74-.26,7.46-.69,11.14-1.45,2.4-.5,4.77-1.13,7.02-2.16,1.03-.47,2.03-1.01,2.89-1.76.79-.67,1.42-1.45,1.7-2.46.23-.88.26-1.77.2-2.67-.13-1.79-.64-3.5-1.27-5.16-1.02-2.71-2.36-5.28-3.8-7.78-2.33-4-4.94-7.82-7.66-11.55-2.87-3.92-5.88-7.73-8.99-11.46-.3-.35-.42-.68-.35-1.14.15-.94.26-1.88.37-2.82.25-1.99.48-3.97.72-5.95.22-1.78.45-3.56.66-5.34.23-1.9.45-3.8.68-5.7.2-1.72.42-3.45.63-5.18.21-1.85.42-3.7.64-5.55.25-2.19.52-4.37.77-6.56.26-2.25.51-4.5.77-6.75.23-1.97.32-3.95.15-5.93-.32-3.91-1.58-7.49-3.93-10.66-1.95-2.61-4.4-4.67-7.16-6.36-.96-.59-1.96-1.13-2.95-1.69,0,0-.01-.05,0-.07.26-.55.51-1.11.76-1.67,1.31-2.99,2.4-6.06,3.01-9.29.4-2.1.61-4.22.44-6.37-.14-1.86-.5-3.68-1.39-5.35-.05-.08-.06-.17-.1-.29.12.02.19.02.25.05,1.61.46,3.23.89,4.83,1.37,1.55.48,3.09.98,4.62,1.51.72.24,1.4.56,2.05.97-.04.37-.07.7-.12,1.04-.55,3.73-1.11,7.46-1.67,11.2-.62,4.17-1.25,8.33-1.87,12.5-.25,1.66.65,2.93,2.31,3.25,1.3.24,2.6.47,3.9.71,7.35,1.36,14.72,2.72,22.07,4.1,3.82.72,7.64,1.47,11.47,2.21,1.38.26,2.76.54,4.14.79,1.37.24,2.49-.36,3.05-1.62,1.53-3.45,2.51-7.07,3.3-10.75.63-2.94,1.13-5.92,1.49-8.91Zm-98.68-4.15c-1.43-.16-2.88-.33-4.36-.49,0-.79-.04-1.55,0-2.31.05-1.12.17-2.23.48-3.31.23-.8.56-1.55,1.04-2.25.83-1.2,2.01-1.89,3.38-2.27,1.25-.35,2.53-.38,3.82-.33.06,0,.13.03.27.06-1.14,3.83-2.4,7.55-4.64,10.9Zm26.57,5.29c-1.42-.36-2.81-.72-4.27-1.1-.9-3.85-.71-7.79-.4-11.82.45.13.84.23,1.21.37.79.29,1.56.65,2.25,1.14,1.87,1.28,2.83,3.05,2.8,5.32-.03,2.16-.74,4.14-1.59,6.09Z"/><path class="cls-3" d="m710.72,487.87c-.16.65-.32,1.29-.49,1.94"/><path class="cls-5" d="m707.07,501.28c-41.55,140.08-177.65,231.77-323.65,216.92"/><path class="cls-3" d="m377.51,717.54c-.66-.08-1.32-.16-1.98-.25"/><path class="cls-13" d="m371.75,56.21c35.1-4.16,71.42-3.18,108,3.61,14.93,2.77,29.48,6.43,43.59,10.91"/><path class="cls-3" d="m489.69,117.72c.65.16,1.29.33,1.94.5"/><path class="cls-10" d="m503.07,121.45c139.55,42.29,230.56,178.59,215.05,324.51"/><path class="cls-3" d="m717.43,451.87c-.08.66-.17,1.32-.26,1.98"/><path class="cls-3" d="m429.7,108.59c.67.03,1.33.07,2,.11"/><path class="cls-9" d="m438.57,109.19c1.9.16,3.81.33,5.72.52"/><path class="cls-3" d="m447.71,110.07c.66.07,1.32.15,1.99.23"/><path class="cls-14" d="m578.84,631.02c17-12.9,32.5-27.79,46.13-44.41.66-3.56,1.3-7.11,1.95-10.67,1.22-6.76,1.94-13.63,2.87-20.27-2.33-2.36-3.48-4.68-2.46-7.66.82-2.37.33-4.43-1.39-6.39-.72-.82-1.05-2.32-.94-3.44.22-2-.03-3.7-1.25-5.33-.46-.61-.8-1.63-.63-2.32.65-2.66-.07-4.75-1.56-7.03-.94-1.42-.98-3.6-1-5.43-.02-1.86.45-3.74.76-5.59,1.21-7.23,2.46-14.45,3.63-21.69.17-1.11.62-2.53-1.36-2.98-.26.78-.59,1.55-.76,2.34-1.58,7.35-3.09,14.69-4.7,22.02-.48,2.23-1,4.47-1.8,6.6-.49,1.31-1.27,2.92-2.4,3.51-2.61,1.38-3.11,3.7-3.86,6.13-.74,2.35-4.37,2.69-4.35,5.83.01,1.59-.99,2.72-2.43,3.38-.97.44-1.98.78-2.1.82-.54,1.72-.82,2.31-.91,2.92-.48,2.93-.99,5.74-4.13,7.28-.75.37-1.2,1.63-1.53,2.57-2.04,5.73-3.21,11.67-4.28,17.65-1.73,9.7-3.58,19.38-5.38,29.08l-6.14,33.07Zm38.28-107.35c.54.16,1.2.25,1.54.62.39.42.48,1.11.7,1.68-.19.06-.47.22-.58.15-.77-.54-1.51-1.12-2.27-1.7.38-.48.54-.75.61-.74Zm-.24,9.11c-1.11.33-2.21.66-4.48,1.33q3.27-2.6,4.48-1.33Zm-1.4,7.62c-.34.05-.71.21-1.01.13-.2-.07-.31-.47-.46-.74.37-.05.73-.22,1.02-.13.21.07.31.47.45.74Zm-10.75,11.37c2.71-1.86,5.47-3.65,8.71-5.81,2.53,3.67,5.38,6.1,6.38,9.91-1.74.59-2-.67-2.56-1.33-.79-.96-1.43-2.04-2.2-3.01-.62-.8-1.32-1.52-2.15-2.46-2.87,1.67-5.51,3.2-8.06,4.69-1.17-.8-.89-1.47-.12-1.99Z"/><path class="cls-14" d="m588.74,542.97c.09-.97-.12-2.23-.68-2.95-2.2-2.82-1.9-5.82-1.16-8.96.24-1,.26-2.05.38-3.16-1.66-2.01-3.12-4.07-4.89-5.83-2.61-2.63-4.27-5.62-4.69-9.33-.1-.91-.7-1.76-1.21-2.99-.83,1.12-1.45,1.72-1.8,2.46-1.63,3.4-4.39,5.46-7.72,7.02-2.25,1.06-4.35,2.42-6.41,3.57-.29,1.08-.62,1.88-.71,2.7-.39,3.45-1.34,6.47-4.57,8.47-.94.59-1.64,1.92-1.97,3.06-.96,3.21-1.84,6.45-2.47,9.73-6.22,32.55-12.38,65.1-18.56,97.65-.39,2.06-.73,4.14-1.18,6.18-.23,1-.66,1.94-.96,2.83-2.14.65-3.87.4-5.73-1.29.32-2.08.63-4.33,1.05-6.57,2.54-13.82,5.12-27.63,7.68-41.45.3-1.64.71-3.3.8-4.96.04-.94-.26-2.05-.79-2.82-1.7-2.49-2.29-5.13-1.75-8.07.66-3.51,1.35-7,1.92-10.53.22-1.37.14-2.8.19-4-4.31-1.46-8.23-2.79-11.72-3.98-1.83-2.18-1.86-4.2-1.43-6.35.7-3.5,1.37-7,1.92-10.53.23-1.39.13-2.84.2-4.68-2.9-.54-5.55-1.1-8.22-1.51-2.84-.44-5.64-1.47-8.93-1.11-.5,2.16-1.01,4.16-1.42,6.16-.66,3.28-1.14,6.62-1.91,9.88-.68,2.85-1.9,3.7-4.92,3.7-3.49,0-6.99-.16-10.81-.26-.33,1.22-.71,2.39-.94,3.58-.65,3.3-1.27,6.6-1.86,9.9-.6,3.39-2.05,6.13-5.31,7.73-.61.3-1.11,1.18-1.31,1.89-.46,1.6-.7,3.28-1.01,4.93-4.29,23.1-8.55,46.2-12.89,69.28-.42,2.21-.29,4.62-2.12,6.8-.84-.41-2.26-.66-2.44-1.28-.45-1.47-1.25-2.91-.21-4.73.86-1.52.81-3.57,1.11-5.39.13-.76-.11-1.71.26-2.28,1.2-1.87,1.63-3.86,1.22-5.99-.47-2.44,2.09-4.03,1.66-6.42-.07-.4.11-.88-.02-1.25-.52-1.31,0-2.27.6-3.44.64-1.25,1.01-2.83.89-4.23-.12-1.49-.12-2.66.62-4.07.72-1.39.62-3.21.84-4.85.1-.76-.11-1.68.25-2.27,1.12-1.9,1.61-3.87,1.19-6.01-.48-2.43,2.18-4.05,1.66-6.42-.86-3.94,2.85-7.39,1.17-11.4,1.36-1.47,2.16-3.39,1.78-5.16-.47-2.28.79-3.9,1.17-5.82.34-1.79-.52-4.15.36-5.41,2.57-3.65.59-8.17,2.8-11.85.63-1.04-.51-3.13.08-4.24,2.46-4.59,2.33-9.73,3.51-14.57.58-2.39.8-4.89,1.24-7.6-2.09-.63-3.8-1.14-5.76-1.73.12-3.85.98-7.3,1.71-10.74.51-2.42.15-4.48-1.02-6.61-3.66-6.61-7.19-13.28-10.81-19.91-.57-1.04-1.39-1.96-2.28-3.2-6.47,5.53-12.57,10.97-18.91,16.1-2.49,2.01-3.71,4.31-4.18,7.37-.49,3.25-.84,6.61-2.22,9.89-2.04-.12-3.84-.23-5.41-.32-.48.68-.85.98-.93,1.34-.68,3.07-1.36,6.14-1.92,9.24-.6,3.3-1.51,6.62-1.48,9.93.04,3.18-2.45,5.79-1.53,9.07.19.67-.36,1.54-.53,2.33-.37,1.61-.9,3.22-1.04,4.85-.3,3.68-2.12,7.12-1.6,10.9-1.57,2.21-.94,4.8-1.39,7.18-.5,2.61-1.87,5.03-1.44,7.88.11.69-.62,1.48-.81,2.26-.34,1.41-.87,2.88-.76,4.27.13,1.55-.23,2.79-.82,4.16-.48,1.12-.76,2.44-.71,3.66.15,3.97-1.78,7.52-1.97,11.49-.19,4.05-2.25,8.01-2.4,12.05-.15,3.95-2.49,7.44-1.76,11.51.26,1.44-1.49,2.01-3.9,1.28.36-2.21.69-4.47,1.1-6.71,6.53-35.27,13.1-70.53,19.59-105.8.4-2.18,1.51-4.41.37-6.74-1.09-.3-2.18-.6-3.28-.9l-46.8,155.49c71.24,9.65,140.35-9.36,195.09-48.59,4.83-26.28,9.64-52.56,14.42-78.85.83-4.5,1.14-9.1,1.55-13.68Zm-19.34-19.89c1.63-2.16,3.48-4.14,5.15-6.1.61.11,1.24.07,1.33.27,2.36,5.08,3.85,10.45,4.54,16.21-1.93-2.95-3.87-5.91-6.03-9.22-1.15.59-2.25,1.03-3.2,1.68-2.06,1.41-4.03,2.93-6.98,5.1,1.15-3.97,3.53-5.74,5.19-7.94Zm2.17,13.25c-3.17,2.29-6.16,4.45-9.07,6.57-1.41-1.16-.93-2.18-.15-2.82,3.08-2.5,6.26-4.88,9.6-7.47,3.64,3.06,5.18,7.22,7.39,10.9.32.54-.08,1.5-.19,2.96-3.33-3.01-4.33-6.82-7.58-10.13Z"/><path class="cls-13" d="m55.49,435.38c-1.77-28.77-.07-58.21,5.42-87.83,2.12-11.44,4.76-22.64,7.9-33.6"/><path class="cls-13" d="m455.88,125.65l-5.5,18.26c-138.62-18.77-269.25,70.97-301.46,207.1l-19.02-1.41c33.46-148.17,175.68-245.87,325.99-223.94Z"/><path class="cls-13" d="m702.36,455.82l-18.26-5.5c18.77-138.62-70.97-269.25-207.1-301.46l1.41-19.02c148.17,33.46,245.87,175.68,223.94,325.99Z"/><path class="cls-13" d="m698.18,478.35c-33.46,148.17-175.68,245.87-325.99,223.94l5.5-18.26c138.62,18.77,269.25-70.97,301.46-207.1l19.02,1.41Z"/><path class="cls-13" d="m427.57,772.24c-25.93.94-52.36-.93-78.93-5.86-18.33-3.4-36.07-8.14-53.14-14.09"/><path class="cls-13" d="m349.65,698.12c-148.17-33.46-245.87-175.68-223.94-325.99l18.26,5.5c-18.77,138.62,70.97,269.25,207.1,301.46l-1.41,19.02Z"/><line class="cls-12" x1="341.74" y1="803.58" x2="341.8" y2="803.26"/><line class="cls-12" x1="414" y1="18.07" x2="414" y2="17.74"/><line class="cls-12" x1="18.07" y1="414" x2="17.74" y2="414"/><line class="cls-12" x1="803.64" y1="486.27" x2="803.32" y2="486.21"/><path class="cls-4" d="m460.84,365.16c-9.19-8.85-20.99-15.18-34.47-17.69L486.27,24.69l-2.82,37.65-5.04,67.49-1.41,19.02-16.16,216.31Z"/><path class="cls-4" d="m486.27,24.69l-59.9,322.79c-13.48-2.5-26.77-.82-38.52,4.14l62.52-207.71,5.5-18.26,19.51-64.81,10.88-36.15Z"/><path class="cls-4" d="m440.22,476.33l-62.52,207.71-5.5,18.26-19.51,64.81-10.88,36.15,59.9-322.79c13.48,2.5,26.77.82,38.52-4.14Z"/><path class="cls-4" d="m401.69,480.47l-59.9,322.79,2.82-37.65,5.04-67.49,1.41-19.02,16.16-216.31c9.19,8.85,20.99,15.18,34.47,17.69Z"/><path class="cls-4" d="m803.32,486.21l-322.79-59.9c2.5-13.48.82-26.77-4.14-38.52l207.71,62.52,18.26,5.5,64.81,19.51,36.15,10.88Z"/><path class="cls-4" d="m803.32,486.21l-37.65-2.82-67.49-5.04-19.02-1.41-216.31-16.16c8.85-9.19,15.18-20.99,17.69-34.47l322.79,59.9Z"/><path class="cls-4" d="m351.68,440.16l-207.71-62.52-18.26-5.5-64.81-19.51-36.15-10.88,322.79,59.9c-2.5,13.48-.82,26.77,4.14,38.52Z"/><path class="cls-4" d="m365.22,367.16c-8.85,9.19-15.18,20.99-17.69,34.47L24.75,341.74l37.65,2.82,67.49,5.04,19.02,1.41,216.31,16.16Z"/><path class="cls-4" d="m480.53,426.31c-2.5,13.48-8.84,25.28-17.69,34.47-6.39,6.67-14.11,11.97-22.63,15.54-11.75,4.96-25.04,6.64-38.52,4.14s-25.28-8.84-34.47-17.69c-6.67-6.39-11.97-14.11-15.54-22.63-4.96-11.75-6.64-25.04-4.14-38.52s8.84-25.28,17.69-34.47c6.39-6.67,14.11-11.97,22.63-15.54,11.75-4.96,25.04-6.64,38.52-4.14,13.48,2.5,25.28,8.84,34.47,17.69,6.67,6.39,11.97,14.11,15.54,22.63,4.96,11.75,6.64,25.04,4.14,38.52Z"/><path class="cls-11" d="m491.05,370.77c1.08-21.06,25.34-31.37,43.65-28.62,21.81,3.27,41.42,20.39,52.79,38.6,3.4,5.45,7.03,13.5,6.7,20.07-.16,3.19-1.83,6.52-4.81,7.68-1.94.75-4.15.49-6.1-.23-9.54-3.56-10.13-13.89-5.4-21.61,6.37-10.39,17.39-14,28.46-17.44,15.36-4.78,31.78-9.2,47.97-6.62,7.06,1.13,14.84,4.56,16.68,11.47,1.68,6.32-2.8,13.13-8.84,15.65-19.45,8.09-43.59-14.16-57.11-25.93-26.23-22.84-55.24-54.36-66.64-87.86-4.79-14.08-6.66-29.62-5.77-44.92"/><path class="cls-17" d="m532.16,238.58l-16.48,6.49-.25-.57,13.86-22.65c3.33-8.15,6.65-16.3,9.98-24.45.4,8.79.8,17.59,1.2,26.38l5.46,25.98-.34.47-13.43-11.66Z"/><path class="cls-1" d="m477.82,336.23c15.91-9.7,36.35-24.94,36.77-45.62.15-7.25-4.7-16.4-13.12-14.44-4.36,1.02-7.8,4.46-10.11,8.29-1.89,3.13-3.21,6.69-3.17,10.34.18,16.99,30.26,19.15,42.28,20.06,30,2.27,56.08-7.36,79.93-22.67"/><path class="cls-16" d="m605.09,295.56l-13.57-5.8.18-.48,21.48-5.31c6.75-2.88,13.49-5.76,20.24-8.64-4.91,5.45-9.83,10.89-14.74,16.34l-11.99,18.6-.48.08-1.13-14.78Z"/><path class="cls-14" d="m329.62,588.78c.01-.08.03-.17.05-.26.01-.07.02-.13.03-.2,0-.01,0-.02.01-.03.02-.1.04-.2.06-.31.93-4.74,1.86-9.48,2.79-14.21.06-.28.12-.57.11-.86-.02-.5-.36-.82-.71-1.13-2.6-2.26-5.21-4.53-7.81-6.8-.08-.07-.17-.15-.26-.24-.06-.03-.12-.07-.17-.1-.39-.25-.75-.54-1.12-.84-.68-.54-1.36-1.1-1.95-1.73-.15-.16-.28-.34-.4-.52-.09-.06-.19-.13-.28-.21-2.47-2.19-4.96-4.34-7.45-6.51-.08-.06-.17-.11-.25-.17-.62-.44-1.14-1-1.67-1.55-.95-.99-2.01-1.86-3.05-2.76-.25-.12-.49-.27-.72-.47-2.59-2.28-5.22-4.51-7.8-6.81-.72-.64-1.39-.78-2.3-.46-6.7,2.33-13.42,4.61-20.12,6.93-.38.13-.75.21-1.13.23-.16.08-.34.12-.54.11.17.02-.24.03-.17.02-.15.03-.29.09-.43.14-.28.11-.55.25-.81.39-.6.32-1.18.61-1.82.83-.72.24-1.43.47-2.15.68-.18.09-.3.15-.42.19-2.07.71-4.15,1.41-6.22,2.13,0,0-.01,0-.02,0-.67.26-1.39.41-2.08.64-1.05.35-1.96.99-3.06,1.14-.03.01-.06.02-.1.03-.84.29-1.69.57-2.52.9-.6.24-.91.68-1.04,1.36-.72,3.8-1.48,7.6-2.23,11.39.01.08.03.16.01.26-.19,1.16-.48,2.29-.83,3.41-.03,1.03-1.41,8.25-1.82,9.49-.24,1.34-.44,2.68-.68,4.01-.02.13-.09.25-.16.34l-1.6,8.64c0,.05.01.11,0,.16-.22,1.2-.38,2.4-.6,3.6-.03.16-.11.28-.21.39-.1.49-.22.97-.3,1.47-.11.69.06,1.24.63,1.73,1.63,1.36,3.21,2.78,4.8,4.18.18.15.34.32.66.61-.08,0-.16.01-.24.02.27.2.53.42.78.65.4.37.78.75,1.2,1.1.2.17.41.33.62.48.02.01.05.03.07.04.06.03.11.07.17.1.12.07.24.13.36.18.11.05.19.12.27.21.09.06.18.12.27.19,7.41,6.48,14.84,12.94,22.26,19.4.69.6,1.39,1.2,2.08,1.8.48.42,1,.55,1.61.31.18-.07.37-.12.55-.19,9.38-3.22,18.75-6.44,28.12-9.68.12-.04.23-.07.34-.09.24-.11.49-.21.75-.3.51-.17,1.01-.36,1.51-.56.52-.21,1.06-.4,1.62-.46.39-.15.62-.24.86-.32,2.6-.89,5.19-1.81,7.81-2.67.75-.25,1.21-.66,1.36-1.42.12-.59.24-1.18.36-1.77.07-.37.14-.75.22-1.17.02-.37.1-.73.2-1.09.12-.46.23-.93.33-1.4,0-.1.02-.2.04-.29,0-.04.03-.08.04-.13,0,0,0,0,0,0,.58-3.03,1.16-6.08,1.75-9.14.02,0,.04,0,.06-.01.18-1.29.47-2.56.77-3.82.25-1.79.95-5.45,1.23-6.29,0-.02,0-.05,0-.07.02-.39.11-.75.23-1.13,0,0,0-.01,0-.02.08-.57.15-1.15.25-1.72,0,0,0,0,0,0Zm-27-38.89s.05-.02.07,0c.08.05.17.1.24.16,8.55,7.44,17.1,14.89,25.8,22.47-4.07,1.35-7.97,2.65-11.87,3.94-.4-.41-13.65-25.04-14.28-26.52.01-.01.02-.03.04-.04Zm-5.3-4.07c5.42,10.13,10.78,20.15,16.13,30.13-.05.08-.07.1-.08.12-.02.01-.04.03-.06.03-1.73-.32-3.47-.63-5.19-.97-12.06-2.36-24.11-4.73-36.17-7.09-.03,0-.06-.06-.15-.17,8.48-7.33,16.97-14.66,25.53-22.05Zm-38.87,12.85c.13-.06.26-.13.39-.18,10.75-3.69,21.49-7.39,32.24-11.07.03-.01.08.03.2.09-7.54,6.52-15.06,13.01-22.65,19.56-3.45-2.78-6.85-5.51-10.23-8.23,0-.07,0-.09,0-.11,0-.02.02-.05.03-.06Zm-2.11,2.24c.11-.06.13-.08.15-.08.02,0,.05,0,.07.01,3.31,2.65,6.63,5.3,9.94,7.95.13.1.25.23.36.33-.25.67-16.76,25.85-17.27,26.28,2.27-11.58,4.51-23.07,6.75-34.49Zm-7.05,40.45c-.03-.07-.04-.1-.05-.12,0-.02-.02-.06,0-.07,6.24-9.57,12.49-19.14,18.74-28.71.1-.16.22-.3.32-.44.07,0,.09,0,.11,0,.02,0,.05.02.05.04,4.41,13.48,8.81,26.96,13.21,40.44.03.09.02.18.05.41-10.88-3.87-21.67-7.72-32.43-11.56Zm30.55,27.23c-.11.03-.14.04-.16.05-.02,0-.05,0-.07,0-8.65-7.51-17.31-15.02-25.96-22.53-.09-.08-.17-.17-.25-.26-.03-.03-.02-.09-.03-.2,9.62,3.43,19.22,6.85,28.82,10.27l-2.35,12.67Zm4.51-16.46c-4.51-13.82-9.01-27.62-13.56-41.58,14.4,2.81,28.6,5.59,42.82,8.37-.24.54-28.45,32.54-29.26,33.2Zm-1.96,17.11c.84-4.29,1.65-8.5,2.49-12.78,10.15.46,20.26.92,30.47,1.38-.53.38-31.8,11.18-32.95,11.4Zm4.29-15.36c-.02-.05-.04-.11-.06-.16,9.55-10.81,19.11-21.62,28.77-32.56,1.96,11.51,3.89,22.83,5.83,34.28-11.57-.52-23.06-1.04-34.54-1.56Zm36.34-5.03c-.09,0-.11,0-.13,0-.02,0-.05-.02-.05-.03-.04-.14-.08-.28-.11-.42-1.67-9.79-3.33-19.57-5.01-29.42,3.94-1.31,7.83-2.61,11.9-3.94-2.22,11.39-4.41,22.6-6.59,33.81Z"/><polygon class="cls-7" points="205.85 432.84 202.99 433.07 197.88 433.48 196.44 433.6 185.55 434.48 180.82 444.33 180.19 445.64 177.96 450.26 176.73 452.84 176.5 449.99 176.08 444.88 175.96 443.43 175.08 432.54 165.23 427.81 163.93 427.18 159.31 424.96 156.73 423.72 159.58 423.49 164.69 423.07 166.14 422.96 177.02 422.08 181.75 412.23 182.38 410.92 184.61 406.3 185.84 403.72 186.07 406.57 186.49 411.68 186.61 413.13 187.49 424.02 197.34 428.75 198.65 429.38 203.26 431.6 205.85 432.84"/><polygon class="cls-7" points="263.36 442.58 261.57 442.73 258.38 442.99 257.48 443.06 250.67 443.61 247.71 449.77 247.32 450.59 245.93 453.47 245.16 455.09 245.01 453.3 244.75 450.11 244.68 449.21 244.13 442.4 237.97 439.44 237.16 439.05 234.27 437.66 232.66 436.89 234.44 436.74 237.63 436.48 238.54 436.41 245.34 435.86 248.3 429.7 248.69 428.88 250.08 426 250.85 424.38 251 426.17 251.26 429.36 251.33 430.26 251.88 437.07 258.04 440.03 258.86 440.42 261.74 441.81 263.36 442.58"/><polygon class="cls-7" points="341.6 646.5 339.82 646.65 336.63 646.91 335.72 646.98 328.92 647.53 325.96 653.69 325.57 654.51 324.18 657.39 323.41 659.01 323.26 657.22 323 654.03 322.93 653.13 322.38 646.32 316.22 643.36 315.4 642.97 312.52 641.58 310.9 640.81 312.69 640.66 315.88 640.4 316.78 640.33 323.59 639.78 326.54 633.62 326.94 632.8 328.33 629.92 329.1 628.3 329.25 630.09 329.51 633.28 329.58 634.19 330.13 640.99 336.29 643.95 337.1 644.34 339.99 645.73 341.6 646.5"/><path class="cls-14" d="m354.99,495.91c-1.02-1.77-2.04-3.55-3.06-5.32-4.36-7.58-8.73-15.16-13.09-22.74-1.19-2.06-2.38-4.13-3.57-6.19-.84-1.45-2.04-2.5-3.59-3.17-.68-.3-1.39-.43-2.1-.56-8.41-1.56-16.81-3.12-25.22-4.68-4.85-.9-9.7-1.8-14.55-2.7-.55-.1-1.11-.22-1.67-.21-2.47.02-4.52.96-6.05,2.94-5.75,7.45-11.49,14.91-17.23,22.37-2.44,3.17-4.89,6.35-7.34,9.51-.16.21-.27.5-.6.57-.22-.16-.44-.33-.67-.5-6.74-5.19-13.48-10.39-20.22-15.59-.86-.67-1.73-1.33-2.6-1.99-.91-.7-1.94-1.13-3.06-1.32-1.74-.28-3.4,0-4.94.91-1.6.93-3.21,1.85-4.81,2.77-6.8,3.92-13.6,7.84-20.4,11.76-2.96,1.71-5.92,3.42-8.89,5.13-.61.35-1.18.75-1.68,1.26-1.14,1.15-1.82,2.52-2.11,4.12-2.03,11-4.08,22-6.12,33-.29,1.57-.58,3.14-.87,4.71-.29,1.54-.09,3.01.54,4.43.56,1.26,1.46,2.23,2.55,3.07,9.61,7.39,19.21,14.79,28.81,22.19,2.17,1.67,4.35,3.35,6.52,5.03.9.7,1.89,1.2,3,1.44,1.86.4,3.62.09,5.26-.86,1.7-.97,3.4-1.96,5.1-2.94,9.08-5.24,18.17-10.47,27.25-15.71.8-.46,1.6-.92,2.38-1.43,1.08-.7,1.87-1.68,2.46-2.82.4-.78.59-1.63.75-2.49,1.02-5.51,2.05-11.03,3.07-16.54l.17-.9c.06-.02.12-.03.17-.05.11.16.22.31.31.48.56.97,1.12,1.94,1.68,2.92,1.04,1.8,2.08,3.59,3.1,5.39.8,1.4,1.92,2.46,3.38,3.17.74.36,1.53.54,2.33.69,13.26,2.46,26.52,4.92,39.77,7.38.19.04.39.07.58.1,2.13.34,4.06-.14,5.79-1.42.71-.52,1.26-1.19,1.79-1.88,8.9-11.56,17.81-23.12,26.71-34.69.26-.33.52-.66.75-1.01.45-.68.8-1.41.99-2.21.46-1.92.18-3.73-.8-5.43Zm-65.14-42.37c.19.03.39.07.58.1,12.81,2.38,25.63,4.75,38.44,7.14.44.08.87.2,1.3.33,1.1.32,1.92,1.01,2.51,1.99.43.72.85,1.45,1.27,2.18,6.09,10.59,12.19,21.19,18.28,31.78.15.25.36.49.37.88-.21-.03-.37-.04-.53-.07-7.77-1.33-42.27-7.79-43.16-8.08-.04-.15-.09-.31-.13-.47-.16-.75-.45-1.44-.82-2.11-2.5-4.51-4.99-9.03-7.48-13.54-3.59-6.5-7.18-13-10.77-19.5-.09-.17-.17-.35-.24-.49.1-.22.25-.15.38-.13Zm-67.66,109.18c-.02.1-.08.19-.12.31-.58-.12-.99-.45-1.41-.77-1.95-1.5-3.9-3.01-5.85-4.51-9.71-7.49-19.42-14.97-29.13-22.46-.18-.14-.35-.27-.53-.42-1.32-1.08-1.88-2.47-1.66-4.17.04-.33.11-.66.17-.99,2.23-12.02,4.46-24.04,6.69-36.06l.21-1.14c.37.26.62.43.86.62,5.98,4.58,11.96,9.16,17.93,13.74,5.78,4.43,11.56,8.86,17.33,13.29.85.65,1.7,1.28,2.74,1.59.1.03.18.12.26.18-.03.68-7.08,38.99-7.5,40.8Zm7.18-44.28c-.26-.17-.5-.35-.75-.54-11.91-9.13-23.82-18.25-35.73-27.38-.22-.17-.43-.34-.76-.61.36-.22.61-.39.88-.55,5.93-3.42,11.85-6.83,17.78-10.25,5.08-2.93,10.15-5.85,15.23-8.78.32-.18.63-.37.95-.54,1.7-.92,3.33-.83,4.88.35,2.14,1.63,4.26,3.28,6.39,4.92,9.62,7.42,19.25,14.84,28.87,22.26.44.34.91.66,1.24,1.19-.16.11-.3.23-.46.32-7.81,4.53-15.62,9.06-23.42,13.59-3.37,1.96-6.74,3.91-10.11,5.87-.71.41-1.43.76-2.27.83-.99.08-1.89-.14-2.71-.69Zm32.93,20.89c-.08.44-.2.87-.34,1.3-.29.88-.84,1.58-1.59,2.11-.34.24-.7.46-1.07.67-8.18,4.72-16.37,9.43-24.55,14.15-2.91,1.68-5.83,3.36-8.75,5.03-.21.12-.44.23-.76.39-.01-.22-.03-.3-.02-.38,2.49-13.42,4.98-26.85,7.48-40.27.01-.08.07-.15.09-.21.04-.03.06-.05.08-.06,1.28-.26,2.41-.87,3.53-1.52,8.04-4.68,16.09-9.35,24.14-14.02,2.69-1.56,5.38-3.12,8.07-4.68.16-.09.34-.16.57-.26.02.17.05.28.04.38-.03.25-.08.5-.12.75-2.27,12.21-4.53,24.42-6.8,36.63Zm15.19-9.83c-.22.29-.45.57-.69.87-.3-.19-.42-.48-.57-.74-.94-1.62-1.88-3.25-2.82-4.88-1.23-2.14-2.45-4.28-3.7-6.41-.27-.46-.36-.89-.25-1.43.87-4.57,1.71-9.15,2.56-13.72.14-.77.27-1.54.22-2.34-.13-2.22-1.03-4.06-2.77-5.45-1.64-1.31-3.32-2.57-4.98-3.85-1.44-1.11-2.88-2.22-4.32-3.34-.24-.19-.48-.38-.74-.59.18-.26.34-.49.51-.71,8.1-10.52,16.2-21.03,24.3-31.55.43-.56.9-1.08,1.52-1.43.09-.05.2-.09.37-.17.7,1.27,1.37,2.47,2.03,3.68,4.83,8.76,9.66,17.52,14.5,26.28.91,1.64,1.81,3.29,2.72,4.93.32.57.52,1.18.58,1.83.1,1.05-.18,2-.78,2.85-.36.5-.74.98-1.11,1.47-8.86,11.56-17.71,23.12-26.57,34.68Zm74.91-27.7c-.19.31-.42.59-.64.88-8.92,11.59-17.84,23.17-26.76,34.75-.19.24-.37.5-.58.72-1.09,1.16-2.41,1.69-4.01,1.48-.31-.04-.61-.1-.91-.16-13.01-2.41-26.02-4.83-39.03-7.24-.33-.06-.65-.13-.96-.19-.07-.36.18-.51.32-.7,1.66-2.18,3.34-4.36,5.01-6.54,7.38-9.63,14.75-19.26,22.13-28.88.68-.89,1.31-1.82,1.66-2.9.02-.05.07-.08.15-.16.18.02.4.03.62.07,9.31,1.61,42.52,7.84,43.3,8.12.06.31-.16.53-.3.75Z"/><path class="cls-14" d="m241.36,499.7c1.58.28,3.12-.8,3.42-2.37.24-1.27-.42-3.01-2.34-3.43-1.57-.34-3.13.73-3.44,2.32-.32,1.63.74,3.21,2.36,3.49Z"/><path class="cls-14" d="m219.4,489.62c-1.63-.27-3.12.69-3.46,2.3-.32,1.57.6,3.16,2.35,3.48,1.72.32,3.13-.8,3.42-2.34.3-1.57-.67-3.07-2.32-3.45Z"/><path class="cls-14" d="m298.27,522.15c-1.59-.3-3.12.77-3.43,2.35-.32,1.65.88,3.2,2.36,3.42,1.48.32,3.14-.7,3.43-2.34.29-1.59-.77-3.14-2.36-3.43Z"/><path class="cls-14" d="m316.31,513.58c-1.91-.4-3.25.99-3.46,2.27-.37,1.51.64,3.13,2.24,3.47,1.7.36,3.22-.76,3.53-2.29.27-1.36-.43-3.06-2.31-3.45Z"/><path class="cls-14" d="m319.85,526.15c-1.39-.25-3.09.61-3.4,2.4-.32,1.86,1.08,3.23,2.39,3.39,1.59.28,3.15-.8,3.42-2.38.27-1.58-.83-3.12-2.41-3.41Z"/><path class="cls-14" d="m312.63,500.8c-1.62-.28-3.11.77-3.39,2.39-.28,1.59.82,3.15,2.39,3.41,1.6.26,3.13-.82,3.41-2.41.28-1.59-.8-3.11-2.41-3.39Z"/><path class="cls-14" d="m334.26,504.81c-1.62-.28-3.12.76-3.41,2.37-.28,1.47.59,3.09,2.37,3.41,1.76.31,3.14-.83,3.42-2.37.31-1.7-.87-3.14-2.38-3.41Z"/><path class="cls-14" d="m222.15,522.92c-1.56-.3-3.18.76-3.46,2.4-.28,1.61.87,3.18,2.38,3.38,1.22.31,3.06-.43,3.41-2.34.34-1.84-.97-3.17-2.33-3.44Z"/><path class="cls-14" d="m207.78,523.25c-1.58-.33-3.12.69-3.47,2.27-.28,1.27.34,3.08,2.33,3.5,1.57.33,3.13-.75,3.44-2.32.31-1.58-.71-3.12-2.3-3.45Z"/><path class="cls-14" d="m193.73,523.45c-1.59-.3-3.16.72-3.45,2.3-.34,1.91,1.01,3.24,2.38,3.48,1.56.27,3.11-.77,3.41-2.37.33-1.8-1.03-3.25-2.34-3.41Z"/><path class="cls-14" d="m282,489.34c-1.6-.29-3.18.76-3.43,2.34-.3,1.87.96,3.17,2.37,3.43,1.56.29,3.13-.74,3.43-2.36.34-1.84-1.09-3.27-2.36-3.41Z"/><path class="cls-14" d="m314.37,483.42c1.81.35,3.24-.96,3.44-2.3.32-1.32-.41-3.06-2.27-3.46-1.73-.37-3.2.77-3.5,2.34-.29,1.51.67,3.1,2.34,3.42Z"/><path class="cls-14" d="m326.58,473.79c1.56.32,3.14-.74,3.46-2.32.36-1.53-.73-3.14-2.3-3.45-1.57-.31-3.14.7-3.47,2.3-.32,1.57.74,3.15,2.32,3.47Z"/><path class="cls-14" d="m307.87,470.32c1.57.31,3.13-.77,3.46-2.34.3-1.47-.69-3.12-2.34-3.44-1.72-.33-3.22.9-3.44,2.32-.3,1.59.74,3.15,2.33,3.46Z"/><path class="cls-14" d="m333.17,486.9c1.53.3,3.1-.71,3.39-2.37.29-1.61-.74-3.12-2.35-3.41-1.62-.3-3.15.7-3.44,2.42-.29,1.7.88,3.13,2.41,3.37Z"/><path class="cls-14" d="m256.36,523.34c1.61.27,3.1-.78,3.39-2.38.29-1.59-.77-3.13-2.35-3.43-1.57-.29-3.13.77-3.44,2.34-.31,1.62.77,3.2,2.39,3.47Z"/><path class="cls-14" d="m239.42,542.25c-1.75-.34-3.19.88-3.46,2.4-.26,1.51.75,3.14,2.39,3.37,1.45.32,3.1-.63,3.41-2.34.29-1.56-.64-3.09-2.34-3.43Z"/><path class="cls-14" d="m242.3,526.48c-1.47-.27-3.11.7-3.41,2.39-.31,1.74.98,3.2,2.38,3.4,1.59.28,3.15-.79,3.43-2.37.28-1.57-.82-3.13-2.4-3.41Z"/><path class="cls-14" d="m254.47,533.32c-1.57-.29-3.15.78-3.44,2.34-.29,1.59.78,3.15,2.36,3.44,1.58.3,3.13-.78,3.43-2.37.33-1.48-.73-3.12-2.35-3.42Z"/><path class="cls-13" d="m687.85,180.24c40.43,47.57,68.32,105.39,79.82,167.86"/><path class="cls-13" d="m90.69,256.52c19.23-39.8,45.42-75.09,76.73-104.62"/><path class="cls-13" d="m178.82,684.66c-38.43-33.37-69.35-74.56-90.7-120.57"/><path class="cls-13" d="m503.47,761.24c-24.56,6.31-49.98,10.07-75.9,11.01"/><path class="cls-16" d="m123.18,595.9c-3.93-6.49-2.89-13.87,4.51-18.35,6.94-4.2,14.55-2,18.5,4.52s2.94,13.89-4.46,18.37c-6.94,4.2-14.61,1.99-18.56-4.53Zm18.48-11.19c-2.25-3.72-6.33-4.12-10.43-1.64-4.21,2.55-5.77,6.46-3.5,10.21,2.23,3.68,6.36,4.1,10.47,1.62,4.21-2.55,5.71-6.48,3.46-10.19Z"/><path class="cls-16" d="m139.06,618.81l-3.87-5.24,20.61-15.23s6.26,8.48,6.11,8.28c4.04,5.48,3.62,10.22-.37,13.17-2.77,2.05-5.95,2.15-9.05.16l-4.25,11.29-4.36-5.9,3.88-9.24-1.98-2.26-6.73,4.97Zm12.56-5.35c1.82,2.12,3.65,2.66,5.63,1.2,1.81-1.34,1.78-3.25-.17-5.89-.07-.1-1.63-2.21-1.63-2.21l-5.84,4.31,2.01,2.59Z"/><path class="cls-16" d="m158.67,643.42c-.08-.09-6.09-6.88-6.09-6.88l19.19-16.99s5.22,5.89,6.39,7.21c5.98,6.75,5.63,13.91-.08,18.96-5.89,5.22-13.18,4.72-19.41-2.31Zm15.31-13.51l-1.79-2.03-11.39,10.09,2.01,2.27c3.13,3.53,6.9,4.14,10.73.74,3.96-3.51,3.97-7.08.44-11.07Z"/><path class="cls-16" d="m173.76,659.73l17.66-18.57,13.58,12.91-3.62,3.8-8.94-8.5-3.39,3.56,7.19,6.84-3.59,3.77-7.19-6.84-3.45,3.62,8.94,8.5-3.62,3.8-13.58-12.91Z"/><path class="cls-16" d="m211.66,692.64l-5.05-4.06,1.94-5.43-7.42-5.96-4.85,3.1-5.05-4.06,23.14-14.28,6.36,5.11-9.08,25.58Zm2.69-24.24l-8.94,5.7,5.21,4.19,3.73-9.89Z"/><path class="cls-16" d="m216.73,696.13l14.37-21.21,5.4,3.66-11.31,16.7,8.89,6.03-3.06,4.51-14.29-9.68Z"/><path class="cls-16" d="m237.3,709.71l12.72-22.25,16.27,9.3-2.61,4.56-10.71-6.13-2.44,4.27,8.61,4.93-2.59,4.52-8.61-4.93-2.48,4.34,10.71,6.13-2.61,4.56-16.27-9.3Z"/><path class="cls-16" d="m266.44,725.39l-5.91-2.76,10.85-23.22s9.55,4.46,9.32,4.36c6.17,2.88,8.06,7.25,5.96,11.75-1.46,3.12-4.2,4.73-7.88,4.46l1.66,11.95-6.65-3.11-1-9.97-2.82-1.04-3.54,7.58Zm8.48-10.7c2.61.99,4.47.6,5.51-1.63.95-2.04.01-3.71-2.96-5.09-.11-.05-2.49-1.16-2.49-1.16l-3.07,6.57,3.01,1.31Z"/><path class="cls-16" d="m299.01,709.69c2.67,1.05,3.7,4.05,2.68,6.64-1.38,3.51-5.48,4.77-9.5,5.26l-1.7-3.31c2.67-.63,4.89-1.25,5.39-2.51.4-1.03-.1-2.11-2.3-4.25,1.04-1.97,3.25-2.69,5.43-1.84Z"/><path class="cls-16" d="m313.73,736.32c.53-1.64-1.05-2.75-3.99-4.7-3.23-2.13-6.99-5.16-5.41-10.03,1.47-4.52,5.76-6.45,11.8-4.49,3.82,1.24,6.51,3.06,8.43,5.11l-2.87,4.72c-2-2.07-4.76-3.92-7.18-4.7-2.14-.7-3.44-.3-3.87,1.03-.52,1.6,1.5,2.94,4.16,4.71,3.41,2.23,6.76,5.21,5.25,9.85-1.51,4.64-6.16,6.75-12.55,4.68-3.63-1.18-6.83-3.25-8.68-5.27l2.84-4.77c2,2.07,4.61,3.99,7.61,4.97,2.18.71,3.97.38,4.45-1.1Z"/><path class="cls-16" d="m404.29,739.83c-1.86-1.26-4.07-2.08-6.36-2.21-4.42-.25-7.46,2.57-7.74,7.4-.28,4.87,2.25,8.1,6.87,8.36,2.5.14,4.88-.54,6.87-1.7l1.02,5.85c-2.07.99-5.51,1.53-8.5,1.36-8.19-.47-13.32-5.49-12.83-14.08.48-8.27,6.14-13.2,14.57-12.72,3.11.18,6.1,1.13,8.36,2.41l-2.28,5.33Z"/><path class="cls-16" d="m429.43,758.32l-.34-10.16-10.29.34.34,10.16-6.52.22-.85-25.61,6.52-.22.33,9.96,10.29-.34-.33-9.96,6.52-.22.85,25.61-6.52.22Z"/><path class="cls-16" d="m457.24,756.39c-7.52,1-13.87-2.92-15.01-11.5-1.07-8.05,4-14.14,11.56-15.14,7.56-1,13.91,2.87,15.04,11.45,1.07,8.05-4.04,14.18-11.6,15.19Zm-2.84-21.42c-4.31.57-6.32,4.15-5.69,8.9.65,4.88,3.61,7.88,7.96,7.3,4.27-.57,6.31-4.19,5.68-8.94-.65-4.88-3.64-7.83-7.95-7.26Z"/><path class="cls-16" d="m477.93,752.37l-5.2-25.1,6.38-1.32,5.2,25.1-6.38,1.32Z"/><path class="cls-16" d="m506.24,725.96c-2.16-.59-4.52-.67-6.74-.06-4.27,1.18-6.24,4.82-4.96,9.49,1.3,4.7,4.72,6.95,9.19,5.72,2.41-.66,4.45-2.07,5.97-3.81l2.84,5.21c-1.64,1.6-4.73,3.22-7.61,4.01-7.91,2.18-14.38-.93-16.66-9.23-2.2-7.98,1.59-14.47,9.73-16.71,3-.83,6.14-.88,8.69-.39l-.45,5.78Z"/><path class="cls-16" d="m520.07,741.3l-8.8-24.07,17.6-6.44,1.8,4.93-11.59,4.24,1.69,4.62,9.32-3.41,1.79,4.89-9.32,3.41,1.72,4.7,11.59-4.24,1.8,4.93-17.6,6.44Z"/><polygon class="cls-15" points="363.44 427.26 363.44 429.74 365.55 430.96 464.56 400.48 464.56 399.31 363.44 427.26"/><polygon class="cls-15" points="363.44 401.74 411.83 429.78 416.06 427.31 363.44 399.31 363.44 401.74"/><polygon class="cls-14" points="464.56 429.74 464.56 429.74 464.56 429.74 464.56 429.74 464.56 399.31 463.31 400.03 464.56 399.31 438.21 384.1 414 398.07 411.94 399.36 411.94 427.31 411.94 427.31 411.94 427.31 389.79 440.09 367.65 427.31 367.65 401.74 364.9 400.16 367.65 401.74 389.79 388.96 402.44 396.26 403.68 396.98 403.68 392.11 402.44 391.39 389.79 384.1 363.44 399.31 363.44 399.31 363.44 429.74 389.79 444.96 389.79 444.96 389.79 444.96 389.79 444.96 389.79 444.96 414 430.98 414 430.98 414 430.98 416.06 429.79 416.06 401.74 416.06 401.74 416.06 401.74 438.21 388.96 460.35 401.74 460.35 427.31 438.58 439.88 426.31 432.79 425.07 432.08 425.07 436.94 426.32 437.66 438.21 444.52 438.21 444.96 438.58 444.74 438.96 444.96 438.96 444.52 464.56 429.74 464.56 429.74"/></svg>