<?xml version="1.0" encoding="UTF-8"?><svg id="Layer_1" xmlns="http://www.w3.org/2000/svg" viewBox="0 0 365.81 220.18"><defs><style>.cls-1{fill:#da7d63;}.cls-1,.cls-2{stroke-width:0px;}.cls-2{fill:#ffd19d;}</style></defs><polygon class="cls-2" points="0 156.15 0 165.13 7.62 169.53 365.81 59.28 365.81 55.04 0 156.15"/><polygon class="cls-2" points="0 63.84 175.07 165.28 190.37 156.33 0 55.04 0 63.84"/><polygon class="cls-1" points="365.81 165.13 365.81 165.13 365.81 165.13 365.81 165.13 365.81 55.04 361.27 57.66 365.81 55.04 270.47 0 182.9 50.55 175.44 55.22 175.44 156.33 175.44 156.33 175.44 156.33 95.34 202.58 15.24 156.33 15.24 63.84 5.3 58.1 15.25 63.84 95.34 17.6 141.1 44.02 145.58 46.6 145.58 29.01 141.07 26.4 95.34 0 0 55.04 0 55.04 0 165.13 95.34 220.18 95.34 220.18 95.34 220.18 95.34 220.18 95.34 220.18 182.9 169.62 182.9 169.62 182.9 169.62 190.37 165.31 190.37 63.84 190.37 63.84 190.37 63.84 270.47 17.6 350.56 63.84 350.56 156.33 271.83 201.79 227.43 176.16 222.95 173.57 222.95 191.17 227.46 193.77 270.47 218.6 270.47 220.18 271.83 219.39 273.19 220.18 273.19 218.6 365.81 165.13 365.81 165.13"/></svg>