<?xml version="1.0" encoding="UTF-8"?><svg id="Layer_1" xmlns="http://www.w3.org/2000/svg" viewBox="0 0 2231 338"><defs><style>.cls-1{fill:#da7d63;}.cls-1,.cls-2{stroke-width:0px;}.cls-2{fill:#ffd19d;}</style></defs><polygon class="cls-2" points="91.24 215.06 91.24 224.04 98.86 228.44 457.05 118.19 457.05 113.95 91.24 215.06"/><polygon class="cls-2" points="91.24 122.76 266.31 224.19 281.61 215.24 91.24 113.95 91.24 122.76"/><polygon class="cls-1" points="457.05 224.04 457.05 224.04 457.05 224.04 457.05 224.04 457.05 113.95 452.51 116.57 457.05 113.95 361.71 58.91 274.14 109.47 266.68 114.14 266.68 215.24 266.68 215.24 266.68 215.24 186.58 261.49 106.48 215.24 106.48 122.76 96.54 117.01 106.48 122.76 186.58 76.51 232.34 102.93 236.82 105.52 236.82 87.92 232.31 85.32 186.58 58.91 91.24 113.95 91.24 113.95 91.24 224.04 186.58 279.09 186.58 279.09 186.58 279.09 186.58 279.09 186.58 279.09 274.14 228.53 274.14 228.53 274.14 228.53 281.61 224.22 281.61 122.76 281.61 122.76 281.61 122.76 361.71 76.51 441.8 122.76 441.8 215.24 363.07 260.7 318.67 235.07 314.19 232.48 314.19 250.08 318.69 252.68 361.71 277.52 361.71 279.09 363.07 278.3 364.43 279.09 364.43 277.52 457.04 224.04 457.05 224.04"/><path class="cls-2" d="m547.4,110.78c26.77,0,40.48,14.65,40.48,14.65l-7.72,11.65s-12.92-12.13-32.13-12.13c-24.88,0-41.1,18.9-41.1,42.52s16.54,43.94,41.26,43.94c20.94,0,34.33-14.49,34.33-14.49l8.35,11.18s-15.28,17.64-43.15,17.64c-33.39,0-56.85-25.51-56.85-58.11s24.26-56.85,56.54-56.85"/><path class="cls-2" d="m652.49,166.06c12.13,0,19.69-7.72,19.69-20.16,0-8.19-3.15-14.02-8.82-17.17-3-1.58-6.62-2.52-15.28-2.52h-17.96v39.85h22.37Zm-37.96-53.39h34.02c11.66,0,16.54.95,20.79,2.52,11.34,4.25,18.74,15.43,18.74,30.08s-7.88,26.14-20,30.08v.32s1.26,1.42,3.31,5.04l23.62,43.15h-17.64l-23.47-44.25h-23.78v44.25h-15.59v-111.19Z"/><path class="cls-2" d="m852.99,199.29s11.81,11.97,28.35,11.97c10.39,0,19.21-5.83,19.21-16.38,0-24.1-53.86-18.9-53.86-53.08,0-17.32,14.96-31.03,35.91-31.03s31.5,11.18,31.5,11.18l-7.08,12.92s-10.24-9.61-24.41-9.61c-11.81,0-20.16,7.4-20.16,16.22,0,22.99,53.86,16.85,53.86,52.92,0,17.17-13.23,31.34-35.28,31.34-23.63,0-36.86-14.65-36.86-14.65l8.82-11.81Z"/><path class="cls-2" d="m945.28,199.29s11.81,11.97,28.35,11.97c10.39,0,19.21-5.83,19.21-16.38,0-24.1-53.86-18.9-53.86-53.08,0-17.32,14.96-31.03,35.91-31.03s31.5,11.18,31.5,11.18l-7.08,12.92s-10.24-9.61-24.41-9.61c-11.82,0-20.16,7.4-20.16,16.22,0,22.99,53.86,16.85,53.86,52.92,0,17.17-13.23,31.34-35.28,31.34-23.63,0-36.86-14.65-36.86-14.65l8.82-11.81Z"/><rect class="cls-2" x="1037.26" y="112.67" width="15.59" height="111.19"/><path class="cls-2" d="m1089.39,112.67h15.43l49.45,72.29c4.1,5.99,9.29,16.07,9.29,16.07h.31s-1.1-9.92-1.1-16.07v-72.29h15.59v111.19h-15.28l-49.61-72.13c-4.1-6.14-9.29-16.22-9.29-16.22h-.31s1.1,9.92,1.1,16.22v72.13h-15.59v-111.19Z"/><path class="cls-2" d="m1257.91,110.78c26.62,0,40.48,13.39,40.48,13.39l-7.88,11.65s-12.44-10.87-31.34-10.87c-26.14,0-41.89,19.06-41.89,42.84,0,25.83,17.64,43.62,40.95,43.62,19.21,0,31.5-13.86,31.5-13.86v-16.07h-18.11v-13.54h32.29v55.91h-13.7v-6.93c0-2.36.16-4.72.16-4.72h-.32s-12.13,13.54-34.18,13.54c-29.92,0-54.65-23.62-54.65-57.64,0-32.13,24.25-57.33,56.7-57.33"/><path class="cls-2" d="m1335.72,199.29s11.81,11.97,28.35,11.97c10.39,0,19.21-5.83,19.21-16.38,0-24.1-53.86-18.9-53.86-53.08,0-17.32,14.96-31.03,35.91-31.03s31.5,11.18,31.5,11.18l-7.08,12.92s-10.24-9.61-24.41-9.61c-11.82,0-20.16,7.4-20.16,16.22,0,22.99,53.86,16.85,53.86,52.92,0,17.17-13.23,31.34-35.28,31.34-23.63,0-36.86-14.65-36.86-14.65l8.82-11.81Z"/><path class="cls-1" d="m1476.68,110.78c26.77,0,40.48,14.65,40.48,14.65l-7.72,11.65s-12.92-12.13-32.13-12.13c-24.88,0-41.1,18.9-41.1,42.52s16.54,43.94,41.26,43.94c20.94,0,34.33-14.49,34.33-14.49l8.35,11.18s-15.28,17.64-43.15,17.64c-33.39,0-56.85-25.51-56.85-58.11s24.25-56.85,56.54-56.85"/><path class="cls-1" d="m1591.02,211.42c22.68,0,40.95-18.9,40.95-43.94s-18.27-42.52-40.95-42.52-41.1,18.27-41.1,42.52,18.43,43.94,41.1,43.94m0-100.64c32.13,0,57.01,24.73,57.01,56.7s-24.88,58.27-57.01,58.27-57.17-25.51-57.17-58.27,25.04-56.7,57.17-56.7"/><path class="cls-1" d="m1666.78,112.67h15.44l49.45,72.29c4.1,5.99,9.29,16.07,9.29,16.07h.31s-1.11-9.92-1.11-16.07v-72.29h15.59v111.19h-15.28l-49.61-72.13c-4.1-6.14-9.29-16.22-9.29-16.22h-.32s1.1,9.92,1.1,16.22v72.13h-15.59v-111.19Z"/><path class="cls-2" d="m768.22,229.94l-53.23-30.73v-61.47l53.23-30.74,53.23,30.74v61.47l-53.23,30.73Zm-37.78-39.66l37.78,21.81,37.78-21.81v-43.62l-37.78-21.81-37.78,21.81v43.62Z"/><path class="cls-2" d="m1828.69,224.37l-.52-16.26c32.18-30.63,48.79-42.91,48.79-59.7,0-9.86-7.09-16.61-17.3-16.61-9,0-17.82,4.67-24.74,10.73l-6.57-15.75c7.96-6.58,20.59-12.29,33.91-12.29,21.8,0,35.13,13.32,35.13,31.84,0,19.55-16.09,33.57-47.07,60.91-.69,0,49.49,0,49.49,0l.69,17.13h-71.81Z"/><path class="cls-2" d="m1950.85,226.97c-24.22,0-37.55-20.76-37.55-56.24s14.19-56.41,38.41-56.41,37.72,20.94,37.72,56.06-14.19,56.58-38.59,56.58Zm.17-96.9c-10.55,0-18.86,10.38-18.86,40.66s8.83,40.14,19.55,40.14,18.69-10.55,18.69-39.8-8.65-41.01-19.38-41.01Z"/><path class="cls-2" d="m2001.72,224.37l-.52-16.26c32.18-30.63,48.79-42.91,48.79-59.7,0-9.86-7.09-16.61-17.3-16.61-9,0-17.82,4.67-24.74,10.73l-6.57-15.75c7.96-6.58,20.59-12.29,33.91-12.29,21.8,0,35.13,13.32,35.13,31.84,0,19.55-16.09,33.57-47.07,60.91-.69,0,49.49,0,49.49,0l.69,17.13h-71.81Z"/><path class="cls-2" d="m2121.45,158.97c22.67,0,37.55,12.11,37.55,31.84,0,21.11-14.88,36.16-39.8,36.16-10.55,0-23.01-2.77-30.8-6.92l2.42-17.48c6.75,4.15,17.99,7.61,27.86,7.61,12.11,0,20.94-6.4,20.94-18.69,0-10.73-8.31-17.65-22.67-17.65-9.52,0-17.82,2.08-22.84,4.33l-3.11-3.29,7.27-58.14h58.48l.52,17.47h-43.6l-3.29,25.78c2.6-.52,6.4-1.04,11.07-1.04Z"/></svg>