<?xml version="1.0" encoding="UTF-8"?><svg id="Layer_1" xmlns="http://www.w3.org/2000/svg" viewBox="0 0 1443.89 248.37"><defs><style>.cls-1{fill:#5f445b;stroke-width:0px;}</style></defs><path class="cls-1" d="m1443.36,244.22c-2.81-6.11-7.66-9.31-14.34-9.49-5.87-.16-11.75-.01-17.62-.07-1.39-.01-2.78-.31-4.54-.52-.18-2.14-.46-3.98-.46-5.82-.01-8.58.03-17.17.1-25.75.01-1.67.17-3.35.38-5,.6-4.81-.76-9.02-3.71-12.78-2.71-.74-.69-3.36-2.14-5.02-5.71-.67-11.79.23-17.76-.51-.53-1-1.2-1.7-1.25-2.45-.25-4.03-3.65-7.05-3.5-11.17-1.6-1.72-2.55-3.58-2.48-6.09.37-12.12-1.79-24.2-.49-36.34.04-.4-.02-.85-.17-1.23-1.33-3.47-.67-7.04-.65-10.59,0-1.21-.06-2.56-.57-3.62-2.44-5.11-2.55-10.9-4.95-16.07-.92-1.99-.82-4.34-2.85-5.97-.76-.61-.61-2.29-.98-3.45-.59-1.87-.33-4.2-2.22-5.06-3.16,2.23-1.55,4.89-.81,7.68-2.44,1.88-3.95,4.25-3.75,7.44.04.57-.32,1.22-.64,1.74-1.43,2.39-2,4.99-2.32,7.75-.21,1.83-.77,3.74-1.68,5.33-.91,1.6-.9,3.11-.9,4.8,0,3.12.03,6.28-.38,9.36-.45,3.36,1.02,6.58.4,9.91-.15.82-.19,1.66-.26,2.5-.2,2.5-.48,5-.57,7.5-.22,6.29-.31,12.58-.53,18.87-.04,1.22-.08,3.07-.8,3.5-2.35,1.43-1.22,3.83-2.08,5.62-.9,1.86-1.75,3.76-2.45,5.7-.56,1.57-.74,3.29-2.41,4.36-5.83.94-11.94-.56-17.57.8-.29,1.62-.08,3.21-.77,3.87-4.36,4.15-5.13,9.22-4.53,14.85.29,2.7.18,5.44.22,8.17.05,3.76.11,7.51.1,11.27-.01,4.61-.05,9.22-.2,13.83-.02.73-.52,1.77-1.1,2.07-.8.4-1.88.22-2.99.3-.16-1.13-.38-1.94-.38-2.76-.03-14.47,0-28.95-.05-43.42,0-1.95.32-3.72,1.45-5.34.32-.46.35-1.12.34-1.08-.93-1.9-1.62-3.3-2.14-4.36-8.88-2.66-16.86-6.83-24.96-9.99-1.03-2.03-1.91-3.76-2.99-5.87-.98,2.22-1.73,3.92-2.56,5.81-5.49,2.31-11.07,4.66-16.67,7-1.93.81-3.88,2.16-5.82,2.17-2.26.02-2.94,1.58-4.67,3.11,0-3.19,0-5.89,0-8.58,0-29.36.02-58.73-.03-88.09,0-2.23.61-4.6-.86-6.91-4.88-.76-9.94.28-14.97-.72-1.39-4.61.4-9.35-1.32-14.04-10.21,1.48-20.31,2.72-30.12,4.86-.33,1.7-.56,2.9-.8,4.13-1.52.74-2.96,1.44-4.56,2.22v7.07c0,37.13.02,74.25-.02,111.38,0,5.4-.3,10.8-.47,16.51h-4.03c-.16-6.53-.3-12.76-.46-19.38-3.11,1.17-5.74,2.16-8.5,3.2-.33,4.57-.65,9.1-1.01,14.04-2.65-.44-4.92-.66-7.11-1.2-7.02-1.72-13.98-3.58-21.21-4.49-9.32-1.17-18.53-3.12-27.79-4.71-18.75-3.22-37.55-6.05-56.43-8.39-1.21-.15-2.38-.64-3.42-.93-1.06-2.22-.68-4.35-.69-6.42-.04-11.52-.05-23.04-.03-34.57,0-4.36-.41-8.74,1.12-13.05-1.99-1.55-3.81-2.08-5.97-1.11-.13,1.07-.24,2.06-.37,3.12-2.31,1.02-4.58,2.08-6.9,3.02-.73.3-1.65.53-2.37.35-1.37-.33-2.65-1.58-4.1-.55-2.02,1.43.37,3.01.03,4.6-.3,1.41-.09,2.92-.15,4.39-.42,11.11-.84,22.21-1.29,33.32-.05,1.22-.3,2.42-.49,3.9-1.66.13-3.1.44-4.49.31-5.42-.52-10.83-1.14-16.23-1.81-1.6-.2-3.17-.68-4.86-1.05-.11-1.05-.27-1.87-.28-2.68-.02-10.49-.02-20.97-.01-31.46,0-.83-.15-1.81.23-2.46.39-.66,1.33-.99,2.02-1.45-1.73-.21-2.28-1.23-2.25-2.97.13-9.36.73-18.72-.22-28.07-.06-.59-.36-1.16-.51-1.62-1.31-.4-2.47-.76-3.56-1.1-.19-1.94-.34-3.56-.51-5.29-2.67-.23-5.1-.43-7.68-.65-.2-2.2-.37-4.03-.53-5.76-8.72-3.25-6.22-3.98-15.61.19-.14,1.71-.3,3.53-.47,5.63-2.79.21-5.22.39-7.77.59-.33,2.08-.62,3.85-.87,5.45-1.34.43-2.31.74-3.3,1.05-.62,4.82-.95,9.5-1.76,14.3-6.79-.11-13.24.38-19.79-.36-.54-4.75-1.06-9.24-1.58-13.76-1.22-.5-2.33-.95-3.52-1.43-.2-1.71-.39-3.32-.61-5.22-1.41-.11-2.63-.19-3.85-.31-1.21-.11-2.42-.26-3.92-.42-.24-2.04-.45-3.85-.65-5.56-7.82-3.47-6.57-4.06-15.32.08-.2,1.75-.41,3.56-.63,5.5-2.75.3-5.19.56-7.69.83-.2,1.91-.37,3.55-.54,5.15-1.3.45-2.46.84-3.53,1.21-.75,5.97-1.5,11.74-1.15,17.59.16,2.72.4,5.44.4,8.16-.04,27.26-.11,54.53-.21,81.79,0,1.19-.38,2.38-.55,3.43-1.76.45-3.17.74-4.75-.72-.04-2.18-.14-4.66-.14-7.15,0-53.49,0-106.97-.01-160.46,0-2.31-.04-4.61-.11-6.92-.01-.39-.26-.77-.42-1.23-.99-.52-2.03-1.07-3.33-1.76,0-2.16.04-4.25,0-6.33-.17-8.39-.34-16.77-.59-25.16-.04-1.39-.44-2.77-.69-4.22-1.32-.28-2.33-.69-3.34-.69-10.05-.05-20.11-.07-30.16,0-1.2,0-2.39.58-3.97,1-.37,11.95-.27,23.87-.96,35.48-1.46.82-2.49,1.41-3.7,2.09,0,2.62,0,5.13,0,7.63,0,46.14,0,92.29,0,138.43,0,2.31.04,4.62-.04,6.92-.04.99-.33,1.98-.49,2.9-3.27.14-3.58-.02-3.68-2.03-.08-1.67-.05-3.35-.05-5.03,0-19.72,0-39.43,0-59.15,0-3.99.03-7.97-.03-11.96-.02-1.02.01-2.64-.56-2.96-2.94-1.65-1.93-4.35-2.14-6.73-.11-1.23-.16-2.47-.24-3.87-1.25-.52-2.37-.99-3.49-1.45-.49-1.34-.97-2.68-1.57-4.32-2.21,0-4.29,0-6.37,0-6.71,0-13.42.03-20.14-.04-1.17-.01-2.33-.43-3.4-.64-1.69-7.73.93-15.33-1.22-22.85-7.65-1.08-15.22.39-22.84-.94-.11-2.06-.14-3.89-.38-5.7-.05-.38-.85-.76-1.37-.94-.19-.06-.79.44-.85.75-.39,1.97-.68,3.97-1.01,6.03-7.83,1.12-15.4-.38-23.19,1.02-.48,4.13-.26,8.09-.26,12.02-.01,28.51,0,57.02,0,85.53,0,1.61-.24,3.21-.39,5.04h-5.85c-.97-2.48-.64-4.8-.65-7.06-.02-26.43.05-52.86-.06-79.28-.03-6.88-.58-13.75-.88-20.45-2.72-1.9-4.28-3.96-3.82-7.08.37-2.48-.48-4.42-2.54-6.03-.85-.67-1.46-2.09-1.55-3.22-.15-2.01-.71-3.63-2.2-5.01-.56-.52-1.08-1.45-1.04-2.16.15-2.73-.93-4.67-2.82-6.63-1.18-1.23-1.62-3.36-1.97-5.16-.36-1.83-.23-3.76-.27-5.64-.13-7.33-.22-14.66-.39-21.99-.03-1.12.15-2.6-1.88-2.68-.11.81-.3,1.62-.32,2.44-.21,7.5-.36,15.01-.6,22.51-.07,2.28-.17,4.58-.57,6.81-.25,1.38-.73,3.1-1.72,3.89-2.31,1.83-2.38,4.2-2.69,6.73-.3,2.46-3.8,3.45-3.2,6.53.3,1.56-.48,2.87-1.78,3.78-.86.61-1.8,1.12-1.9,1.19-.22,1.79-.38,2.41-.37,3.04.06,2.97.07,5.84-2.72,7.91-.68.5-.88,1.83-1.04,2.81-.96,6.01-1.02,12.07-.98,18.14.07,9.86.02,19.72.02,29.57,0,27.48.02,54.95-.03,82.43,0,2.25.54,4.61-.71,6.85h-3.51c-1.28-2.17-.8-4.31-.8-6.36-.11-41.32-.16-82.63-.31-123.95-.02-4.58-.54-9.16-.97-13.73-.09-.97-.52-2.16-1.22-2.78-2.68-2.37-2.93-5.38-2.78-8.6.05-1.02-.12-2.06-.2-3.17-2-1.67-3.81-3.43-5.87-4.85-3.05-2.11-5.22-4.74-6.31-8.32-.27-.87-1.01-1.6-1.75-2.72-.61,1.25-1.1,1.96-1.31,2.75-.98,3.64-3.32,6.17-6.31,8.31-2.02,1.45-3.85,3.17-5.65,4.68-.09,1.12-.27,1.96-.21,2.78.25,3.46-.14,6.61-2.95,9.16-.82.74-1.25,2.19-1.38,3.37-.36,3.33-.63,6.68-.64,10.02-.18,33.13-.3,66.27-.43,99.4,0,2.1.04,4.2-.04,6.29-.04,1.02-.29,2.03-.42,2.96-1.99,1.03-3.73,1.1-5.87-.22-.06-2.09-.17-4.37-.17-6.64-.02-14.05,0-28.11-.01-42.16,0-1.68.1-3.37-.12-5.02-.12-.93-.63-1.96-1.29-2.63-2.12-2.14-3.19-4.63-3.18-7.62,0-3.57.05-7.13-.03-10.7-.03-1.39-.37-2.78-.54-3.97-4.51-.65-8.6-1.25-12.25-1.78-2.2-1.81-2.59-3.79-2.56-5.98.05-3.57.06-7.13-.03-10.7-.04-1.41-.39-2.82-.67-4.65-2.95,0-5.66-.07-8.35.02-2.87.09-5.81-.42-8.98.54-.1,2.22-.24,4.26-.27,6.32-.05,3.36.09,6.72-.08,10.07-.15,2.93-1.19,3.98-4.16,4.53-3.44.63-6.9,1.12-10.68,1.72-.1,1.27-.26,2.48-.27,3.7-.04,3.36-.04,6.71-.01,10.07.03,3.44-.9,6.4-3.81,8.57-.55.41-.88,1.36-.95,2.09-.15,1.67-.09,3.35-.09,5.03,0,23.49.02,46.98-.03,70.48,0,2.24.57,4.6-.83,7.07-.91-.25-2.34-.23-2.64-.81-.7-1.36-1.76-2.63-1.07-4.61.57-1.65.14-3.65.11-5.5-.01-.77-.42-1.66-.16-2.29.84-2.06.9-4.09.11-6.11-.91-2.31,1.32-4.34.47-6.62-.14-.39-.05-.89-.26-1.22-.75-1.19-.41-2.23-.04-3.49.4-1.35.48-2.98.1-4.32-.4-1.44-.6-2.59-.14-4.12.45-1.5.02-3.27-.06-4.91-.04-.77-.41-1.64-.18-2.29.75-2.07.89-4.09.08-6.12-.92-2.31,1.4-4.38.46-6.61-1.57-3.73,1.45-7.79-.93-11.42,1.08-1.69,1.51-3.73.82-5.4-.89-2.15.07-3.97.08-5.94.02-1.82-1.26-3.99-.62-5.39,1.86-4.07-.91-8.14.59-12.16.43-1.15-1.07-2.98-.69-4.18,1.58-4.96.52-9.99.78-14.97.13-2.46-.09-4.95-.17-7.7-2.17-.23-3.94-.43-5.98-.65-.58-3.81-.37-7.36-.28-10.87.06-2.47-.66-4.43-2.21-6.31-4.8-5.83-9.48-11.75-14.25-17.6-.75-.92-1.72-1.67-2.83-2.73-5.35,6.63-10.36,13.08-15.66,19.29-2.08,2.43-2.86,4.9-2.76,8.01.11,3.3.38,6.65-.38,10.13-2.03.25-3.82.47-5.37.67-.36.76-.67,1.13-.68,1.5-.1,3.14-.21,6.28-.2,9.43.01,3.35-.28,6.78.36,10.03.62,3.13-1.35,6.15.15,9.2.31.63-.07,1.58-.1,2.39-.07,1.66-.3,3.33-.13,4.97.38,3.67-.78,7.38.42,11.01-1.15,2.46-.05,4.89-.06,7.3-.02,2.66-.92,5.29.02,8.02.23.66-.34,1.56-.39,2.36-.08,1.45-.33,2.99.04,4.34.41,1.5.28,2.79-.05,4.24-.27,1.19-.31,2.54-.04,3.73.88,3.88-.37,7.72.17,11.66.55,4.01-.75,8.28-.16,12.28.57,3.91-1.09,7.77.37,11.65.51,1.37-1.1,2.25-3.6,1.97-.05-2.24-.14-4.52-.14-6.8,0-35.87,0-71.73-.04-107.6,0-2.22.68-4.61-.87-6.69-2.5-.21-4.93-.42-7.67-.65-.09-2.42-.22-4.48-.23-6.54-.02-9.86.02-19.72-.04-29.57,0-1.42-.1-3.01-.75-4.18-.49-.87-1.95-1.19-3.1-1.82,0-6.03.04-11.89-.03-17.75-.02-1.41-.1-3-.76-4.17-.5-.89-1.96-1.24-3.13-1.92,0-5.36.02-10.59-.02-15.82,0-1.02-.09-2.09-.41-3.05-.15-.44-.96-.9-1.47-.91-.49,0-1.37.5-1.43.89-.25,1.64-.33,3.32-.35,4.98-.08,4.79-.1,9.58-.15,14.37-2.71.61-3.96,1.85-3.9,4.41.12,4.82.07,9.65,0,14.47-.03,2.38.78,5.26-2.89,5.89-.36,1.37-1.02,2.74-1.03,4.12-.09,9.86-.04,19.72-.07,29.57,0,2.27-.12,4.54-.18,6.49-2.82,1.87-5.93-.17-8.62,2.21v7.2c0,23.7,0,47.4,0,71.1,0,.63.07,1.27-.03,1.88-.11.67.41,1.79-1.33,1.76,0-3.35,0-6.69,0-10.03,0-3.36.06-6.71-.01-10.07-.08-3.28.43-6.63-.54-9.85-1.94-.36-3.52-.66-5.31-1-.49-6.1-.15-11.95-.26-17.78-.11-5.83.25-11.69-.27-17.69-2.82-.27-5.22-.51-8.07-.78.64-1.76,1.1-3.04,1.81-4.99-1.01-1.02-2.16-2.18-3.54-3.58-1.83,1.77-3.14,3.04-4.19,4.06.5,1.74.88,3.04,1.34,4.63-2.73.21-4.98.38-7.6.57-.1,2.01-.28,3.85-.28,5.7-.03,8.6,0,17.2-.04,25.8,0,1.41-.28,2.83-.42,4.15-2.08.42-3.83.77-5.81,1.17,0,2.45,0,4.53,0,6.61,0,7.34.03,14.68-.03,22.02-.01,1.39-.41,2.77-.61,4.05-1.99.33-3.59.59-5.41.9-.09,2.16-.21,4.01-.23,5.87-.05,5.24-.04,10.49-.1,15.73,0,.6-.3,1.19-.45,1.76-1.45.42-2.82.81-4.59,1.32-.05,4.02-.12,7.97-.15,11.92-.02,3.78.13,7.56-.02,11.32-.16,3.92.67,7.91-.58,11.68-1.25.37-2.47.62-2.74-.74-.32-1.62-.29-3.32-.3-4.99-.05-9.23-.05-18.46-.11-27.68,0-.56-.4-1.12-.62-1.69-1.45-.44-2.8-.84-4.54-1.37,0-2.15,0-4.23,0-6.3-.02-5.03-.04-10.07-.11-15.1,0-.59-.36-1.17-.54-1.7-1.86-.44-3.62-.86-5.64-1.34,0-2.38,0-4.46,0-6.55,0-7.55.02-15.1-.04-22.65,0-1.17-.4-2.34-.6-3.39-1.95-.31-3.54-.57-5.41-.87-.07-2.28-.19-4.34-.2-6.41-.02-8.39.02-16.78-.04-25.17,0-1.36-.41-2.72-.63-4.04-2.65-.24-4.89-.45-7.65-.7.65-1.69,1.14-2.96,1.75-4.55-1.24-1.12-2.57-2.32-4.12-3.71-1.51,1.35-2.74,2.45-3.73,3.34.75,1.98,1.22,3.24,1.86,4.92-2.94.29-5.36.54-8.15.82-.09,2.29-.23,4.34-.24,6.4-.04,9.02-.02,18.04-.07,27.06,0,.79-.38,1.57-.56,2.27-1.82.24-3.43.45-5.27.69-.1,2.45-.24,4.51-.24,6.58-.03,7.55.01,15.1-.05,22.65,0,1.07-.43,2.14-.66,3.22-1.52-6.06-1.04-12.1-1.12-18.11-.09-6.08-.02-12.17-.02-18.25,0-6.08,0-12.17,0-18.25v-18.56c-1.68.22-2.94.19-4.06.57-3.56,1.22-7.06,2.65-10.62,3.87-1.07.37-2.3.3-3.89.48v-24.92c0-7.97.03-15.94,0-23.91-.04-8.15.19-16.32-.17-24.55-6.02-3.25-11.35-7.22-17.96-9.77-.81,2.7-.51,4.99-.52,7.22-.03,22.02,0,44.05-.04,66.07,0,2.24.46,4.59-.83,6.95-1.25.07-2.48.22-3.7.19-.79-.02-1.58-.29-2.65-.5-.16-1.8-.16-3.45-.48-5.03-.24-1.15-.73-2.34-1.4-3.31-3.71-5.33-7.49-10.61-11.28-15.89-.69-.96-1.52-1.82-2.56-3.05-5.78,6.69-9.49,14.3-15.09,20.2-.27,2.5-.5,4.74-.76,7.13-2.53.59-4.68.86-6.82-.2-.95-3.08-.43-6.03-.52-8.94-.09-2.72-.02-5.45-.02-8.18,0-2.94-.22-5.89.06-8.8.27-2.76-2.24-5.17-.54-7.81-2.04-1.32-4.46.07-6.01-1.4-1.27-2.94.31-6.06-1.25-8.78-.67-.14-1.27-.38-1.87-.38-11.75-.03-23.49.07-35.24-.13-2.17-.04-2.69,1.51-3.88,2.43q-7.55-2.61-11.98-1.32c-1.15,1.88-.66,4.03-.68,6.08-.05,8.81,0,17.62-.05,26.43,0,1.61-.32,3.22-.51,5.05-4.17-.09-8.14,1.75-11.44-1.89-.54-.6-1.97-.5-3-.53-3.14-.07-6.29,0-9.44-.05-2.89-.05-5.78-.2-9.03-.32-.11-2.37-.13-4.43-.32-6.48-.09-.98-.24-2.17-.83-2.86-3.19-3.68-4.21-8.04-4.37-12.72-.11-3.18-.16-6.36-.23-9.54-1.12,3.07-1.5,6.16-1.59,9.25-.13,4.26-1.07,8.26-3.27,12.2-1.74.32-3.56.65-5.83,1.07-.04,2.07-.11,4.14-.11,6.21-.01,11.12,0,22.23,0,33.35,0,19.09.02,38.17-.03,57.26,0,2.01.66,4.2-.91,5.93-.52.11-.92.26-1.33.26-16.15.03-32.3.05-48.45.02-.96,0-1.91-.41-2.97-.66v-22.4c-.9-.45-1.98-.98-2.8-1.39-1.75-4.49-.44-9.43-3.52-13.33-.54-.68-.27-2.03-.31-3.08-.14-3.96-.26-7.92-.39-12.09-3.4-1.7-4.13-4.95-4.46-8.34-.26-2.71-.3-5.44-.51-8.16-.46-5.9-.97-11.8-1.45-17.69-2.67,10.28-1.93,20.84-3.92,31.08-1.36,1.29-2.7,2.57-3.64,3.46,0,2.89.25,5.22-.06,7.47-.47,3.42.29,7.13-2.25,10.18-.57.69-.46,1.98-.59,3-.3,2.48-.55,4.96-.81,7.37-1.11.53-2.01.96-2.96,1.4-.38,22.12-.75,43.7-1.13,65.28-.03,1.46-.11,2.94-.32,4.39-.1.7-.56,1.35-1.37,3.17-.2-2.72-.38-4.14-.4-5.56-.05-3.57,0-7.13-.04-10.7-.01-1.22.07-2.41-1.01-3.45-2.01-1.92-2.4-4.66-2.84-7.49-4.27.46-8-2.18-11.98,0-1.03-3-.67-5.75-.57-8.43.1-2.61-.25-5.46-1.75-7.11-2.43-2.66-2.67-5.5-2.73-8.66-.01-.79-.31-1.58-.71-3.46-1.04,2.58-1.69,4.18-2.28,5.64-10.62.82-25.31.55-29.71-.52-.96-2.25.03-4.49.08-6.74.02-1.22-.64-2.4-2.33-2.26-.56.05-1.15-.17-2.03-.32,0-1.76,0-3.39,0-5.02-.01-1.89.13-3.79-.09-5.66-.3-2.47,1.55-4.84.14-7.33-1.2-2.11-2.28-4.29-3.44-6.42-.19-.36-.75-.63-.76-.95-.03-1.19-.38-2.88.25-3.48,3.04-2.93.93-5.48-.53-7.81-.92-1.46-2.76-2.34-4.07-3.39-6.3,4.04-6.51,4.48-6.03,11.29.21,2.97-.09,5.76-1.91,8.38-1.02,1.47-2.1,3.75-1.65,5.21,1.58,5.2.11,10.28.46,15.37-4.03.33-4.52.94-4.05,4.36.22,1.6.25,3.22.36,4.77-4.92,1.08-24.25,1.22-30.65.27-.37-1.43-.77-2.97-1.17-4.53-1.82.56-1.57,1.94-1.63,3.16-.11,2.27.45,4.76-1.28,6.63-2.47,2.67-2.8,5.87-2.78,9.26.04,8.81.02,17.62,0,26.43,0,2.48.18,5-.87,7.64-1.71.12-3.34.32-4.97.33-5.24.04-10.49.05-15.73,0-3.25-.03-6.27.76-8.93,2.56C2.74,239.77-.01,243,0,247.91c6.32.67,1438.75.58,1443.58-.06.11-.4.35-.81.31-1.19-.09-.82-.18-1.7-.52-2.44ZM54.79,203.12c.25-1.6,1.49-1.75,3.3-1.25v6.99c-2.92.22-3.31.08-3.38-1.41-.07-1.44-.14-2.92.08-4.33Zm-8.11,25.29c-1.5.29-2.2-.82-2.19-3.51,0-1.02-.08-2.13.3-3.02.22-.52,1.26-.88,1.96-.95.41-.04,1.17.55,1.28.98.25.97.2,2.03.26,2.82-.18,1.56.43,3.27-1.62,3.67Zm.97-19.31c-1.46.28-2.82.38-3-1.34-.18-1.63-.28-3.37.09-4.94.34-1.44,1.63-1.66,3.2-.65.41,2.22.73,4.61-.29,6.93Zm10.46,18.75c-1.86,1.03-3.05.67-3.35-1.16-.22-1.39-.15-2.86,0-4.28.19-1.67,1.45-1.7,3.34-1.34v6.78Zm10.18.39c-3.36-.33-3.42-.4-3.47-3.29-.05-3.45.07-3.61,3.08-3.95,1.06,2.4.51,4.8.38,7.24Zm-.45-19.14c-1.36.29-2.66.27-2.84-1.38-.18-1.61-.15-3.28.1-4.87.08-.51,1.19-1.2,1.8-1.18.52.02,1.38.91,1.44,1.48.2,1.99.62,4.07-.5,5.94Zm10.51,18.3c-.02.36-.85.92-1.33.95-.5.03-1.32-.35-1.5-.76-.84-1.96-.88-4.04.02-5.96.24-.52,1.3-.66,2.88-1.39,0,3.11.07,5.14-.06,7.16Zm.09-18.18c-3.4-.56-3.42-.59-3.45-3.46-.03-3.37.04-3.47,2.94-4.05,1.2,2.28.61,4.63.51,7.51Zm8.08-64.52c2.4,4.23,2.35,5.14,0,7.33-1-2.19-.77-4.28,0-7.33Zm-3.42,7.17c-1.36-1.97-1.42-3.11,0-5.45v5.45Zm5.01,76.45c-.7-.06-1.53.13-1.84-.19-1.66-1.73-1.59-5.63.1-7.09.33-.29,1.13-.04,1.86-.04.69,2.49.84,4.85-.13,7.32Zm.48-39.8c-1.75,1-2.94.79-3.2-.76-.26-1.59-.18-3.28.06-4.88.07-.48,1.14-1,1.82-1.14.35-.07,1.23.62,1.25,1,.13,2,.06,4.01.06,5.78Zm-.35,20.89c-1.09-.43-2.54-.65-2.62-1.11-.31-1.8-.37-3.7-.11-5.51.08-.56,1.45-.93,2.41-1.5,1.21,2.84.95,5.22.32,8.11Zm-1.14-40.4c-1.21.32-2.34-1.01-2.13-2.24.2-1.16,1.04-1.9,2.12-1.64.79.19,1.41,1.05,2.44,1.88-1.04.9-1.65,1.8-2.43,2.01Zm8.74,33.49c.16-.43.95-.88,1.43-.86.49.02,1.33.55,1.38.94.22,1.63.33,3.31.19,4.94-.05.6-.81,1.37-1.43,1.63-.94.4-1.84-.51-1.97-1.76-.06-.62-.08-1.25-.14-2.25.11-.65.16-1.71.52-2.65Zm2.76,25c-.04.36-.89.74-1.42.89-.3.09-.89-.16-1.07-.44-1.16-1.73-1.01-5.32.24-6.9.1-.13.39-.18.58-.17.4.01.81.09,2.07.24-.12,2.38-.16,4.39-.39,6.38Zm7.65-25.4c.13-.28.74-.56,1.03-.48.54.14,1.41.48,1.46.84.28,2,.35,4.03.58,7.14-1.72-.49-2.88-.48-3.1-.93-1.05-2.13-.98-4.39.03-6.56Zm2.55,25.36c-.16.43-.93.89-1.42.88-.49,0-1.39-.54-1.4-.88-.07-2,.03-4.01.17-6.02.01-.21.64-.56.95-.53.55.05,1.38.22,1.54.58.4.9.5,1.95.71,2.89-.18,1.09-.21,2.14-.56,3.07Zm10.34-.33c-.07.49-1.15,1.01-1.84,1.15-.37.07-1.23-.58-1.3-1-.31-2.02-.62-4.09.28-5.99,1.42-.82,2.64-.64,2.91.92.27,1.6.19,3.3-.05,4.92Zm-.49-17.83c-.84-.2-2.04-.15-2.25-.59-1.04-2.14-.97-4.41-.03-6.6.12-.28.72-.56,1.02-.49.55.12,1.33.38,1.51.8.92,2.2.76,4.43-.25,6.88Zm7.9,18.92c-.87-2.39-.77-4.77-.08-7.16,2.98.2,3.1.33,3.14,3.19.05,3.41-.08,3.59-3.06,3.97Zm-.31-18.98c-.24-2.85-.7-5.21.38-7.51,2.91.47,2.93.49,2.99,3.33.07,3.41-.02,3.55-3.37,4.17Zm24.98,24.86c-2.41.9-4.72.49-6.95.53-2.05.04-4.11-.12-6.51-.21-.15-2.05-.28-3.83-.39-5.25,2.26-2.25,4.23.84,6.51-.58,1.55-.96,3.95-.55,6.58-.81-2.58-3.25-3.75-6.48-3.21-10.61,1.24-.11,2.52-.23,3.97-.36v17.29Zm19.4-98.34c1.35,2.52,1.08,4.35.3,6.85-1.44-2.47-1.18-4.3-.3-6.85Zm-1.63,34.62c.05-.59.9-1.48,1.5-1.59,1.14-.2,1.96.64,2.02,1.79.1,1.86.15,3.74-.04,5.58-.17,1.67-1.5,1.7-3.55,1.31,0-2.6-.11-4.85.07-7.09Zm1.27,33.49c.33-.09.9-.02,1.09.2,1.41,1.71,1.32,5.31-.19,7.32-.15.21-.76.07-1.81.13-.47-2.51-.72-4.72,0-6.92.1-.32.55-.64.9-.73Zm-.64-12.83c.34-.15.76-.51,1.02-.42.41.14.72.58,1.38,1.16-.83.34-1.48.8-1.67.65-.38-.3-.5-.91-.73-1.4Zm-2.27-53.69c.09,1.28.17,2.57.28,4.06-2.24-1.31-.69-2.74-.28-4.06Zm5.21,94.34c-.19,1.88-1.42,2.3-3.28,1.45-.89-2.24-.58-4.7-.31-7.1.07-.59.88-1.42,1.48-1.54,1.12-.23,1.98.53,2.06,1.69.13,1.83.23,3.69.05,5.51Zm2.26-90.34c-.19,0-.39,0-.58,0v-3.83c.19,0,.39,0,.58,0v3.83Zm57.99,63c.21,0,.43.45.61.73.02.03-.27.36-.42.36-.92,0-1.83-.04-2.75-.08,0-.26-.01-.52-.02-.78.86-.09,1.72-.23,2.59-.23Zm.63,2.71c.04.2.09.4.13.6-.56.17-1.12.44-1.69.47-.54.03-1.09-.18-1.63-.29-.02-.26-.03-.52-.05-.78h3.24Zm-2.77,2.51c.75-.21,1.63-.2,2.39,0,.42.11.69.79,1.03,1.22-.42.32-.8.73-1.28.94-.34.15-.8.03-1.62.03.02,0-.43.07-.77-.1-.3-.14-.73-.63-.67-.81.18-.49.51-1.16.92-1.28Zm-.82,11.96c1.92-2.35,1.93-2.34,4.16,0h-4.16Zm4.02,2.27q-1.83.78-3.96.19,1.83-.77,3.96-.19Zm-10.56-18.82c-1.3.68-2.34,1.24-3.49-.09,1.05-.94,2.1-1.19,3.49.09Zm.06,3.04c-1.2-.06-2.4-.11-4.07-.19,1.73-1.48,2.92-1.14,4.07.19Zm-13-3.7c.73.09,1.45.25,2.16.4.02,0,.02.37-.02.38-.73.15-1.46.3-2.2.39-.13.02-.29-.24-.66-.57.42-.37.58-.62.71-.6Zm-7.8,3.49c-.72.09-1.45.23-2.17.22-.2,0-.41-.45-.56-.73-.02-.04.29-.37.45-.37.75,0,1.51.06,2.27.1,0,.26.01.52.02.78Zm-1.96-3.75c.68.25,1.2.44,1.72.63-.33.27-.64.75-1,.78-.52.05-1.07-.22-1.6-.35.28-.33.55-.67.88-1.06Zm-10.99.24c.96.02,1.92.09,2.88.15,0,.28.02.56.02.84-.92.09-1.84.23-2.76.24-.18,0-.4-.5-.52-.8-.03-.08.25-.42.38-.42Zm3.76,3.65h-5.16c1.84-1.39,2.95-1.41,5.16,0Zm-.7,2.77c0,.36-.62.8-1.05,1.03-.32.17-.78.07-1.18.08-.4-.04-.83,0-1.17-.16-.3-.14-.75-.6-.7-.77.17-.5.47-1.19.87-1.32.72-.23,1.59-.26,2.33-.08.4.1.9.79.89,1.22Zm.8,22.16h-4.42c-.93-3.87-.79-7.54-.25-11.2.19-1.32,1.11-2.22,2.57-2.15,1.43.06,2.38.99,2.48,2.29.28,3.65.68,7.34-.38,11.06Zm9.43-22.71c.19.32-.27,1.51-.48,1.52-1.16.08-2.33-.07-3.67-.16,1.27-2.4,3.21-2.91,4.16-1.36Zm-4.08,18.67c.15-2.02.28-3.77.42-5.67h3.48c.09,1.94.19,3.82.28,5.67h-4.18Zm1.29-7.09c-.26-.02-.45-.9-.67-1.38.73-.19,1.47-.53,2.19-.5.41.02.79.64,1.76,1.52-1.54.2-2.43.44-3.28.36Zm12.51-10.02c-.12.11-.4.07-.61.07-.42,0-.83,0-1.6,0-.5-.05-1.36-.13-1.17-1.34.17-1.08.97-1.2,1.85-1.1.6.07,1.23.14,1.75.4.27.14.48.7.44,1.05-.03.33-.38.65-.66.91Zm.89,9.63c-1.49.22-2.37.46-3.23.41-.24-.01-.43-.88-.64-1.36.73-.21,1.47-.58,2.2-.58.38,0,.76.66,1.67,1.53Zm-4.09,7.76c-.05-1.12-.12-2.07-.12-3.02,0-.8.09-1.61.17-2.96h3.5c.19,1.85.37,3.58.58,5.67-1.45.11-2.6.19-4.12.31Zm-.57-22.21c1.83.1,3.01.16,4.73.25-1.79,1.45-2.98,1.42-4.73-.25Zm14.23,21.99c-1,.15-2.03.15-3.4.22v-5.81c1.19-.08,2.49-.16,4.15-.26-.45,1.06-.99,1.73-.91,2.32.12.94.7,1.81.95,2.75.05.19-.48.73-.79.78Zm-2.83-8.79c.87-.53,1.84-.81,2.66.09.23.26.23.73.34,1.11-.33.2-.65.54-1,.56-.91.06-2.03.46-2.49-.78-.09-.24.21-.82.49-.98Zm-.99-8.65c1.5-2.75,2.86-2.76,4.81,0h-4.81Zm14.62,17.33c-1.04.06-2.24.29-3.37.09-.37-.06-.92-1.41-.72-1.9.59-1.44,2.01-1.16,3.17-.9,1.26.28,1.43,1.25.93,2.7Zm39.03-132.62c.4,0,.79.23,1.66.49-.62.63-1.05,1.47-1.52,1.49-3.75.16-7.52.1-11.27.24-2.23.08-4.45.38-6.68.59-.04-.96-.1-1.94-.16-2.92,6,.03,11.98.06,17.97.12Zm-18.14,26.83c-4.37,1.52-7.66,1.31-12.05.25,4.36-1.56,7.65-1.33,12.05-.25Zm-11.09-4.11c1.76-1.85,4.86-2.06,11.38-.87-1.09.5-2.17,1.31-3.28,1.37-2.66.13-5.4.54-8.1-.49Zm13.22,24.56c9.62-.04,19.24-.04,28.86,0,.54,0,1.08.48,1.65.75-.34.38-.59.9-.85.9-10.58,0-21.17-.03-31.75-.06.09-.36.14-.78.38-.94.49-.34,1.13-.64,1.71-.65Zm-1.61-3.88c4.44-1.15,25.23-1.31,32.23-.23-.54.48-.88,1.03-1.21,1.03-10.04.03-20.07,0-30.11-.04-.16,0-.32-.25-.9-.75Zm.02,35.17c-.23-.92-.47-1.87-.72-2.82,1.58-.14,3.18-.38,4.77-.39,7.96-.04,15.91-.04,23.87,0,1.39,0,2.79.22,4.19.34-.14,1.75-1.21,1.83-2.26,1.84-7.12.03-14.24.03-21.36.04-2.09,0-4.19-.05-6.28.09-.75.05-1.47.58-2.21.9Zm-11.33-18.49c2.99-1.54,5.79-1.63,11.22-.35-4.48,1.52-6.05,1.56-11.22.35Zm11.19,4.58c-3.7,1.56-7.45.87-11.21.19,3.71-1.58,7.45-1.76,11.21-.19Zm-.76-7.96c-3.05-.13-6.11-.25-9.16-.41-.84-.04-1.6-.29-1.73-1.33.29-.27.55-.72.8-.72,3.45-.04,6.9-.01,10.35,0-.09.82-.17,1.64-.26,2.46Zm0,18.88c-3.06-.13-6.12-.25-9.17-.41-.82-.04-1.65-.22-1.67-1.38.25-.23.5-.67.76-.67,3.45-.03,6.91,0,10.36.02-.09.82-.18,1.63-.27,2.45Zm-10.61-5.35c-.53-1.75.56-1.96,1.57-2.01,3.08-.15,6.16-.21,9.24-.3.04.74.07,1.48.11,2.22-3.67.49-7.32.43-10.92.09Zm11.01-2.48c.18-1,.36-1.99.54-2.99,1.24,1.54,3.02,1.05,4.58,1.06,7.09.06,14.18.02,21.27.04,1.67,0,3.34.02,4.99.18.46.05.86.65,1.43,1.1-4.34,1.07-21.7,1.35-32.8.6Zm31.72-4.79c-9.84.08-19.68.12-29.52.11-.55,0-1.11-.45-1.71-.72.41-.33.72-.81,1.04-.81,9.84-.08,19.68-.13,29.52-.12.55,0,1.1.45,1.7.72-.41.34-.72.82-1.03.82Zm-1.37-4.3c-7.12.03-14.24.03-21.36.04-2.09,0-4.19-.05-6.28.09-.75.05-1.47.58-2.21.9-.23-.92-.47-1.87-.72-2.82,1.58-.14,3.18-.38,4.77-.39,7.96-.04,15.91-.04,23.87,0,1.39,0,2.79.22,4.19.34-.14,1.75-1.21,1.83-2.26,1.84Zm-33.37-16.57c-2.66.13-5.4.54-8.1-.49,1.76-1.85,4.87-2.06,11.38-.87-1.09.5-2.17,1.31-3.28,1.37Zm2.12,3.13c-3.15,1.89-3.55,1.91-9.92.53,3.06-1.24,6.24-.95,9.92-.53Zm.55-7.48c-3.08-.07-6.16-.12-9.24-.24-.79-.03-1.71-.11-1.73-1.27.24-.28.47-.78.7-.79,3.48-.08,6.96-.1,10.44-.13-.05.81-.11,1.62-.16,2.43Zm.38-5.06c8.95.03,17.89.06,26.83.11,1.67,0,3.36.03,5.02.23.41.05.73.83,1.09,1.28-.45.33-.76.75-1.06.76-10.63.05-21.26.06-31.89.07,0-.81.01-1.63.01-2.44Zm-10.98-.23c-.52-1.65.58-1.79,1.55-1.87,2.99-.25,5.99-.43,8.99-.64.07.84.13,1.67.2,2.51h-10.74Zm1.12,16.97c3.21-.22,6.42-.27,9.63-.38.05.73.09,1.45.14,2.18-3.74.59-7.48.62-12.03-.18,1.15-.85,1.68-1.58,2.26-1.62Zm10.25,29.19c-3.68,2.03-7.48.94-12.43.96,4.17-2.15,6.98-2.24,12.43-.96Zm-.06,4.93c-3.7,1.56-7.45.87-11.21.19,3.71-1.59,7.45-1.76,11.21-.19Zm-.6-2.52c6.96-1.19,28.28-1.1,33.04.02-.63.37-1.06.84-1.53.87-9.19.69-26.62.28-31.51-.89Zm16.44-8.15c-5.37.15-10.74.07-16.11.08.02-.87.03-1.75.05-2.63,8.72.04,17.43.08,26.14.14,1.88.01,3.77.03,5.63.21.38.04.7.81,1.36,1.63-5.94,1.2-11.53.41-17.06.57Zm-.07-18.87c-5.35.13-10.7.05-16.06.06.04-.88.07-1.77.09-2.65,8.69.08,17.36.16,26.04.26,1.87.02,3.75.03,5.61.22.39.04.7.83,1.32,1.63-5.9,1.03-11.47.35-17.01.48Zm15.22-14.25c-2.69.17-5.4.17-8.1.18-6.03.02-12.06-.04-18.09.04-1.59.02-3.18.45-4.77.7-.17-.9-.36-1.83-.55-2.75,7.04-.54,28.13-.41,33.26.3-.76.7-1.24,1.51-1.76,1.54Zm-.04-9.61c-9.98.05-19.96.06-29.95.04-.52,0-1.04-.22-1.56-.38.69-1.64,2.22-1.48,3.59-1.49,6.45-.04,12.9-.03,19.35-.03,2.5,0,4.99-.02,7.49.06.77.02,1.52.34,2.86.66-.95.62-1.36,1.14-1.78,1.14Zm-.76-4.68c-9.72.67-26.14.2-30.43-.96,1.13-.38,1.8-.79,2.5-.82,12.77-.62,25.82-.26,30.46.91-1.15.41-1.82.82-2.52.87Zm-.86-4.43c-7.74.05-15.49-.02-23.23.07-2.02.02-4.04.45-6.05.7-.11-.96-.25-1.93-.39-2.91,17.47-.65,28.52-.41,32.63.71-.34,1.79-1.82,1.43-2.96,1.43Zm-38.48-9.37c2.84-.19,5.68-.31,8.52-.45.07.75.14,1.51.21,2.26-3.72.68-7.41.39-11.21.2.33-2.14,1.53-1.95,2.48-2.01Zm-2.25-3.27c3.15-2.05,6.43-.97,9.76-.53-3.17,1.73-6.46,1.14-9.76.53Zm11.03,2.68c.33-.46.63-1.09,1.02-1.16,1.42-.26,2.89-.35,4.34-.35,7.73-.03,15.46-.04,23.19.01,1.37,0,2.74.36,4.12,1.23-.76.2-1.52.57-2.28.57-9.61.03-19.22,0-28.83-.03-.52,0-1.04-.16-1.57-.27Zm-.32-5.96c-2.84-.19-5.69-.35-8.53-.57-.97-.08-2.15.04-2.29-1.82,3.79-.59,7.56-.72,11.34.16-.17.74-.34,1.49-.52,2.23Zm-7.39-21.63c.2-.65.7-1.21,1.51-2.55.64,1.67,1.2,2.53,1.2,3.39,0,.46-.97,1.32-1.5,1.31-1.33,0-1.53-1.1-1.21-2.15Zm-2.77,14.26c2.88-.13,5.77-.19,8.65-.11,1.19.03,1.35,1.18,1.7,2.07-3.74.27-7.5.49-11.68-.28.67-.88.98-1.66,1.33-1.68Zm10.51,18.83c-.07.71-.13,1.42-.2,2.13-3.25-.03-6.5,0-9.74-.15-.57-.02-1.11-.76-2.29-1.63,4.63-.96,8.44-.75,12.23-.35Zm-11.35,115.51c-.14-.26-.29-.52-.43-.77.33-.08.66-.2.99-.21.09,0,.3.44.28.46-.26.2-.55.36-.84.53Zm6.99-20.36c1.06-1.49,1.99-.65,3.06-.49-1.03.91-1.92.92-3.06.49Zm-7.81-22.65c1.17-1.03,1.66-1.83,2.21-1.87,3.2-.25,6.41-.34,9.62-.48-.14.71-.27,1.43-.45,2.35h-11.38Zm12.07-2.52c.21-.97.41-1.94.62-2.91,1.24,1.56,3.02,1.05,4.59,1.07,7.1.06,14.2.02,21.3.04,1.67,0,3.34.02,5,.19.45.05.83.68,1.66,1.41-1.23.24-1.97.51-2.71.51-9.4.03-18.79.02-28.19,0-.76,0-1.51-.18-2.27-.31Zm4.97,21.82c8.79-.08,17.58-.12,26.37-.13.54,0,1.08.38,1.62.58-.16.5-.19,1.1-.42,1.19-.75.29-1.57.55-2.37.55-7.75.04-15.5.05-23.25-.01-1.09,0-2.63.38-2.82-1.5.3-.24.59-.68.87-.68Zm-.26-3.27c.03-.21,0-.47.11-.61.24-.31.56-.79.84-.79,8.56-.07,17.13-.1,25.69-.07.47,0,.94.57,1.47.91-.34.43-.53.92-.76.94-6.47.59-23.36.32-27.35-.39Zm-.13,8.38c1.64-.16,3.28-.39,4.93-.4,7.66-.04,15.32-.02,23.6-.02-.73,1.02-1.02,1.8-1.32,1.8-8.9.04-17.81,0-26.71-.07-.22,0-.43-.56-.65-.86.05-.16.09-.45.15-.45Zm-1.24-23.46c.5-.2,1.03-.58,1.56-.58,8.98-.01,17.97.01,26.95.07.3,0,.6.45,1.08.84-.36.42-.71,1.18-1.07,1.18-8.98.09-17.96.1-26.95.1-.92,0-1.55-.43-1.57-1.62Zm29.46,4.77c-.45.52-.82,1.31-1.19,1.31-8.77.07-17.55.08-26.32.02-.41,0-.82-.65-1.37-1.12,4.76-.96,22.76-1.07,28.87-.21Zm-19.07,4.24c3.12-.15,6.26-.14,9.38,0,3.19.14,6.49-.68,9.97.85-4.73,1.32-23.67,1.38-29.19.1,3.44-1.69,6.71-.81,9.84-.95Zm-9.44,25c.14-.37.24-1.04.42-1.06,9.15-1.04,18.31-.82,27.47-.1.2.02.35.65.52.99-4.25.99-22.71,1.1-28.41.17Zm2.97-4.3c-.91-.04-1.8-.42-3.3-.8,4.66-1.24,14.05-1.57,26.08-1.01.91.04,1.8.43,3.33.81-4.68,1.22-14.17,1.54-26.1.99Zm9.11-103.41c-5.37.15-10.74.11-16.11.15,0-.93,0-1.87,0-2.81,8.7.08,17.38.17,26.06.27,1.88.02,3.76.04,5.62.23.4.04.73.8,1.42,1.63-5.92,1.13-11.48.37-16.99.53Zm14.18-9.72c-9.2.05-18.39.05-27.59.03-1.19,0-2.46,0-3.03-1.36.94-.16,1.89-.42,2.84-.43,8.99-.04,17.97-.04,26.96-.01.97,0,1.95.29,4.28.67-2.03.66-2.74,1.09-3.45,1.1Zm58.83-33.3c-.26-.03-.5-.34-.75-.52.15-.12.31-.35.43-.33.33.05.64.21.99.34-.24.19-.48.53-.68.51Zm12.99,38.38v.39s-.26-.2-.26-.2l.26-.19Zm-1.18,21.83c-.26-.08-.49-.24-.74-.37.19-.05.37-.1.56-.15.18.07.36.15.54.22-.12.11-.28.32-.36.3Zm.23,13.71c-.17.06-.37.22-.47.16-.15-.08-.24-.3-.35-.46.17,0,.36-.04.51.01.12.04.2.18.31.28Zm.31,3.42c0,.14,0,.28,0,.42h-2.24c0-.14,0-.28,0-.42h2.24Zm-5.45,84.74c-1.21.19-1.1-.84-1.18-1.46-.13-1.03-.09-2.09-.09-3.13,0-38.51-.01-77.02.03-115.53,0-1.74-.57-3.67,1.21-5.55.23,1.13.49,1.9.52,2.69.6,14.01.18,117.83-.48,122.99Zm4.84-110.04c.18-.02.37.14.55.22-.21.21-.41.59-.62.6-.55.01-1.1-.14-2.71-.4,1.64-.25,2.21-.37,2.78-.42Zm.02,3.77c.17,0,.36.16.53.25-.21.2-.42.58-.63.57-.57-.02-1.13-.19-2.7-.5,1.61-.19,2.2-.29,2.79-.32Zm-.51,101.32c-.13-.05-.22-.23-.33-.35.18-.06.42-.22.54-.16.17.09.26.34.38.53-.2,0-.41.04-.59-.02Zm-1.17-3.74c0-.15,0-.29,0-.44h2.29c0,.15,0,.29,0,.44h-2.29Zm1.83-21.35c-.58-.02-1.16-.09-1.75-.14.02-.18.05-.37.07-.55.66.11,1.33.22,1.99.33-.11.13-.22.36-.32.36Zm.36,17.1c0,.12,0,.24-.01.36h-2.01c0-.15,0-.3.01-.45.67.03,1.34.06,2.02.09Zm-2.12-20.78c-.02-.21-.03-.42-.05-.63.75-.06,1.49-.13,2.24-.19.02.23.03.46.05.69-.75.04-1.5.08-2.24.13Zm2.07-4.34c0,.11,0,.22,0,.33h-1.9c0-.11,0-.22,0-.33h1.9Zm-1.37-13.69l.41-.16v.3s-.41-.14-.41-.14Zm1.33-3.6h-2.01c0-.12,0-.23,0-.35h2.01v.35Zm.2-3.58c-.56.05-1.12.17-1.66.11-.3-.03-.56-.37-.84-.56.34-.15.68-.41,1.03-.41.54,0,1.07.17,1.61.27-.04.2-.09.4-.13.6Zm-1.53-17.98l.41-.16v.3s-.41-.14-.41-.14Zm.8,13.62c.16.06.31.12.47.18-.11.09-.24.28-.31.26-.22-.06-.43-.2-.64-.31.16-.04.32-.08.48-.13Zm-.97-16.98c-.17.01-.36-.16-.54-.24.21-.2.42-.58.62-.58.57.02,1.14.19,2.68.49-1.57.2-2.17.3-2.76.33Zm17.89-43.85c.25.18.52.33.72.55.07.08-.05.47-.1.47-.29.02-.58-.03-.88-.06.09-.32.17-.64.26-.96Zm-4.28-.82c.21.2.59.4.6.6,0,.53-.15,1.06-.42,2.58-.24-1.54-.35-2.09-.4-2.65-.01-.17.14-.35.22-.53Zm.59,10.26c0,.17-.16.35-.25.53-.19-.21-.55-.42-.55-.63.01-.56.18-1.13.48-2.71.19,1.63.29,2.22.32,2.81Zm-8.41,36.24v-10.94c1.14,3.69.78,7.4,0,10.94Zm0,19.01v-11.11c1.19,3.7.71,7.41,0,11.11Zm.12-65.78c.17,0,.34,0,.51,0v3.25c-.17,0-.34,0-.51,0v-3.25Zm.5,8.63v2.62h-.49v-2.62c.16,0,.33,0,.49,0Zm.03,8.32v11.14c-1.15-3.71-.87-7.42,0-11.14Zm-.01,104.49c-1.01-3.41-1.02-6.83,0-10.24v10.24Zm-.61-18.86v-10.24c1.01,3.41,1,6.82,0,10.24Zm.2-17.98c-.39-3.72-.7-7.45.21-11.15.39,3.72.66,7.45-.21,11.15Zm4.05-84.63c.15.55.4,1.09.42,1.65.02.56-.19,1.13-.3,1.7-.18,0-.35,0-.53,0l-.23-3.18c.21-.06.42-.11.64-.17Zm.42,11.17c-.22.03-.45.05-.67.08-.12-.88-.24-1.77-.36-2.65.27-.03.55-.06.82-.09.07.89.14,1.78.21,2.66Zm.03,108.13c0,.79-.22,1.58-.45,3.13-.82-5.55-.95-98.17.46-105.33,0,34.07,0,68.13-.01,102.2Zm3.36,1.9c-.71-4.65-.83-96.78-.14-103.88.77,4.6.9,97.18.14,103.88Zm4.31-112.18c.18.3.48.59.5.9.01.33-.25.68-.39,1.01-.33-.35-.65-.7-1-1.07.4-.38.64-.61.89-.84Zm.51,111.04c0,.29-.38.58-.6.89-.23-.32-.61-.62-.61-.91-.03-33.55-.03-67.11,0-100.66,0-.28.4-.57.61-.86.21.3.59.59.59.88.03,33.55.03,67.11,0,100.66Zm11.69-108.6c-.21-.02-.42-.03-.63-.05v-2.82c.29.05.57.09.86.14-.08.91-.15,1.82-.23,2.73Zm.05,5.71v11.1c-1.3-3.73-.82-7.51,0-11.1Zm-.73-17.22c.3.05.59.09.89.14,0,.8.06,1.61-.03,2.4-.04.32-.38.61-.59.92-.15-.37-.41-.74-.42-1.11-.02-.78.09-1.56.15-2.35Zm-3.66-.08c.17,0,.33,0,.5,0v3.35h-.5v-3.35Zm-.12,8.69c.18,0,.35,0,.53,0v2.77c-.18,0-.35,0-.53,0v-2.77Zm-3.8-8.33c.14,0,.28,0,.42,0v2.21c-.14,0-.28,0-.42,0v-2.21Zm.48,8.49v2.56c-.15,0-.29,0-.44,0v-2.56h.44Zm-.14,112.48c-.78-4.53-.92-96.84-.16-103.85.73,4.61.87,96.53.16,103.85Zm3.94.15c-.11.02-.29.1-.33.05-.13-.16-.3-.35-.3-.54-.02-34.3-.04-68.61-.02-102.91,0-.37.31-.74.48-1.12.73,4.62.89,97.01.18,104.51Zm3.75-85.65c.58,3.8.55,7.61.05,11.42-1-3.8-.85-7.61-.05-11.42Zm-.13,30.35c-.66-3.82-.54-7.65.05-11.43.55,3.85.81,7.65-.05,11.43Zm0,55.65c-.59-3.57-.77-7.14.07-10.7.62,3.57.78,7.14-.07,10.7Zm-.39-18.88c-.05-2.41-.13-4.83-.13-7.24,0-1.12.18-2.24.27-3.36.23,0,.47,0,.7,0,.06,2.41.16,4.81.16,7.22,0,1.13-.2,2.26-1,3.39Zm1.02-18.28l-.93.12v-11.11c.16-.02.33-.05.49-.07.15.99.37,1.97.42,2.97.07,1.46.02,2.93.02,4.4,0,1.23,0,2.46,0,3.7Zm5.12-47.64c-.03.11-.03.3-.09.33-.15.05-.34.08-.49.03-.14-.04-.25-.19-.37-.3.31-.02.63-.04.94-.06Zm-1.01-13.84c.14-.05.38-.23.5-.17.18.09.28.34.41.52-.2,0-.41.04-.59-.02-.13-.05-.22-.23-.32-.33Zm-.23-3.4c0-.14,0-.29,0-.43h2.29c0,.14,0,.29,0,.43h-2.29Zm-.01,20.97h2.24c0,.14,0,.28,0,.42h-2.24c0-.14,0-.28,0-.42Zm-.69-38.84l.18-.29.11.37-.29-.08Zm2.72,85.35c-.05.21-.09.45-.11.45-.55,0-1.1-.05-1.65-.08.03-.12.06-.35.1-.35.55-.02,1.1-.02,1.67-.02Zm-1.06-13.7l.44-.07-.09.3-.35-.23Zm-.65-3.36c-.03-.16-.06-.32-.09-.48.57-.08,1.13-.16,1.7-.25.05.21.09.42.14.64-.58.03-1.16.06-1.74.09Zm1.95,20.64c.02.23.03.47.05.7-.75.04-1.49.08-2.24.13-.02-.21-.03-.42-.05-.62.75-.07,1.49-.14,2.24-.21Zm-.05,4.01c0,.11,0,.23,0,.34h-2.22c0-.11,0-.23,0-.34h2.22Zm-.17,17.79c-.1.11-.21.33-.31.32-.53-.02-1.06-.1-1.59-.16.02-.16.05-.32.07-.48.61.11,1.22.21,1.83.32Zm-1.48,7.79c-.13-.05-.22-.23-.32-.33.14-.05.38-.23.5-.17.18.09.28.34.41.52-.2,0-.41.04-.59-.02Zm-.5-3.59c-.02-.21-.03-.42-.05-.63.75-.07,1.51-.14,2.26-.21.02.24.04.47.06.71-.76.04-1.51.09-2.27.13Zm-.05-50.23c-.03-.22-.06-.44-.08-.66.83-.12,1.67-.24,2.5-.36.03.27.06.53.09.8-.84.07-1.67.15-2.51.22Zm1.05-4.51c-.08.16-.13.38-.26.45-.11.05-.31-.08-.47-.14.07-.1.12-.26.21-.29.16-.05.34-.02.51-.02Zm-.09-13.72l.44-.07-.09.3-.35-.23Zm-.38-3.29c-.17,0-.36-.16-.53-.25.21-.2.42-.58.63-.57.57.02,1.14.19,2.7.5-1.61.2-2.2.29-2.79.32Zm.02-28.94c-.18.02-.37-.14-.55-.22.21-.21.41-.59.62-.59.55-.01,1.1.14,2.71.4-1.64.25-2.21.37-2.78.42Zm5.88,104.48c-.01,1.62-.15,3.24-.27,5.77-1.88-2.32-1.32-4.17-1.33-5.82-.05-22.18-.03-44.36-.03-66.54,0-15.9,0-31.8.02-47.71,0-2.05.16-4.1.24-6.15,1.52,4.95,1.82,63.86,1.37,120.44Zm195.58-.15c-.07,0-.13,0-.2,0V89.23c.07-.09.13-.18.2-.26v137.7Zm3.75.1h-.19V83.71c.06,0,.13,0,.19,0v143.06Zm3.76-.1h-.19V88.97h.19v137.71Zm6.28-.05c-.05,0-.11,0-.16,0V94.97c.05,0,.11,0,.16,0v131.65Zm98.77-172.4c1.21-2.42,2.66-4.71,3.95-6.95.62,0,1.23-.16,1.36.02,3.26,4.56,5.7,9.57,7.42,15.11-2.44-2.55-4.88-5.11-7.61-7.96-1.01.79-2.02,1.42-2.84,2.23-1.76,1.76-3.43,3.62-5.93,6.29.42-4.11,2.43-6.28,3.66-8.75Zm4.54,12.63c-2.69,2.83-5.23,5.5-7.71,8.11-1.6-.88-1.31-1.97-.66-2.75,2.57-3.02,5.26-5.94,8.08-9.1,4.14,2.33,6.41,6.15,9.25,9.36.41.47.2,1.49.35,2.95-3.82-2.35-5.5-5.92-9.3-8.58Zm42.47-20.75c.56.06,1.23.02,1.63.33.45.34.67,1,.99,1.52-.18.09-.42.31-.54.25-.86-.39-1.69-.83-2.54-1.26.29-.55.39-.84.46-.83Zm1.43,9c-1.03.53-2.05,1.04-4.16,2.12q2.73-3.15,4.16-2.12Zm0,7.75c-.32.11-.66.34-.96.31-.22-.03-.39-.41-.59-.64.35-.12.68-.35.98-.31.22.03.38.41.57.64Zm4.33,13.58c-.95-.79-1.78-1.74-2.71-2.56-.75-.66-1.57-1.25-2.56-2.02-2.52,2.16-4.83,4.15-7.07,6.08-1.29-.57-1.13-1.28-.48-1.93,2.34-2.32,4.72-4.59,7.51-7.3,3.15,3.15,6.39,5.02,8.07,8.58-1.6.9-2.09-.29-2.75-.84Zm36.44,24.29c-3.42.93-6.76,1.16-11.51.13,4.79-1.45,8.19-.99,11.51-.13Zm-9.31,33.72c3.16-.17,6.39-.74,9.39,1.61h-10.78c.66-.79,1.01-1.59,1.39-1.61Zm-1.35-3.95c3.9-1.67,7.28-.87,10.67-.3-4.72,1.41-5.55,1.41-10.67.3Zm9.14,10.62c-2.81-.08-5.69.51-8.41-1.01,3.26-1.17,6.5-1.06,9.67-.7.33,1.44-.37,1.73-1.26,1.71Zm-6.49,2.92c2.68-.04,5.36-.02,8.04-.02.09.43.17.86.26,1.29-.68.25-1.38.76-2.04.71-2.8-.23-5.75.94-8.4-.79-.11-.07-.07-.39-.12-.84.75-.12,1.51-.33,2.27-.34Zm9.48,5.3c-4.73,2.34-8.16,1.1-11.55.62,3.34-1.19,6.72-1.12,11.55-.62Zm-11.54-39.19c1.8-.1,3.6-.27,5.4-.27,1.6,0,3.19.19,4.78.64-3.28,1.47-6.62.8-10.19-.36Zm11.49,5.61c-4.66.97-8.08.81-11.42-.2,3.46-.67,6.84-1.28,11.42.2Zm-.63,4.92c-3.95,1.22-7.33.62-11.52.57,3.9-1.83,5.7-1.89,11.52-.57Zm-.57,4.76c-3.46,1.43-6.96,1.04-11.91.42,4.89-1.73,8.39-1.33,11.91-.42Zm1.39,29.09c-4.84,1.69-8.31,1.31-13.27.5,4.91-1.49,8.38-1.12,13.27-.5Zm-12.39,10.18c3.94-1.31,7.33-.66,11.52-.62-3.84,1.81-5.61,1.87-11.52.62Zm11.64,4.43c-3.99,1.68-4.97,1.72-10.93-.02,1.58-.09,3.16-.24,4.75-.24,1.79,0,3.58.14,6.18.26Zm-12.41-9.38c4.74-1.14,8.14-.8,11.54-.18-3.38,1.42-6.78,1.23-11.54.18Zm11.6,14.82c-3.36,1.09-6.75,1.08-11.59.54,4.77-2.1,8.2-.92,11.59-.54Zm-10.84,44.3c5.22-1.12,5.87-1.13,10.79.22-3.45.44-6.85,1.08-10.79-.22Zm10.79,5.12c-3.39.62-6.82.98-10.85,0,4.79-1.28,5.14-1.29,10.85,0Zm-10.74-10.22c3.92-1.21,7.27-.62,11.43-.57-3.89,1.78-5.56,1.83-11.43.57Zm10.78-4.8c-3.23,1.1-6.59.82-10.54.5,3.38-1.71,3.95-1.75,10.54-.5Zm-10.01-4.74c5.21-1.41,5.73-1.4,10.65-.26-3.81,1.47-7.23.58-10.65.26Zm-.62-9.75c3.95-1.61,5.42-1.66,10.88-.53-.59.46-1.01,1.06-1.45,1.08-2.97.1-6,.59-9.43-.55Zm2.45-4.14c-.94-.05-2.16.15-1.92-1.69,3.36-.74,6.73-.34,10.6-.23-1.92,2.01-3.02,2.21-8.68,1.92Zm-1.96-5.65c5.68-1.65,7.31-1.55,10.84.38-4.01.59-7.44.52-10.84-.38Zm-.12-4.94c3.51-1.61,7.02-1.54,11.75,0-4.73,1.01-8.24.88-11.75,0Zm-1.4,48.99c4.85-1.2,8.41-1.26,13.25.08-4.85,1.03-8.42,1.09-13.25-.08Zm1.41-29.75c3.97-1.21,4.44-1.23,11.84-.22-6.05,1.71-8.13,1.67-11.84.22Zm-1.42-93.22c4.88-1.25,8.34-1.07,13.27-.23-4.91,1.37-8.37,1.19-13.27.23Zm21.35,29.42c.03.18.13.38.07.53-.04.11-.28.15-.43.23-.09-.14-.18-.29-.27-.43.21-.11.42-.22.62-.33Zm-.02,5.18c-.12.04-.24.09-.35.13.08-.2.15-.4.23-.61.04.16.08.32.12.47Zm-.43,4.06c.15.03.37,0,.44.09.09.11.06.32.08.49-.24-.04-.47-.08-.71-.12.07-.15.13-.3.2-.45Zm.04,49.93c-.05-.18-.1-.36-.15-.54.19.13.38.27.56.4-.14.05-.27.09-.41.14Zm.29-4.65c-.14-.17-.32-.33-.4-.53-.03-.06.2-.23.31-.35.08.14.16.29.24.43-.05.15-.1.29-.15.44Zm.12-4.7c-.18.01-.39.09-.51.02-.11-.06-.12-.3-.17-.46.26-.03.53-.07.79-.1-.04.18-.07.36-.11.54Zm19.77-84.32c-4.2,1.35-7.57,1.15-11.61.13,5.06-1.19,5.43-1.19,11.61-.13Zm-3.14,9.95c-3.16,1.05-5.5,1.05-8.67-.01,3.18-1.01,5.51-1.02,8.67.01Zm-2.44,10.37h-6.41c2.31-1.58,3.8-1.48,6.41,0Zm-5.36,38.11c1.45.07,2.91.14,4.36.22,0,.27-.01.55-.02.82h-4.41c.02-.35.05-.69.07-1.04Zm-.23-4.04q1.91-1.03,4.55-.26c-1.47,1.22-2.95,1.08-4.55.26Zm-.44-5.32q2.63-.58,5.14.09c-1.82,1.31-3.31,1.2-5.14-.09Zm.11-4.33c.37-.53.63-1.22.91-1.23,1.33-.06,2.67.08,4.63.17-1.88,2.31-3.53,1.79-5.54,1.06Zm.08-6.05c1.64.07,2.92.13,4.84.21q-2.96,1.82-4.84-.21Zm-.09-13.84c1.77-1.21,3.38-1.32,5.1.07-1.76,1.1-3.36,1.17-5.1-.07Zm5.06,4.88c-1.86,1.34-3.31,1.19-4.91.11,1.5-1.26,2.95-1.19,4.91-.11Zm.02,5.32c-1.79.83-3.34.76-5.21,0q2.76-1.67,5.21,0Zm.65,28.6c-2.42,1.57-3.92,1.48-6.16,0h6.16Zm.06,4.94c-2.48,1.59-3.99,1.5-6.29,0h6.29Zm.03,4.9c-2.39,1.74-3.9,1.34-5.41,0h5.41Zm-1.11,5.97h-5.2c2.14-1.96,3.66-1.59,5.2,0Zm-5.02,13.4h4.98q-2.45,1.56-4.98,0Zm5.32,4.79c-2.03,2.25-2.79,2.25-5,.03.92-.11,1.71-.27,2.5-.28.79,0,1.57.15,2.5.25Zm-5.03,5.63c1.83-1.25,3.31-1.1,5.2-.12q-2.57.71-5.2.12Zm4.82,4.4c-.03.36-.06.72-.08,1.08-.98.07-1.97.24-2.94.19-.53-.03-1.04-.43-2.22-.95,1.4-.3,2.15-.56,2.91-.59.77-.03,1.56.17,2.33.27Zm-4.75-18.81q2.3-1.3,5.32-.07c-2.27,1.09-3.75,1.12-5.32.07Zm5.52,24.69h-6.11c2.47-1.53,3.94-1.47,6.11,0Zm-6.08,15.02c2.17-1.86,3.69-1.5,5.21,0h-5.21Zm-.03-5.06c2.47-1.58,3.98-1.52,6.15,0h-6.15Zm3.26-4.63c-.76.03-1.54-.17-3.18-.39,2.37-1.57,3.88-1.33,6.17-.21-1.46.3-2.22.57-2.99.6Zm-2.56-34.39c.15-1.9,1.66-2.01,5.97,0h-5.97Zm.58-69.71c2.27-.85,4.56-.79,7.64-.17q-3.78,1.25-7.64.17Zm.09-9.75c3.35-.94,6.74-1.2,11.34-.17-4.54,1.52-7.93.92-11.34.17Zm122.9,31.18c.13.35.26.7.38,1.05-.15.14-.29.27-.44.41-.13-.35-.3-.69-.36-1.05-.02-.11.27-.27.41-.41Zm0,74.94c.11.16.21.31.32.47-.06.17-.12.34-.18.51-.18-.22-.36-.44-.53-.66.13-.1.26-.21.39-.31Zm-.29-11.61c0-.17.2-.33.31-.5.08.17.21.33.22.5.02.96.01,1.93.01,2.89-.18,0-.37,0-.55,0,0-.96-.02-1.92.01-2.88Zm.23-10.22c-.12-.34-.29-.68-.35-1.04-.02-.11.26-.27.4-.4.13.35.29.68.35,1.04.02.11-.26.26-.41.4Zm0-12.63c-.13-.35-.3-.69-.35-1.05-.02-.11.27-.27.41-.4.13.35.25.7.38,1.05-.15.14-.29.27-.44.41Zm0-26.39c-.12-.35-.28-.69-.33-1.05-.02-.11.27-.26.41-.39.12.35.28.69.34,1.05.02.11-.27.26-.41.39Zm.34,9.44c-.22-.03-.43-.05-.65-.08.05-.17.11-.33.16-.5.14.02.35-.01.39.06.08.15.07.34.1.52Zm-.27,2.82c.12.14.25.28.37.43-.15.32-.3.63-.44.95-.12-.15-.36-.32-.34-.43.08-.33.26-.63.41-.94Zm.31,10.06c-.06.16-.12.32-.17.48-.18-.21-.35-.42-.53-.62.13-.1.26-.19.39-.29.1.15.21.29.31.44Zm-5.66-57.78c.19-1.28,1.29-1.53,2.28-1.38.62.09,1.15.79,1.58,1.11-.37,1.73-1.34,1.7-2.39,1.64-.92-.05-1.62-.33-1.47-1.37Zm2.06,23.05c-.14.09-.88-.31-.88-.48,0-.56.22-1.11.36-1.67.5.23,1,.45,1.77.8-.53.6-.83,1.08-1.26,1.36Zm.62,8.75c-.34.15-.68.29-1.03.44-.07-.3-.14-.6-.21-.9.34,0,.68-.04,1,.02.1.02.16.29.24.44Zm-.56-12.11c-.32-.37-.64-.73-.96-1.1.32-.16.68-.48.96-.43.28.05.49.49.72.76-.24.26-.48.51-.72.77Zm-.02,13.39c.43.89.89,1.4.81,1.8-.08.4-.71.68-1.1,1.02-.25-.44-.69-.87-.7-1.31,0-.39.49-.78.99-1.5Zm-.78,9.73c1.61,2.87,1.64,2.87,1.35,6.37-.97.47-1.61.11-1.64-.91-.04-1.39.13-2.78.29-5.46Zm1.59,15.11c-.26.23-.52.47-.79.7-.32-.37-.64-.74-.96-1.11.32-.16.68-.5.96-.44.29.06.49.51.78.84Zm-1.26,2.06c.44.3,1.12.53,1.26.93.11.33-.43.88-.91,1.75-.46-.85-.82-1.26-.89-1.73-.05-.28.35-.63.54-.96Zm.99,10.5c-.19.26-.39.72-.53.7-.32-.05-.61-.33-.91-.51.12-.16.25-.46.36-.46.35.02.69.16,1.07.26Zm-.53,2.12c.34.38.68.76,1.18,1.34-.63.41-1.05.69-1.48.96-.25-.44-.73-.89-.7-1.3.03-.36.64-.67.99-1Zm-.3,16.14q-.74-3.74-.06-5.78c.02-.06.37,0,1.21,0-.45,1.96,1,4.07-1.15,5.79Zm-.14,7.07c.52.29.84.47,1.16.65-.26.41-.47.86-.81,1.19-.08.08-.86-.33-.84-.45.05-.46.31-.9.5-1.39Zm-.12,3.1c.5.22,1,.45,1.78.8-.53.6-.83,1.07-1.26,1.35-.14.09-.88-.31-.88-.48,0-.56.22-1.11.36-1.67Zm-1.27-85.82c.06-.86.13-1.44.13-2.02,0-1.08.24-2.14,1.49-2.18,1.25-.04,1.57.93,1.54,2.06-.02.57.12,1.15.26,2.45-1.51-.14-2.45-.23-3.42-.32Zm-1.48,8.63c.05.15.19.34.15.49-.03.13-.26.22-.4.32-.1-.27-.19-.55-.29-.82h.53Zm.14,13.1c-.03.13-.25.21-.39.32-.09-.26-.19-.53-.28-.79h.52c.05.15.19.33.15.48Zm-.68,13.21c.23.08.47.16.7.23-.09.13-.15.33-.26.36-.12.03-.29-.1-.44-.16v-.44Zm.72,25.75c-.11.13-.22.27-.33.4-.14-.25-.28-.5-.42-.75.17-.05.38-.18.5-.12.13.06.17.3.25.46Zm-.53-13.11c.16.08.4.11.47.24.07.12-.03.34-.06.52-.26-.12-.51-.25-.77-.37.12-.13.24-.26.36-.39Zm.45,26.36c.01.15.03.31.04.46-.15.05-.32.16-.44.13-.12-.03-.19-.22-.29-.34.23-.08.46-.16.69-.25Zm-.6,13.5c.07-.29.15-.58.22-.86.16.09.4.16.45.29.05.14-.08.35-.14.53-.18.01-.36.03-.53.04Zm6.51,15.95h-5.82c0-1.84-.06-3.61.01-5.38.16-3.96,1.15-4.44,5.81-2.69v8.07Zm.47-15.63c-.13-.15-.39-.34-.36-.46.09-.35.29-.67.45-1.01.13.15.26.31.38.46-.16.33-.31.67-.47,1Zm10.16-53.71c.37.11.66.46.99.7-.11.38-.11.88-.36,1.13-.85.89-1.86.77-2.78.14-.27-.19-.54-.8-.43-1.06.5-1.16,1.51-1.23,2.57-.91Zm-2.16-1.78c.82-.85,1.64-1.27,2.52-.13.08.1.06.39-.03.49-.97,1-1.76.63-2.49-.35Zm1.13-9.16c-1.16-.14-1.94-.81-1.83-1.97.11-1.18.45-2.37.9-3.47.16-.39.93-.63,1.45-.72.28-.05.81.31.92.61.43,1.12.73,2.29.92,2.91.05,1.9-.97,2.8-2.37,2.64Zm.02-38.65c.97,1.01,1.92,1.56,2.11,2.3.28,1.11-.56,1.82-1.74,1.88-1.13.06-2.16-.39-2.06-1.58.06-.75.9-1.45,1.69-2.61Zm2.02,15.57h-3.17c.04-3.42.48-4.62,1.54-4.22,2.03.75,1.05,2.6,1.63,4.22Zm-3.58,4.16h3.47c.14,1.97.27,3.74.42,5.79h-4.2c.11-2.06.21-3.83.31-5.79Zm-.08,39.17c.97-.16,1.94-.32,3.37-.56.28,2.04.51,3.8.87,6.42-1.98-.13-3.15-.21-4.5-.3.09-1.98.17-3.63.26-5.56Zm.55,13.24c.14-.39.97-.77,1.45-.73.46.04,1.06.56,1.26,1.01.42.92.61,1.95.71,2.3.09,2.09-.86,3.05-2.24,2.94-1.18-.1-2.01-.72-1.93-1.93.08-1.21.35-2.44.76-3.59Zm-.13,18.18c-.64-2.2.05-3.66,1.83-6.34.79,2.69,1.18,4.02,1.69,5.75-1.23.21-2.3.39-3.52.59Zm2.33,9.13c-.22.25-.43.69-.66.7-.33.02-.69-.25-1.04-.4.21-.25.4-.7.62-.71.34-.02.69.25,1.07.41Zm.7,22.64c-1.67-.96-3.07-1.35-3.12-1.87-.19-2.23-.05-4.51.13-6.75.03-.36.91-.9,1.39-.9.49,0,1.27.47,1.41.9.79,2.42.32,4.86.17,8.62Zm-1.14-18.2c-.95.17-2.2.13-2.27-1.2-.02-.52.85-1.49,1.36-1.52.81-.06,1.66.51,3.3,1.1-1.25.88-1.78,1.52-2.39,1.63Zm15.48-53.56c.09.15.19.29.28.44-.06.16-.11.32-.17.48-.16-.18-.35-.35-.45-.56-.03-.05.22-.24.34-.37Zm-.29-3.27c.02-.14.18-.25.29-.38.06.15.19.32.17.46-.02.14-.19.26-.29.39-.06-.16-.18-.32-.16-.47Zm.51-9.52c-.14.04-.37.14-.4.1-.1-.14-.13-.34-.19-.51.23-.05.46-.1.68-.14-.03.18-.06.37-.09.55Zm-.44,25.63c.14.01.36-.02.4.04.09.15.09.36.12.54-.23-.02-.46-.04-.69-.06.06-.18.11-.35.17-.53Zm-3.34-62.72c.96.94,1.61,1.57,2.26,2.21-.42.37-.8.96-1.28,1.07-1.02.24-2.25.2-2.45-1.11-.08-.52.77-1.18,1.47-2.17Zm-.04,23.02c.47.2,1.13.46,1.25.84.11.36-.39.89-.82,1.77-.51-.83-.89-1.25-.99-1.72-.05-.26.5-.91.57-.88Zm-.37-1.92c.18-.26.33-.7.53-.73.28-.03.61.25.91.39-.17.27-.32.73-.51.74-.3.02-.62-.26-.93-.41Zm.46,30.26c-.23-.49-.53-.97-.63-1.48-.03-.14.67-.63.88-.55.43.17.76.6,1.39,1.16-.75.4-1.2.63-1.64.86Zm1.11,8.44c-.41.26-.82.51-1.23.77-.15-.33-.49-.72-.41-.96.1-.27.58-.39.84-.53.28.25.54.49.8.73Zm-1.55-12.53c-.05-.46.16-.95.28-1.48.54.24,1.17.43,1.16.52-.08.49-.32.96-.5,1.44-.33-.16-.91-.29-.93-.48Zm.89-8.95c-.54-.67-1.09-1.04-1.09-1.43,0-.42.5-.85.78-1.27.36.33.95.62,1.03,1,.08.4-.35.89-.71,1.69Zm-.79-4.89c.34-.06.69-.18,1.03-.17.12,0,.23.29.35.45-.32.16-.64.32-.97.48-.14-.26-.28-.51-.42-.77Zm.66,66.21c-.11.09-.9-.34-.88-.42.11-.46.36-.89.57-1.35.49.27.8.44,1.1.61-.25.4-.45.86-.79,1.16Zm.77,1.87c-.01.54-.25,1.07-.4,1.61-.49-.21-.98-.41-1.75-.74.54-.61.83-1.08,1.26-1.35.15-.1.9.31.89.48Zm-.08-16.51v5.5q-1.98-1.39,0-5.5Zm-.59-8.11c-.37-.33-1.01-.63-1.05-.99-.04-.39.41-1.04.8-1.19.26-.1.78.46,1.39.86-.49.57-.81.95-1.14,1.33Zm-.96-4.23c.14-.14.28-.41.41-.41.34,0,.67.14,1.06.23-.18.26-.4.73-.52.7-.34-.07-.63-.34-.95-.53Zm.71-8.54c-.29-.44-.66-.85-.81-1.33-.05-.16.53-.75.73-.71.46.11.86.47,1.61.94-.72.52-1.12.81-1.53,1.1Zm-1.53-49.03c.09-1.14.03-2.15.29-3.06.13-.45.83-1.02,1.29-1.03.45-.01,1.18.51,1.34.96.32.91.33,1.92.5,3.13h-3.41Zm-1.83,8.57c.14.02.35-.01.39.06.09.16.08.36.11.55-.23-.03-.46-.05-.68-.08.06-.17.12-.35.18-.52Zm0,39.02c.14.02.35-.01.39.06.09.16.08.36.11.55-.23-.03-.46-.05-.69-.08.06-.17.12-.35.18-.52Zm.21-12.84c.1.14.2.28.3.42-.05.16-.1.31-.15.47-.16-.17-.35-.33-.47-.53-.02-.04.21-.24.32-.36Zm-.07-2.87c.04-.26.09-.52.13-.79.06.15.19.31.17.45-.02.13-.19.23-.3.34Zm-.31,55.24c.06-.18.12-.35.18-.53.14.02.36-.01.39.06.09.16.08.36.11.55-.23-.03-.46-.05-.69-.08Zm.21-13.27c.13.02.33,0,.37.07.08.13.07.32.09.49-.21-.04-.43-.07-.64-.11.06-.15.12-.3.18-.45Zm-.06-3.15c-.01-.15.07-.31.12-.46.13.05.36.09.36.14,0,.15-.08.31-.13.47-.12-.05-.35-.09-.35-.15Zm-.13-9.83c.03-.18.02-.39.11-.54.05-.09.26-.08.39-.12.06.17.12.34.18.52-.23.05-.45.1-.68.15Zm.6-38.89c-.14.04-.37.14-.4.1-.1-.14-.13-.33-.19-.5.22-.05.45-.1.67-.15-.03.18-.06.37-.08.55Zm6.09,81.47h-6.01v-8.34c1.14-.35,2.08-.87,3.04-.89,1.82-.05,2.86.87,2.94,2.5.1,2.03.02,4.08.02,6.72Zm-.2-16.26c.06-.18.11-.36.17-.53.14.01.36-.02.4.04.09.15.09.36.12.55-.23-.02-.46-.04-.69-.06Zm.12-13.15c.05-.08.25-.07.39-.1.05.16.1.32.15.49-.21.04-.43.08-.64.12.03-.17.01-.37.1-.51Zm-.05-3.3c.05-.15.1-.31.15-.46.12.05.25.11.37.16-.17.1-.35.2-.52.3Zm.54-9.7c-.14.04-.37.14-.4.1-.1-.14-.13-.34-.19-.51.23-.05.46-.1.68-.14-.03.18-.06.37-.09.55Zm0-51.65c-.14.04-.37.15-.4.1-.1-.14-.14-.34-.2-.51.23-.05.46-.1.69-.15-.03.19-.06.38-.09.56Zm21.06-2.78c.14.29.29.58.43.87-.25.1-.49.2-.73.3-.04-.31-.11-.62-.09-.93,0-.09.25-.16.39-.25Zm-3.69,0c.12.35.27.68.32,1.03.01.09-.32.33-.47.31-.15-.02-.42-.33-.39-.41.12-.33.35-.62.54-.93Zm-7.05.25c.07-.02.22.26.33.4-.12.13-.28.4-.36.37-.29-.08-.55-.26-.83-.41.28-.13.56-.29.85-.37Zm9.43,97.66c-2.67,1.57-5.07,1.06-8.14.69v-11.01c3.27-1.2,3.27-1.25,7.49-.55,1.43,3.53.37,7.2.65,10.87Zm3.17-21.53c-4.23,1.51-7.26,1.63-14.44.54-.12-2.16-.29-4-.3-5.84-.01-4.81-.18-9.63.15-14.41.47-6.82,8.28-7.67,11.87-4.94,1.79,1.36,2.7,3.17,2.71,5.39.03,6.46,0,12.93,0,19.27Zm-13.47-34.05c.25-.21.49-.47.77-.61.1-.05.5.23.49.25-.12.33-.29.64-.45.96-.27-.2-.54-.4-.81-.6Zm3.79-.44c0-.08.27-.15.41-.22.14.28.29.57.43.85-.25.1-.51.19-.76.29-.03-.31-.1-.61-.08-.92Zm3.59.38c-.02-.18.36-.42.57-.63.13.13.38.28.36.38-.07.35-.23.67-.36,1.01-.21-.25-.53-.49-.57-.76Zm3.69-.3c-.02-.1.28-.25.43-.38.19.27.37.54.55.79-.22.22-.43.44-.64.66-.12-.36-.28-.71-.34-1.07Zm2.28-8.47c0,.36-.33.72-.69,1.47-2.63.57-5.54.22-8.42.26-1.62.02-3.24-.22-5.13-.36-.15-1.5-.36-2.71-.37-3.93-.04-4.61-.05-9.23,0-13.84.02-1.45.12-2.94.47-4.35.6-2.46,2.25-3.89,4.78-4.4,5.08-1.01,9.54,1.23,9.51,6.91-.03,6.08-.07,12.16-.14,18.23Zm10.33-54.61c1.19.08,2.18.15,3.3.23v2.49h-3.3v-2.72Zm.77,10.63c.87-.64,1.72-.19,2.06.59.38.89.4,1.94.67,3.44h-3.07c-.75-.98-.54-3.39.35-4.03Zm.15,48.41c.08-.26.52-.42.81-.62.2.27.6.74.55.79-.29.32-.69.55-1.05.81-.12-.33-.39-.71-.31-.99Zm-.13-9.24c-.03-1.39.15-2.79.25-4.19.36-.06.71-.11,1.07-.17v5.71c-.66-.65-1.31-1-1.32-1.35Zm.43-17.55c1.1,2.42,1.05,2.42.81,5.92-2.52-2.24-.44-3.9-.81-5.92Zm.25-14.02c1.05,2.82,1.09,4.48.15,6.28-1.3-1.61-.91-3.31-.15-6.28Zm-.28,52.96c1.12,2.48,1.07,2.49.83,5.99-2.52-2.25-.43-3.92-.83-5.99Zm-.17,18.5v-5.96c1.26,3.01,1.28,3.01,0,5.96Zm-.04,7.74c.59.19,1.19.27,1.19.39.09,1.42.15,2.84.07,4.26,0,.16-.89.28-1.62.48.13-1.9.25-3.47.37-5.14Zm.68-33.87c-.31-.43-.7-.83-.89-1.31-.05-.14.48-.51.75-.77.35.37.71.74,1.05,1.1-.42.45-.66.71-.91.98Zm-3.66-14.5c.12.37.28.73.33,1.1.01.11-.29.27-.44.4-.12-.37-.29-.73-.34-1.11-.02-.11.29-.26.45-.39Zm-.4-3.21c-.01-.09.26-.22.4-.33.1.32.24.63.27.96.01.1-.25.23-.38.35-.1-.32-.24-.64-.29-.98Zm.31,12.82c.15.3.3.59.46.89-.12.13-.25.26-.37.39-.14-.29-.33-.57-.41-.88-.03-.1.21-.26.32-.4Zm-.23-21.97c0-.32-.05-.65,0-.97.01-.1.24-.16.38-.24.12.32.23.64.35.96-.24.08-.48.17-.72.25Zm.36-16.95c.1.17.2.35.3.52-.07.17-.15.35-.22.52-.18-.22-.38-.42-.51-.66-.02-.04.28-.25.43-.38Zm.03,3.11c.11.14.33.3.31.41-.07.33-.23.65-.35.97-.18-.25-.47-.5-.49-.76-.01-.2.34-.41.53-.62Zm-.31,62.58c.15,0,.3.01.45.02v3.5c-.24-.04-.49-.07-.73-.11.09-1.14.19-2.28.28-3.42Zm-.23-10.52c-.02-.12.22-.27.35-.4.17.25.35.5.52.75-.19.2-.38.41-.57.61-.11-.32-.26-.63-.3-.96Zm.41,22.65c.14.32.32.64.4.98.02.09-.25.35-.38.35-.14,0-.42-.25-.4-.34.07-.34.24-.66.38-.99Zm-.26,4.5c-.01-.33-.06-.66-.02-.98.01-.1.25-.17.38-.25.12.32.24.65.37.97-.24.09-.48.18-.72.27Zm.15-38.84c-.11-.33-.26-.65-.31-.98-.02-.12.23-.27.36-.4.17.25.35.51.52.76-.19.21-.38.41-.58.62Zm6.75,54.11c-1.9,1.24-3.63.96-5.76.32-.07-2.14-.21-4.34-.18-6.53.02-1.49,1.38-2.48,2.98-2.4,1.61.08,2.86,1.07,2.94,2.56.1,2.01.02,4.03.02,6.05Zm.8-94.51c.14.33.31.66.38,1.01.02.1-.26.26-.4.38-.12-.3-.3-.63-.37-.98-.02-.11.25-.27.38-.41Zm.07,26.31c.1.32.24.64.27.97.01.09-.26.22-.41.33-.1-.33-.24-.65-.28-.98-.01-.09.27-.21.41-.32Zm-.36-2.88c.03-.16.01-.35.1-.48.05-.08.25-.06.38-.09.05.15.1.31.16.46-.21.04-.42.08-.63.11Zm.24-9.41c-.11-.34-.26-.68-.31-1.03-.01-.1.27-.25.41-.37.11.34.26.68.31,1.03.01.1-.27.24-.42.37Zm.05,25c.14.33.31.66.38,1.01.02.1-.26.26-.39.39-.12-.31-.3-.63-.37-.98-.02-.11.25-.27.38-.41Zm-.03,40.42c-.13-.34-.29-.68-.35-1.03-.02-.11.26-.26.4-.4.13.34.25.68.38,1.02-.14.13-.29.27-.43.4Zm.03-14.08c.13.31.26.62.38.93-.13.13-.25.27-.38.4-.13-.32-.3-.62-.37-.95-.02-.1.24-.25.37-.38Zm-.31-3.28c.13-.08.26-.17.39-.25.09.14.17.28.26.43-.06.15-.13.31-.19.46-.15-.21-.31-.42-.46-.64Zm.67,13.46c-.24.07-.47.13-.71.2.03-.17,0-.36.09-.49.06-.09.26-.09.39-.13.07.14.15.29.22.43Zm-.35-22.45c-.14-.33-.32-.64-.4-.98-.02-.11.23-.28.36-.42.14.33.28.65.43.98-.13.14-.26.28-.39.42Zm10.11-56.79c.39,1.53.62,3.1,1.04,5.34h-3.95v-5.01c.98-1.05,2.71-1.08,2.91-.33Zm-2.84-6.71c.02-1.16.39-2.21,1.73-1.94.56.12,1.07,1.05,1.38,1.72.24.53.13,1.22.22,2.44-1.24.06-2.05.09-3.33.15,0-.89,0-1.63,0-2.38Zm.86,38.42c-.31,0-.93-.86-.88-1.24.2-1.37,1.34-1.22,2.28-.99.43.11.75.67,1.64,1.52-1.39.36-2.22.71-3.05.71Zm2.86,12.53c-3.7.22-4.14-.03-4.08-1.85.03-.81.16-1.62.26-2.43.22-1.82,1.45-1.6,3.09-1.25.21,1.61.44,3.35.73,5.53Zm-3.45-16.23c.27-.4.54-.81.88-1.32.67.33,1.18.58,1.69.83-.32.35-.62.95-.98.98-.5.05-1.05-.31-1.58-.49Zm.29-15.3c.16-.29,1.78-.3,2.02.05,1.12,1.58,1.29,3.41.68,5.57-.93.07-1.89.15-3.04.25-1.14-2.12-.64-4.06.34-5.87Zm-.04,38.94c.14-.29,1.82-.33,2.07.01,1.12,1.6,1.24,3.47.69,5.8h-3.14c-1.04-2.01-.52-3.97.39-5.82Zm-.43,18.65c-.27-2.12-.58-3.84,1.26-5.13,2.13.88,1.83,2.65,1.96,4.59-.93.16-1.88.32-3.21.54Zm2.3,8.97c-.32.32-.6.75-.99.91-.22.09-.62-.3-.94-.47.28-.35.56-.7.82-1.03.47.25.79.42,1.11.59Zm.35,21.86h-2.68c-.58-3-.8-5.8.16-8.52,1.52-.41,2.89-.35,3.05,1.27.25,2.42.72,4.93-.54,7.25Zm-1.84-17.44c-.97-.04-1.41-1.06-1-1.75.31-.52,1.34-.88,2.02-.83.59.04,1.13.75,2.46,1.73-1.77.46-2.63.88-3.48.85Zm.46-99.71c-1.12.16-1.95-.93-1.56-2.02.22-.59,1.13-1.37,1.64-1.31.8.09,1.52.83,2.95,1.71-1.47.82-2.21,1.5-3.03,1.61Zm14.68,11.52c-1.27.08-2.08.13-3.32.21-.04-.87-.09-1.61-.09-2.34,0-1.15.34-2.18,1.7-2.05,1.27.13,1.55,1.17,1.49,2.32-.02.41.09.83.23,1.86Zm-1.92,83.08c.69,1.54,1.51,3.18.16,5.01-1.68-1.64-.4-3.33-.16-5.01Zm-.62-12.8c1.3,1.6,2.09,3.27.8,4.94-.3-.34-.75-.61-.77-.9-.08-1.34-.03-2.69-.03-4.04Zm.95-8.58c-.1.09-.38.13-.47.06-1.27-1.02-.31-2.23-.24-3.37.01-.18.18-.34.48-.88.27.46.45.63.46.81.06,1.14.98,2.34-.23,3.38Zm-.97-39c.1-1.28.2-2.57.4-5.16.99,2.57,1.56,3.83-.4,5.16Zm.26,13.24v-6.03c1.44,2.84,1.3,4.41,0,6.03Zm.29,7.97c.25.18.49.36.74.54-.12.32-.25.64-.37.96-.25-.17-.7-.32-.72-.52-.03-.31.22-.65.35-.98Zm-.29,2.9c.57.31,1.13.55,1.11.62-.16.54-.43,1.05-.67,1.56-.15-.14-.41-.28-.43-.44-.06-.51-.02-1.03-.02-1.75Zm.49-36.67c-1.61-1.79-.54-3.43-.1-6.13.69,2.69,1.57,4.32.1,6.13Zm1.59-22.03h-3.21c-.06-.77-.12-1.52-.18-2.28q3.37-.32,3.39,2.28Zm-5.47,20.15c.21.19.58.39.56.53-.04.31-.29.59-.45.88-.12-.14-.33-.28-.33-.42.01-.32.13-.63.22-1Zm.23,74.81c.1.14.21.29.31.43-.16.27-.33.55-.49.82-.11-.14-.34-.32-.31-.41.11-.3.32-.56.49-.84Zm-.34-8.7v-3.41c.14,0,.28,0,.41,0v3.41c-.14,0-.28,0-.41,0Zm0,13.07c-.01-.32-.06-.64-.02-.96.01-.09.24-.16.37-.24.12.32.23.63.35.95-.23.09-.47.17-.7.26Zm.22-26.08c-.13-.16-.4-.36-.37-.47.09-.36.3-.7.47-1.04.13.16.26.32.39.48-.16.34-.32.69-.49,1.03Zm.07-26.86c.13.15.27.3.4.45-.15.34-.31.67-.46,1.01-.13-.15-.39-.34-.36-.45.08-.35.27-.67.42-1Zm-.37-3.12c-.03-.06.24-.27.38-.42.11.17.22.33.33.5-.06.18-.12.37-.18.55-.18-.21-.4-.39-.52-.63Zm.38,15.8c.13.31.26.62.4.94-.22.13-.43.27-.65.4-.05-.32-.14-.65-.13-.97,0-.13.25-.24.38-.36Zm-.42-2.58c.26-.03.51-.06.77-.09-.04.19-.09.37-.13.56-.16.02-.4.11-.46.04-.11-.12-.12-.34-.17-.52Zm.33-22.26c-.13-.16-.4-.36-.37-.47.09-.36.3-.7.47-1.04.13.16.26.32.39.48-.16.34-.32.69-.49,1.03Zm6.44,80.98h-5.44v-8.1c1.65-1.41,3.34-1.55,5.44-.03.55,2.33.43,4.94,0,8.13Zm1.04-67.42c-.12-.14-.36-.31-.34-.42.08-.33.26-.63.4-.94.12.14.25.28.37.42-.14.31-.29.63-.43.94Zm.36,9.02c-.05.12-.28.15-.43.22-.09-.15-.17-.29-.26-.44.21-.11.43-.21.64-.32.02.18.11.39.05.53Zm-.63-13.57c-.03-.05.22-.25.34-.39.1.15.2.3.3.46-.06.17-.11.34-.17.51-.17-.19-.37-.36-.48-.58Zm.27-9.08c-.12-.34-.28-.67-.33-1.02-.02-.11.26-.26.4-.39.12.34.24.68.37,1.02-.15.13-.29.26-.43.39Zm.08-14.11c.12.35.27.7.32,1.06.01.11-.27.25-.42.38-.11-.35-.27-.7-.32-1.06-.01-.11.27-.25.42-.38Zm-.04,79.47c-.14-.14-.42-.3-.4-.41.07-.35.24-.69.38-1.03.14.14.41.31.39.42-.07.35-.24.69-.37,1.02Zm-.27-4.26c.05-.1.26-.1.4-.15.08.17.15.33.23.5-.24.07-.49.14-.73.21.03-.19.02-.4.11-.56Zm0-10.59c.03-.59.11-1.17.46-1.75v3.33c-.16,0-.31,0-.47,0,0-.52-.02-1.05,0-1.57Zm.22-11.49c-.12-.15-.38-.33-.35-.44.09-.34.28-.65.44-.97.12.15.24.3.37.45-.15.32-.3.64-.45.96Zm0-12.64c-.13-.15-.38-.33-.36-.44.08-.35.28-.67.43-.99.13.15.25.3.38.45-.15.33-.3.66-.45.99Zm26.76,8.12c.17-.05.46,0,.59.13.86.76.25,1.43-.2,2.06-.22.31-.56.54-.85.79-.18-.36-.37-.71-.47-1.08-.23-.88-.03-1.6.93-1.9Zm1.53,2.84c0,.07,0,.14,0,.21h-1.95s-.01-.02-.02-.03c.66-.06,1.32-.12,1.97-.17Zm-5.25-3.58c.45.59.79,1.27,1.16,1.93-.33.16-.66.31-1.34.63-.34-.62-.69-1.26-1.05-1.9.42-.23,1.18-.71,1.22-.65Zm-5.28-.3c.1.98.2,1.95.31,2.93-.26,0-.52-.01-.79-.02.16-.97.32-1.94.48-2.91,0,0,0,0,0,0Zm-3.07.83c.6-1.8,2.03-.56,3.06-.83-.97.5-1.45,2.02-2.94,1.41-.1-.04-.17-.41-.11-.58Zm-1.77,0c-.46.06-1.05.32-1.34.13-.41-.27-.65-.79-.94-1.24.58.05,1.17.03,1.71.21.26.09.39.59.58.9Zm-2.38-1.09v3.51q-2.55-1.39,0-3.51Zm-5.49,2.18c.46-.48,1.03-.87,1.56-1.28.15.35.29.69.61,1.44-.54.25-1.08.55-1.67.72-.09.02-.57-.8-.5-.87Zm22.7,35.97c-.75,3.82-2.49,7.45-1.99,12.12h-19.72c-.84-2.71-1.51-5.29-1.52-8.01-.03-9.41-.06-18.82-.06-28.24,0-.6.21-1.2.32-1.77,4.53-1.22,10.5-1.06,24.49.66.2.85.61,1.82.63,2.79.15,7.56-.71,15.05-2.15,22.44Zm15.51-73.28c.27.54.57,1.06,1.05,1.94-1.57.6-3.1,1.19-4.85,1.86,0-.77-.1-1.14.02-1.4.71-1.59,2.27-2.04,3.67-2.7.03.11.06.22.11.32Zm-5.89,24.65c.28.2.38.65.55,1-.37.12-.82.41-1.08.29-.25-.11-.29-.67-.42-1.02.33-.1.78-.39.95-.27Zm-.03-2.65c1.37-2.69,3.8-2.03,5.87-2.37-1.01,1.26-2.03,2.52-3.29,4.1-.87-.58-1.63-1.09-2.58-1.72Zm-.83,35.64c.14,0,.36-.04.4.04.1.15.11.35.16.54-.24-.01-.49-.03-.73-.04.05-.18.11-.35.16-.53Zm.12-3.57c.4-.57.56-1.07.81-1.12,1.59-.34,3.19-.58,5.24-.93-.3,2.4-1.85,3.26-3.59,4.31-.8-.73-1.64-1.51-2.46-2.26Zm4.08-13.36c0,.13-.36.39-.41.36-.28-.18-.78-.54-.74-.63.32-.7.74-1.35,1.13-2.01.01.76.04,1.52,0,2.29Zm-1.69-2.13c-.19,0-.37-.32-.56-.49.18.03.36.08.55.1.56.06,1.13.11,1.69.17,0,.01,0,.02,0,.03-.56.07-1.12.19-1.68.19Zm-.59-7.3c-.43-2.15.78-2.93,2.16-3.75,1.26.31,2.6.64,3.95.97,0,0,0,.01,0,.02-1.3,2.67-3.84,2.24-6.11,2.77Zm6.12-2.87c-.48-.59-.98-1.17-1.41-1.8-1.09-1.6-1.07-1.61,1.66-3.66-.09,2.03-.17,3.75-.25,5.46Zm-.85-12.57c-1.53.49-3.09.87-5.39,1.49.75-1.36,1.01-2.31,1.63-2.87,1.54-1.39,3.01-.4,4.44.4-.21.36-.38.88-.68.98Zm-6.45-7.58q2.19-1.53,4.63-1.55-1.79,3.92-4.63,1.55Zm4.37-15.17c.19-.24.7-.23,1.07-.33.06.3.25.65.16.88-.28.68-.67,1.31-1.02,1.95-.57-.78-.92-1.61-.2-2.5Zm-3.23,1.59c.71-.15,1.5-.3,2.17-.12.48.13.85.65,1.25,1.05,0,.01-.02.03-.02.04-.46.36-.98.94-1.48.91-.73-.04-1.46-.47-2.13-.85-.11-.06.06-1.01.2-1.04Zm-1.6,2.98c.71.38,1.35.67,1.33.71-.25.67-.58,1.3-.9,1.94-.29-.16-.83-.34-.82-.49.04-.68.23-1.36.39-2.17Zm-.43,14.57c.23-.39.7-.63,1.08-.94.21.28.64.61.6.84-.11.56-.43,1.09-.82,1.96-.58-1.22-.96-1.68-.85-1.86Zm5.43,67.79c-.87,1.18-.7,3.13-1.07,5.13-.81.07-1.74.15-3.02.27-.12-4.94-1.32-9.54-.7-14.85h5.54c.37.71.86,1.23.88,1.78.1,2.67.17,5.25-1.63,7.67Zm-5.77-16.14c1.71-1.81,2.65-2.81,3.51-3.73,2.42.16,3.5,1.36,4.11,3.73h-7.63Zm7.16-4.54c-.2.1-1.26-.84-1.19-1.01.28-.67.8-1.27,1.34-1.78.07-.06.78.56,1.54,1.13-.7.73-1.11,1.37-1.69,1.66Zm2.31-48.5c-.24,1.35-.71,2.66-1.08,3.98-.24-.55-.38-1.22-.78-1.6-1.76-1.69-.81-2.87.61-4.02,1.19-.03,1.39.84,1.25,1.64Zm-2.22-11.47c-.09-1.61.43-2.94,1.76-3.92,1.26,2.67,1.02,3.27-1.76,3.92Zm56.28,46.79c.23.2.43.44.63.66-.23.18-.45.35-.68.53-.12-.28-.27-.56-.33-.86-.02-.09.35-.35.37-.34Zm-2.43-.58c.24.12.26.7.38,1.08-.32.09-.78.36-.92.25-.29-.25-.41-.7-.59-1.06.38-.1.86-.39,1.13-.26Zm-8.13-1.3c.14.01.24.45.36.69-.4.18-.73.33-1.06.48-.12-.32-.23-.64-.35-.96.35-.09.71-.25,1.04-.22Zm-12.58-.81c.36-.3.88-.42,1.34-.6.11.3.21.61.37,1.05-.47.21-.95.41-1.43.62-.11-.37-.4-.96-.29-1.07Zm-2.4-1.59c.22.5.42.98.63,1.45-.33.06-.75.27-.95.13-.3-.19-.45-.63-.66-.96.27-.17.55-.35.99-.62Zm-8.97.22c.05-.34.84-.9,1.13-.81,1.12.32.68,1.16.39,1.88.28,0,.55.01.83.02-.26.03-.52.05-.79.08-.76-.07-1.71-.05-1.56-1.16Zm-3.42-1.74c.59.24,1.19.44,1.73.75.06.03-.21.64-.32.98-.58-.35-1.16-.69-1.75-1.04.11-.23.22-.46.33-.69Zm-4.64,1.26c.17.08.34.16.51.25-.25.18-.5.37-.75.55-.08-.16-.26-.36-.21-.49.05-.14.29-.21.45-.31Zm-2.19-2.06c.1.34.2.68.29,1.03-.28.19-.55.38-.83.57-.12-.44-.28-.88-.33-1.34,0-.06.56-.17.87-.26Zm110.67,45.46c-.19.09-.37.18-.57.26-.19.08-.39.22-.58.22-34.99.04-69.99.08-104.98.11-.82,0-1.65-.11-3.05-.22-.52-2.73-.14-5.43-2.73-6.98-.4-.24-.42-1.14-.59-1.75-1.5-5.44-2.39-19.79-1.66-26.81.14-.16.25-.35.41-.47.15-.11.37-.23.55-.22,6.89.47,13.79.82,20.66,1.46,30.64,2.83,61.21,6.19,91.52,11.64.99.18,1.94.6,2.81.88.32,10.1-.33,17.91-1.79,21.88Zm7.08-18.26c.12.13.24.26.37.39-.29.13-.57.31-.87.38-.1.02-.27-.21-.4-.32.3-.15.6-.3.9-.45Zm.25,18.38c-1-.68-1.57-.88-1.58-1.1-.15-4.12-.26-8.24-.27-12.36,0-.35.81-.97,1.25-.97.4,0,1.15.64,1.17,1.02.18,4.32.47,8.65-.57,13.41Zm9.1-.39c-1.81,1.04-2.89.43-3.4-.83-1.18-2.92-1.51-14.12-.67-18.67,1.15.11,2.33.21,3.76.35.72,6.64.32,13.01.31,19.16Zm53.74-4.65c-.5-1.27-.91-1.83-.91-2.38-.02-13.34,0-26.68.03-40.02,0-.37.27-.75.71-1.87,1,5.07,1.13,36.71.17,44.27Zm16.82,3.83c-.48.04-1.35-.7-1.5-1.25-.36-1.26.43-2.31,1.37-2,.61.2,1.06.86,1.86,1.56-.75.79-1.2,1.64-1.73,1.69Zm15.1,1.36h-6.39c0-2.51-.1-4.55.03-6.58.13-1.95,1.37-3.11,3.11-3.25,1.72-.13,3.14.99,3.44,2.87.36,2.24.31,4.47-.19,6.96Zm4.51-31.54c-.03,4.19-.26,8.37-.43,12.55-.02.4-.26.78-.6,1.78h-13.07c-.25-1.24-.68-2.41-.69-3.58-.07-7.51-.12-15.01-.03-22.52.05-3.94,2.9-6.78,6.66-7,4.26-.25,7.57,2.27,7.88,6.37.3,4.12.32,8.26.29,12.39Zm4.76,30.34c-.32.12-1.34-.73-1.51-1.31-.29-.94-.19-2.09,1.17-2.29,1.18-.17,1.88.42,2.07,2.14-.42.39-.98,1.18-1.73,1.46Zm28.85-41.77q1.63,1.26,0,3.67v-3.67Zm1.13,12.92c.15.73.46,1.46.41,2.18-.03.47-.56.9-1.41,2.14-.14-2-.22-3.1-.3-4.2.43-.04.87-.08,1.3-.12Zm.2,27.04c-.03.21-.66.33-1.39.67.07-.93.11-1.67.22-2.39,0-.03.88-.06.92.06.19.53.32,1.13.25,1.67Zm-1.01-7.3c-.21-.65-.48-1.14-.49-1.64-.06-1.6-.02-3.2-.02-4.79,2.29,3.55,2.24,3.56.52,6.43Zm6.44-32.78q1.21,1.63.43,3.76-.97-1.65-.43-3.76Zm.11,12.68c1.59,1.59,1.62,2.71-.13,4.09-.74-1.38-1-2.51.13-4.09Zm-.72,13.55c2.29,2.1,2.02,4.22,1.39,6.83-.65-.59-1.32-.9-1.34-1.25-.11-1.85-.05-3.72-.05-5.57Zm.57,14.36c-.19-.5-.57-1.03-.51-1.5.05-.36.66-.63,1.03-.95.28.46.56.92.96,1.58-.59.35-1.03.61-1.48.87Zm5.75-40.89c2.41.96,1.8,2.29,1.67,3.41-.03.25-.56.6-.87.62-.25.02-.74-.38-.76-.62-.09-.98-.04-1.98-.04-3.41Zm1.03,40.85c-.32-.14-.89-.25-.9-.41-.06-.69.05-1.39.11-2.23.67.33,1.31.54,1.29.66-.08.67-.32,1.32-.5,1.98Zm.58-7.92c-.44.02-.89.03-1.33.05-.7-2.11-.43-4.27-.11-6.42,1.19-.04,1.67.54,1.65,1.5-.03,1.63-.13,3.25-.21,4.88Zm.09-16.89c-.04.27-.53.62-.84.65-.26.03-.8-.34-.81-.55-.05-.95.04-1.9.09-2.9,2.17.33,1.75,1.67,1.57,2.8Zm7.89-16.99c.06,1.2.12,2.4.18,3.6-.29.01-.59.03-.88.04-.06-1.2-.11-2.4-.17-3.6.29-.01.58-.03.87-.04Zm-.15,14.36s.37.29.37.45c.01.96-.03,1.93-.06,2.89-.29,0-.58-.01-.87-.02-.08-.9-.21-1.8-.2-2.7,0-.22.47-.44.76-.62Zm.18,18.46c-.23,0-.47,0-.7.01-.09-.71-.24-1.43-.24-2.14,0-.19.47-.4.76-.53.05-.02.38.29.37.43-.03.74-.13,1.48-.2,2.23Zm15.24-32.74c.3.05.77.48.78.75.02.95-.12,1.91-.2,2.86-.49,0-.97-.02-1.46-.03,0-1-.06-2.01.04-3,.02-.24.58-.63.84-.59Zm-.41-43.52c-.05.17-.09.33-.14.5-.14-.23-.33-.44-.41-.68-.04-.13.1-.32.15-.49.13.22.26.45.39.67Zm-4.5-31.81c.16-.64.97-1.65,1.37-1.6.79.1,1.5.83,2.73,1.61-1.01.77-1.5,1.4-2.12,1.57-1.06.29-2.22-.64-1.98-1.58Zm1.75,61.6c-.32,0-.85-.34-.92-.62-.48-1.95-1.01-3.95.99-5.69,1.85,1.8,1.41,3.78.87,5.74-.08.28-.62.59-.94.58Zm.62,17.28c-.3.01-.6.03-.9.04-.05-1.23-.11-2.46-.16-3.68.3-.01.59-.03.89-.04.06,1.23.12,2.46.18,3.68Zm-.24-61.38q-1.25-1.72-.46-4.83c1.43,1.88,1.4,3.3.46,4.83Zm.15,12.92v2.7c-.2.02-.41.05-.61.07-.15-.88-.29-1.77-.44-2.65.35-.04.7-.09,1.05-.13Zm-1.53,56.06c.18-.29.69-.52,1.05-.52.36,0,.93.26,1.03.53.41,1.13.67,2.32.92,3.26-.18,1.09-.17,1.96-.51,2.67-.21.44-.95.85-1.45.85-.5,0-1.34-.45-1.43-.84-.48-2-.8-4.06.39-5.95Zm-1.56-55.29c.01-.09.25-.14.39-.22.07.37.19.73.18,1.1,0,.1-.39.18-.6.28,0-.39-.02-.78.03-1.16Zm-1.29,44.75c.02-.23.56-.41.85-.61.31.47.88.96.85,1.41-.04.73-.45,1.45-.76,2.15-.03.08-.39.01-.99.01,0-.97-.05-1.97.04-2.96Zm7.44,43.72h-6.58c-1.68-4.34-1.01-8.68-.55-12.95.23-2.18,2.01-3.4,3.94-3.22,1.69.16,3.03,1.32,3.29,3.26.56,4.14.54,8.3-.1,12.92Zm8.65-44.49c.23,0,.46,0,.7,0v3.75c-.23,0-.46,0-.7,0v-3.75Zm.74,14.49v3.26c-.25.01-.5.03-.75.04-.1-1.06-.2-2.13-.3-3.19.35-.04.7-.08,1.05-.11Zm-.01,18.38c-.23,0-.46,0-.7.01-.09-.71-.24-1.42-.24-2.12,0-.19.47-.4.76-.53.05-.02.38.28.37.43-.03.74-.12,1.48-.2,2.22Zm8.54-31.48v4.24q-1.55-2.12,0-4.24Zm-1.33,13.49c.09-.25.62-.36.97-.46.11-.03.36.17.42.32.15.35.22.74.32,1.09,0,.22.07.46-.01.61-.26.45-.58.87-.87,1.31-.35-.38-.9-.71-1.02-1.16-.14-.53-.01-1.19.19-1.72Zm.79,12.73c1.22,2.11,1.19,4.24.39,6.75-1.71-2.71-1.81-2.71-.39-6.75Zm-.27,14.27c-.23-.47-.7-.98-.63-1.4.06-.39.71-.68,1.1-1.01.27.46.53.92.92,1.6-.55.32-.97.57-1.39.81Zm5.54-38.57c.24-.66.65-1.26.99-1.88.41.55.82,1.09,1.02,1.36-.08.88-.02,1.33-.18,1.66-.14.29-.54.63-.82.63-.3,0-.72-.31-.87-.6-.18-.33-.26-.83-.13-1.17Zm1.03,24.32c1.23,2.94,1.25,2.94-.06,7.53q-1.11-4.73.06-7.53Zm-.89-12.52c0-.24.51-.62.81-.64.29-.02.85.33.86.54.05.93-.05,1.87-.09,2.8-.47,0-.93-.01-1.4-.02-.07-.89-.21-1.79-.18-2.68Zm.62,26.77c-.23-.47-.7-.99-.63-1.41.07-.39.71-.68,1.1-1.02.26.46.53.93.92,1.61-.55.32-.97.57-1.39.81Zm6.26.05c-.19-.54-.6-1.11-.48-1.53.11-.36.81-.55,1.25-.82.12.57.32,1.15.31,1.72,0,.18-.58.35-1.08.63Zm.47-8c-1.56-2.16-1.22-4.22-.17-6.27,1.23,2.07.99,4.18.17,6.27Zm-.76-16.22v-3.45q1.41,1.36,0,3.45Zm1.49-14.32c.02.58-.24,1.17-.52,2.36-1.74-1.9-1.84-3.09-.48-4.23,1.29.17.98,1.16,1,1.87Z"/></svg>